# Pixel Sniper over default Sniper - Bolt
# Fleasion-ready: already in the default MeshPart's space
o Bolt
v -0.389323 -0.090769 -0.003434 0.9300 0.8500 0.7000
v -0.389323 -0.090769 -0.003434 0.9300 0.8500 0.7000
v -0.389323 -0.090769 -0.003434 0.9300 0.8500 0.7000
v -0.389323 -0.090769 0.010066 0.9300 0.8500 0.7000
v -0.389323 -0.090769 0.010066 0.9300 0.8500 0.7000
v -0.389323 -0.090769 0.010066 0.9300 0.8500 0.7000
v -0.389323 -0.077304 -0.043934 0.9300 0.8500 0.7000
v -0.389323 -0.077304 -0.043934 0.9300 0.8500 0.7000
v -0.389323 -0.077304 -0.043934 0.9300 0.8500 0.7000
v -0.389323 -0.077304 -0.003434 0.9300 0.8500 0.7000
v -0.389323 -0.077304 -0.003434 0.9300 0.8500 0.7000
v -0.389323 -0.077304 -0.003434 0.9300 0.8500 0.7000
v -0.389323 -0.077304 0.010066 0.9300 0.8500 0.7000
v -0.389323 -0.077304 0.010066 0.9300 0.8500 0.7000
v -0.389323 -0.077304 0.010066 0.9300 0.8500 0.7000
v -0.389323 -0.077304 0.050566 0.9300 0.8500 0.7000
v -0.389323 -0.077304 0.050566 0.9300 0.8500 0.7000
v -0.389323 -0.077304 0.050566 0.9300 0.8500 0.7000
v -0.389323 -0.063834 -0.057434 0.9300 0.8500 0.7000
v -0.389323 -0.063834 -0.057434 0.9300 0.8500 0.7000
v -0.389323 -0.063834 -0.057434 0.9300 0.8500 0.7000
v -0.389323 -0.063834 -0.043934 0.9300 0.8500 0.7000
v -0.389323 -0.063834 -0.043934 0.9300 0.8500 0.7000
v -0.389323 -0.063834 -0.043934 0.9300 0.8500 0.7000
v -0.389323 -0.063834 0.050566 0.9300 0.8500 0.7000
v -0.389323 -0.063834 0.050566 0.9300 0.8500 0.7000
v -0.389323 -0.063834 0.050566 0.9300 0.8500 0.7000
v -0.389323 -0.063834 0.063566 0.9300 0.8500 0.7000
v -0.389323 -0.063834 0.063566 0.9300 0.8500 0.7000
v -0.389323 -0.063834 0.063566 0.9300 0.8500 0.7000
v -0.389323 -0.036894 -0.070934 0.9300 0.8500 0.7000
v -0.389323 -0.036894 -0.070934 0.9300 0.8500 0.7000
v -0.389323 -0.036894 -0.070934 0.9300 0.8500 0.7000
v -0.389323 -0.036894 -0.057434 0.9300 0.8500 0.7000
v -0.389323 -0.036894 -0.057434 0.9300 0.8500 0.7000
v -0.389323 -0.036894 -0.057434 0.9300 0.8500 0.7000
v -0.389323 -0.036894 0.063566 0.9300 0.8500 0.7000
v -0.389323 -0.036894 0.063566 0.9300 0.8500 0.7000
v -0.389323 -0.036894 0.063566 0.9300 0.8500 0.7000
v -0.389323 -0.036894 0.077066 0.9300 0.8500 0.7000
v -0.389323 -0.036894 0.077066 0.9300 0.8500 0.7000
v -0.389323 -0.036894 0.077066 0.9300 0.8500 0.7000
v -0.389323 -0.009959 -0.084434 0.9300 0.8500 0.7000
v -0.389323 -0.009959 -0.084434 0.9300 0.8500 0.7000
v -0.389323 -0.009959 -0.084434 0.9300 0.8500 0.7000
v -0.389323 -0.009959 -0.070934 0.9300 0.8500 0.7000
v -0.389323 -0.009959 -0.070934 0.9300 0.8500 0.7000
v -0.389323 -0.009959 -0.070934 0.9300 0.8500 0.7000
v -0.389323 -0.009959 0.077066 0.9300 0.8500 0.7000
v -0.389323 -0.009959 0.077066 0.9300 0.8500 0.7000
v -0.389323 -0.009959 0.077066 0.9300 0.8500 0.7000
v -0.389323 -0.009959 0.090566 0.9300 0.8500 0.7000
v -0.389323 -0.009959 0.090566 0.9300 0.8500 0.7000
v -0.389323 -0.009959 0.090566 0.9300 0.8500 0.7000
v -0.389323 0.003511 -0.084434 0.9300 0.8500 0.7000
v -0.389323 0.003511 -0.084434 0.9300 0.8500 0.7000
v -0.389323 0.003511 -0.084434 0.9300 0.8500 0.7000
v -0.389323 0.003511 -0.070934 0.9300 0.8500 0.7000
v -0.389323 0.003511 -0.070934 0.9300 0.8500 0.7000
v -0.389323 0.003511 -0.070934 0.9300 0.8500 0.7000
v -0.389323 0.003511 0.077066 0.9300 0.8500 0.7000
v -0.389323 0.003511 0.077066 0.9300 0.8500 0.7000
v -0.389323 0.003511 0.077066 0.9300 0.8500 0.7000
v -0.389323 0.003511 0.090566 0.9300 0.8500 0.7000
v -0.389323 0.003511 0.090566 0.9300 0.8500 0.7000
v -0.389323 0.003511 0.090566 0.9300 0.8500 0.7000
v -0.389323 0.030451 -0.070934 0.9300 0.8500 0.7000
v -0.389323 0.030451 -0.070934 0.9300 0.8500 0.7000
v -0.389323 0.030451 -0.070934 0.9300 0.8500 0.7000
v -0.389323 0.030451 -0.057434 0.9300 0.8500 0.7000
v -0.389323 0.030451 -0.057434 0.9300 0.8500 0.7000
v -0.389323 0.030451 -0.057434 0.9300 0.8500 0.7000
v -0.389323 0.030451 0.063566 0.9300 0.8500 0.7000
v -0.389323 0.030451 0.063566 0.9300 0.8500 0.7000
v -0.389323 0.030451 0.063566 0.9300 0.8500 0.7000
v -0.389323 0.030451 0.077066 0.9300 0.8500 0.7000
v -0.389323 0.030451 0.077066 0.9300 0.8500 0.7000
v -0.389323 0.030451 0.077066 0.9300 0.8500 0.7000
v -0.389323 0.057386 -0.057434 0.9300 0.8500 0.7000
v -0.389323 0.057386 -0.057434 0.9300 0.8500 0.7000
v -0.389323 0.057386 -0.057434 0.9300 0.8500 0.7000
v -0.389323 0.057386 -0.030434 0.9300 0.8500 0.7000
v -0.389323 0.057386 -0.030434 0.9300 0.8500 0.7000
v -0.389323 0.057386 -0.030434 0.9300 0.8500 0.7000
v -0.389323 0.057386 0.037066 0.9300 0.8500 0.7000
v -0.389323 0.057386 0.037066 0.9300 0.8500 0.7000
v -0.389323 0.057386 0.037066 0.9300 0.8500 0.7000
v -0.389323 0.057386 0.063566 0.9300 0.8500 0.7000
v -0.389323 0.057386 0.063566 0.9300 0.8500 0.7000
v -0.389323 0.057386 0.063566 0.9300 0.8500 0.7000
v -0.389323 0.070856 -0.030434 0.9300 0.8500 0.7000
v -0.389323 0.070856 -0.030434 0.9300 0.8500 0.7000
v -0.389323 0.070856 -0.030434 0.9300 0.8500 0.7000
v -0.389323 0.070856 0.037066 0.9300 0.8500 0.7000
v -0.389323 0.070856 0.037066 0.9300 0.8500 0.7000
v -0.389323 0.070856 0.037066 0.9300 0.8500 0.7000
v 0.221927 -0.120749 -0.046934 0.9300 0.8500 0.7000
v 0.221927 -0.120749 -0.046934 0.9300 0.8500 0.7000
v 0.221927 -0.120749 -0.046934 0.9300 0.8500 0.7000
v 0.221927 -0.120749 0.053066 0.9300 0.8500 0.7000
v 0.221927 -0.120749 0.053066 0.9300 0.8500 0.7000
v 0.221927 -0.120749 0.053066 0.9300 0.8500 0.7000
v 0.221927 -0.087394 -0.080434 0.9300 0.8500 0.7000
v 0.221927 -0.087394 -0.080434 0.9300 0.8500 0.7000
v 0.221927 -0.087394 -0.080434 0.9300 0.8500 0.7000
v 0.221927 -0.087394 -0.046934 0.9300 0.8500 0.7000
v 0.221927 -0.087394 -0.046934 0.9300 0.8500 0.7000
v 0.221927 -0.087394 -0.046934 0.9300 0.8500 0.7000
v 0.221927 -0.087394 0.053066 0.9300 0.8500 0.7000
v 0.221927 -0.087394 0.053066 0.9300 0.8500 0.7000
v 0.221927 -0.087394 0.053066 0.9300 0.8500 0.7000
v 0.221927 -0.087394 0.086566 0.9300 0.8500 0.7000
v 0.221927 -0.087394 0.086566 0.9300 0.8500 0.7000
v 0.221927 -0.087394 0.086566 0.9300 0.8500 0.7000
v 0.221927 -0.054034 -0.113434 0.9300 0.8500 0.7000
v 0.221927 -0.054034 -0.113434 0.9300 0.8500 0.7000
v 0.221927 -0.054034 -0.113434 0.9300 0.8500 0.7000
v 0.221927 -0.054034 -0.080434 0.9300 0.8500 0.7000
v 0.221927 -0.054034 -0.080434 0.9300 0.8500 0.7000
v 0.221927 -0.054034 -0.080434 0.9300 0.8500 0.7000
v 0.221927 -0.054034 0.086566 0.9300 0.8500 0.7000
v 0.221927 -0.054034 0.086566 0.9300 0.8500 0.7000
v 0.221927 -0.054034 0.086566 0.9300 0.8500 0.7000
v 0.221927 -0.054034 0.120066 0.9300 0.8500 0.7000
v 0.221927 -0.054034 0.120066 0.9300 0.8500 0.7000
v 0.221927 -0.054034 0.120066 0.9300 0.8500 0.7000
v 0.221927 0.046036 -0.113434 0.9300 0.8500 0.7000
v 0.221927 0.046036 -0.113434 0.9300 0.8500 0.7000
v 0.221927 0.046036 -0.113434 0.9300 0.8500 0.7000
v 0.221927 0.046036 -0.080434 0.9300 0.8500 0.7000
v 0.221927 0.046036 -0.080434 0.9300 0.8500 0.7000
v 0.221927 0.046036 -0.080434 0.9300 0.8500 0.7000
v 0.221927 0.046036 0.086566 0.9300 0.8500 0.7000
v 0.221927 0.046036 0.086566 0.9300 0.8500 0.7000
v 0.221927 0.046036 0.086566 0.9300 0.8500 0.7000
v 0.221927 0.046036 0.120066 0.9300 0.8500 0.7000
v 0.221927 0.046036 0.120066 0.9300 0.8500 0.7000
v 0.221927 0.046036 0.120066 0.9300 0.8500 0.7000
v 0.221927 0.079396 -0.080434 0.9300 0.8500 0.7000
v 0.221927 0.079396 -0.080434 0.9300 0.8500 0.7000
v 0.221927 0.079396 -0.080434 0.9300 0.8500 0.7000
v 0.221927 0.079396 -0.046934 0.9300 0.8500 0.7000
v 0.221927 0.079396 -0.046934 0.9300 0.8500 0.7000
v 0.221927 0.079396 -0.046934 0.9300 0.8500 0.7000
v 0.221927 0.079396 0.053066 0.9300 0.8500 0.7000
v 0.221927 0.079396 0.053066 0.9300 0.8500 0.7000
v 0.221927 0.079396 0.053066 0.9300 0.8500 0.7000
v 0.221927 0.079396 0.086566 0.9300 0.8500 0.7000
v 0.221927 0.079396 0.086566 0.9300 0.8500 0.7000
v 0.221927 0.079396 0.086566 0.9300 0.8500 0.7000
v 0.221927 0.112751 -0.046934 0.9300 0.8500 0.7000
v 0.221927 0.112751 -0.046934 0.9300 0.8500 0.7000
v 0.221927 0.112751 -0.046934 0.9300 0.8500 0.7000
v 0.221927 0.112751 0.053066 0.9300 0.8500 0.7000
v 0.221927 0.112751 0.053066 0.9300 0.8500 0.7000
v 0.221927 0.112751 0.053066 0.9300 0.8500 0.7000
v 0.248977 -0.090769 -0.003434 0.9300 0.8500 0.7000
v 0.248977 -0.090769 -0.003434 0.9300 0.8500 0.7000
v 0.248977 -0.090769 -0.003434 0.9300 0.8500 0.7000
v 0.248977 -0.090769 0.010066 0.9300 0.8500 0.7000
v 0.248977 -0.090769 0.010066 0.9300 0.8500 0.7000
v 0.248977 -0.090769 0.010066 0.9300 0.8500 0.7000
v 0.248977 -0.077304 -0.043934 0.9300 0.8500 0.7000
v 0.248977 -0.077304 -0.043934 0.9300 0.8500 0.7000
v 0.248977 -0.077304 -0.043934 0.9300 0.8500 0.7000
v 0.248977 -0.077304 -0.003434 0.9300 0.8500 0.7000
v 0.248977 -0.077304 -0.003434 0.9300 0.8500 0.7000
v 0.248977 -0.077304 -0.003434 0.9300 0.8500 0.7000
v 0.248977 -0.077304 0.010066 0.9300 0.8500 0.7000
v 0.248977 -0.077304 0.010066 0.9300 0.8500 0.7000
v 0.248977 -0.077304 0.010066 0.9300 0.8500 0.7000
v 0.248977 -0.077304 0.050566 0.9300 0.8500 0.7000
v 0.248977 -0.077304 0.050566 0.9300 0.8500 0.7000
v 0.248977 -0.077304 0.050566 0.9300 0.8500 0.7000
v 0.248977 -0.063834 -0.057434 0.9300 0.8500 0.7000
v 0.248977 -0.063834 -0.057434 0.9300 0.8500 0.7000
v 0.248977 -0.063834 -0.057434 0.9300 0.8500 0.7000
v 0.248977 -0.063834 -0.043934 0.9300 0.8500 0.7000
v 0.248977 -0.063834 -0.043934 0.9300 0.8500 0.7000
v 0.248977 -0.063834 -0.043934 0.9300 0.8500 0.7000
v 0.248977 -0.063834 0.050566 0.9300 0.8500 0.7000
v 0.248977 -0.063834 0.050566 0.9300 0.8500 0.7000
v 0.248977 -0.063834 0.050566 0.9300 0.8500 0.7000
v 0.248977 -0.063834 0.063566 0.9300 0.8500 0.7000
v 0.248977 -0.063834 0.063566 0.9300 0.8500 0.7000
v 0.248977 -0.063834 0.063566 0.9300 0.8500 0.7000
v 0.248977 -0.036894 -0.070934 0.9300 0.8500 0.7000
v 0.248977 -0.036894 -0.070934 0.9300 0.8500 0.7000
v 0.248977 -0.036894 -0.070934 0.9300 0.8500 0.7000
v 0.248977 -0.036894 -0.057434 0.9300 0.8500 0.7000
v 0.248977 -0.036894 -0.057434 0.9300 0.8500 0.7000
v 0.248977 -0.036894 -0.057434 0.9300 0.8500 0.7000
v 0.248977 -0.036894 0.063566 0.9300 0.8500 0.7000
v 0.248977 -0.036894 0.063566 0.9300 0.8500 0.7000
v 0.248977 -0.036894 0.063566 0.9300 0.8500 0.7000
v 0.248977 -0.036894 0.077066 0.9300 0.8500 0.7000
v 0.248977 -0.036894 0.077066 0.9300 0.8500 0.7000
v 0.248977 -0.036894 0.077066 0.9300 0.8500 0.7000
v 0.248977 -0.009959 -0.084434 0.9300 0.8500 0.7000
v 0.248977 -0.009959 -0.084434 0.9300 0.8500 0.7000
v 0.248977 -0.009959 -0.084434 0.9300 0.8500 0.7000
v 0.248977 -0.009959 -0.070934 0.9300 0.8500 0.7000
v 0.248977 -0.009959 -0.070934 0.9300 0.8500 0.7000
v 0.248977 -0.009959 -0.070934 0.9300 0.8500 0.7000
v 0.248977 -0.009959 0.077066 0.9300 0.8500 0.7000
v 0.248977 -0.009959 0.077066 0.9300 0.8500 0.7000
v 0.248977 -0.009959 0.077066 0.9300 0.8500 0.7000
v 0.248977 -0.009959 0.090566 0.9300 0.8500 0.7000
v 0.248977 -0.009959 0.090566 0.9300 0.8500 0.7000
v 0.248977 -0.009959 0.090566 0.9300 0.8500 0.7000
v 0.248977 0.003511 -0.084434 0.9300 0.8500 0.7000
v 0.248977 0.003511 -0.084434 0.9300 0.8500 0.7000
v 0.248977 0.003511 -0.084434 0.9300 0.8500 0.7000
v 0.248977 0.003511 -0.070934 0.9300 0.8500 0.7000
v 0.248977 0.003511 -0.070934 0.9300 0.8500 0.7000
v 0.248977 0.003511 -0.070934 0.9300 0.8500 0.7000
v 0.248977 0.003511 0.077066 0.9300 0.8500 0.7000
v 0.248977 0.003511 0.077066 0.9300 0.8500 0.7000
v 0.248977 0.003511 0.077066 0.9300 0.8500 0.7000
v 0.248977 0.003511 0.090566 0.9300 0.8500 0.7000
v 0.248977 0.003511 0.090566 0.9300 0.8500 0.7000
v 0.248977 0.003511 0.090566 0.9300 0.8500 0.7000
v 0.248977 0.030451 -0.070934 0.9300 0.8500 0.7000
v 0.248977 0.030451 -0.070934 0.9300 0.8500 0.7000
v 0.248977 0.030451 -0.070934 0.9300 0.8500 0.7000
v 0.248977 0.030451 -0.057434 0.9300 0.8500 0.7000
v 0.248977 0.030451 -0.057434 0.9300 0.8500 0.7000
v 0.248977 0.030451 -0.057434 0.9300 0.8500 0.7000
v 0.248977 0.030451 0.063566 0.9300 0.8500 0.7000
v 0.248977 0.030451 0.063566 0.9300 0.8500 0.7000
v 0.248977 0.030451 0.063566 0.9300 0.8500 0.7000
v 0.248977 0.030451 0.077066 0.9300 0.8500 0.7000
v 0.248977 0.030451 0.077066 0.9300 0.8500 0.7000
v 0.248977 0.030451 0.077066 0.9300 0.8500 0.7000
v 0.248977 0.057386 -0.057434 0.9300 0.8500 0.7000
v 0.248977 0.057386 -0.057434 0.9300 0.8500 0.7000
v 0.248977 0.057386 -0.057434 0.9300 0.8500 0.7000
v 0.248977 0.057386 -0.030434 0.9300 0.8500 0.7000
v 0.248977 0.057386 -0.030434 0.9300 0.8500 0.7000
v 0.248977 0.057386 -0.030434 0.9300 0.8500 0.7000
v 0.248977 0.057386 0.037066 0.9300 0.8500 0.7000
v 0.248977 0.057386 0.037066 0.9300 0.8500 0.7000
v 0.248977 0.057386 0.037066 0.9300 0.8500 0.7000
v 0.248977 0.057386 0.063566 0.9300 0.8500 0.7000
v 0.248977 0.057386 0.063566 0.9300 0.8500 0.7000
v 0.248977 0.057386 0.063566 0.9300 0.8500 0.7000
v 0.248977 0.070856 -0.030434 0.9300 0.8500 0.7000
v 0.248977 0.070856 -0.030434 0.9300 0.8500 0.7000
v 0.248977 0.070856 -0.030434 0.9300 0.8500 0.7000
v 0.248977 0.070856 0.037066 0.9300 0.8500 0.7000
v 0.248977 0.070856 0.037066 0.9300 0.8500 0.7000
v 0.248977 0.070856 0.037066 0.9300 0.8500 0.7000
v 0.307377 0.002891 -0.191434 0.9300 0.8500 0.7000
v 0.307377 0.002891 -0.191434 0.9300 0.8500 0.7000
v 0.307377 0.002891 -0.191434 0.9300 0.8500 0.7000
v 0.307377 0.002891 -0.056434 0.9300 0.8500 0.7000
v 0.307377 0.002891 -0.056434 0.9300 0.8500 0.7000
v 0.307377 0.029981 -0.191434 0.9300 0.8500 0.7000
v 0.307377 0.029981 -0.191434 0.9300 0.8500 0.7000
v 0.307377 0.029981 -0.191434 0.9300 0.8500 0.7000
v 0.307377 0.029981 -0.137434 0.9300 0.8500 0.7000
v 0.307377 0.029981 -0.137434 0.9300 0.8500 0.7000
v 0.307377 0.029981 -0.137434 0.9300 0.8500 0.7000
v 0.307377 0.057076 -0.137434 0.9300 0.8500 0.7000
v 0.307377 0.057076 -0.137434 0.9300 0.8500 0.7000
v 0.307377 0.057076 -0.137434 0.9300 0.8500 0.7000
v 0.307377 0.057076 -0.056434 0.9300 0.8500 0.7000
v 0.307377 0.057076 -0.056434 0.9300 0.8500 0.7000
v 0.320377 -0.038414 -0.267934 0.9300 0.8500 0.7000
v 0.320377 -0.038414 -0.267934 0.9300 0.8500 0.7000
v 0.320377 -0.038414 -0.267934 0.9300 0.8500 0.7000
v 0.320377 -0.038414 -0.235434 0.9300 0.8500 0.7000
v 0.320377 -0.038414 -0.235434 0.9300 0.8500 0.7000
v 0.320377 -0.038414 -0.235434 0.9300 0.8500 0.7000
v 0.320377 -0.005989 -0.267934 0.9300 0.8500 0.7000
v 0.320377 -0.005989 -0.267934 0.9300 0.8500 0.7000
v 0.320377 -0.005989 -0.267934 0.9300 0.8500 0.7000
v 0.320377 -0.005989 -0.235434 0.9300 0.8500 0.7000
v 0.320377 -0.005989 -0.235434 0.9300 0.8500 0.7000
v 0.320377 -0.005989 -0.235434 0.9300 0.8500 0.7000
v 0.331177 -0.049224 -0.278434 0.9300 0.8500 0.7000
v 0.331177 -0.049224 -0.278434 0.9300 0.8500 0.7000
v 0.331177 -0.049224 -0.278434 0.9300 0.8500 0.7000
v 0.331177 -0.049224 -0.224434 0.9300 0.8500 0.7000
v 0.331177 -0.049224 -0.224434 0.9300 0.8500 0.7000
v 0.331177 -0.049224 -0.224434 0.9300 0.8500 0.7000
v 0.331177 -0.038414 -0.267934 0.9300 0.8500 0.7000
v 0.331177 -0.038414 -0.267934 0.9300 0.8500 0.7000
v 0.331177 -0.038414 -0.267934 0.9300 0.8500 0.7000
v 0.331177 -0.038414 -0.235434 0.9300 0.8500 0.7000
v 0.331177 -0.038414 -0.235434 0.9300 0.8500 0.7000
v 0.331177 -0.038414 -0.235434 0.9300 0.8500 0.7000
v 0.331177 -0.027604 -0.278434 0.9300 0.8500 0.7000
v 0.331177 -0.027604 -0.278434 0.9300 0.8500 0.7000
v 0.331177 -0.016799 -0.278434 0.9300 0.8500 0.7000
v 0.331177 -0.016799 -0.278434 0.9300 0.8500 0.7000
v 0.331177 -0.016799 -0.267934 0.9300 0.8500 0.7000
v 0.331177 -0.016799 -0.267934 0.9300 0.8500 0.7000
v 0.331177 -0.005989 -0.278434 0.9300 0.8500 0.7000
v 0.331177 -0.005989 -0.278434 0.9300 0.8500 0.7000
v 0.331177 -0.005989 -0.267934 0.9300 0.8500 0.7000
v 0.331177 -0.005989 -0.267934 0.9300 0.8500 0.7000
v 0.331177 -0.005989 -0.267934 0.9300 0.8500 0.7000
v 0.331177 -0.005989 -0.235434 0.9300 0.8500 0.7000
v 0.331177 -0.005989 -0.235434 0.9300 0.8500 0.7000
v 0.331177 -0.005989 -0.235434 0.9300 0.8500 0.7000
v 0.331177 0.004821 -0.278434 0.9300 0.8500 0.7000
v 0.331177 0.004821 -0.278434 0.9300 0.8500 0.7000
v 0.331177 0.004821 -0.278434 0.9300 0.8500 0.7000
v 0.331177 0.004821 -0.267934 0.9300 0.8500 0.7000
v 0.331177 0.004821 -0.267934 0.9300 0.8500 0.7000
v 0.331177 0.004821 -0.224434 0.9300 0.8500 0.7000
v 0.331177 0.004821 -0.224434 0.9300 0.8500 0.7000
v 0.331177 0.004821 -0.224434 0.9300 0.8500 0.7000
v 0.334427 -0.024204 -0.245934 0.9300 0.8500 0.7000
v 0.334427 -0.024204 -0.245934 0.9300 0.8500 0.7000
v 0.334427 -0.024204 -0.245934 0.9300 0.8500 0.7000
v 0.334427 -0.024204 -0.191434 0.9300 0.8500 0.7000
v 0.334427 -0.024204 -0.191434 0.9300 0.8500 0.7000
v 0.334427 -0.024204 -0.191434 0.9300 0.8500 0.7000
v 0.334427 0.002891 -0.245934 0.9300 0.8500 0.7000
v 0.334427 0.002891 -0.245934 0.9300 0.8500 0.7000
v 0.334427 0.002891 -0.245934 0.9300 0.8500 0.7000
v 0.334427 0.002891 -0.218934 0.9300 0.8500 0.7000
v 0.334427 0.002891 -0.218934 0.9300 0.8500 0.7000
v 0.334427 0.002891 -0.218934 0.9300 0.8500 0.7000
v 0.334427 0.002891 -0.191434 0.9300 0.8500 0.7000
v 0.334427 0.002891 -0.191434 0.9300 0.8500 0.7000
v 0.334427 0.002891 -0.191434 0.9300 0.8500 0.7000
v 0.334427 0.002891 -0.191434 0.9300 0.8500 0.7000
v 0.334427 0.029981 -0.218934 0.9300 0.8500 0.7000
v 0.334427 0.029981 -0.218934 0.9300 0.8500 0.7000
v 0.334427 0.029981 -0.218934 0.9300 0.8500 0.7000
v 0.334427 0.029981 -0.191434 0.9300 0.8500 0.7000
v 0.334427 0.029981 -0.191434 0.9300 0.8500 0.7000
v 0.334427 0.029981 -0.191434 0.9300 0.8500 0.7000
v 0.334427 0.029981 -0.164434 0.9300 0.8500 0.7000
v 0.334427 0.029981 -0.164434 0.9300 0.8500 0.7000
v 0.334427 0.029981 -0.164434 0.9300 0.8500 0.7000
v 0.334427 0.029981 -0.137434 0.9300 0.8500 0.7000
v 0.334427 0.029981 -0.137434 0.9300 0.8500 0.7000
v 0.334427 0.029981 -0.137434 0.9300 0.8500 0.7000
v 0.334427 0.057076 -0.164434 0.9300 0.8500 0.7000
v 0.334427 0.057076 -0.164434 0.9300 0.8500 0.7000
v 0.334427 0.057076 -0.164434 0.9300 0.8500 0.7000
v 0.334427 0.057076 -0.137434 0.9300 0.8500 0.7000
v 0.334427 0.057076 -0.137434 0.9300 0.8500 0.7000
v 0.334427 0.057076 -0.137434 0.9300 0.8500 0.7000
v 0.341977 -0.060034 -0.267934 0.9300 0.8500 0.7000
v 0.341977 -0.060034 -0.267934 0.9300 0.8500 0.7000
v 0.341977 -0.060034 -0.267934 0.9300 0.8500 0.7000
v 0.341977 -0.060034 -0.235434 0.9300 0.8500 0.7000
v 0.341977 -0.060034 -0.235434 0.9300 0.8500 0.7000
v 0.341977 -0.060034 -0.235434 0.9300 0.8500 0.7000
v 0.341977 -0.049224 -0.278434 0.9300 0.8500 0.7000
v 0.341977 -0.049224 -0.278434 0.9300 0.8500 0.7000
v 0.341977 -0.049224 -0.267934 0.9300 0.8500 0.7000
v 0.341977 -0.049224 -0.267934 0.9300 0.8500 0.7000
v 0.341977 -0.049224 -0.267934 0.9300 0.8500 0.7000
v 0.341977 -0.049224 -0.235434 0.9300 0.8500 0.7000
v 0.341977 -0.049224 -0.235434 0.9300 0.8500 0.7000
v 0.341977 -0.049224 -0.235434 0.9300 0.8500 0.7000
v 0.341977 -0.038414 -0.289434 0.9300 0.8500 0.7000
v 0.341977 -0.038414 -0.289434 0.9300 0.8500 0.7000
v 0.341977 -0.038414 -0.289434 0.9300 0.8500 0.7000
v 0.341977 -0.038414 -0.278434 0.9300 0.8500 0.7000
v 0.341977 -0.038414 -0.278434 0.9300 0.8500 0.7000
v 0.341977 -0.038414 -0.278434 0.9300 0.8500 0.7000
v 0.341977 -0.038414 -0.224434 0.9300 0.8500 0.7000
v 0.341977 -0.038414 -0.224434 0.9300 0.8500 0.7000
v 0.341977 -0.038414 -0.224434 0.9300 0.8500 0.7000
v 0.341977 -0.038414 -0.213934 0.9300 0.8500 0.7000
v 0.341977 -0.038414 -0.213934 0.9300 0.8500 0.7000
v 0.341977 -0.038414 -0.213934 0.9300 0.8500 0.7000
v 0.341977 -0.027604 -0.278434 0.9300 0.8500 0.7000
v 0.341977 -0.027604 -0.278434 0.9300 0.8500 0.7000
v 0.341977 -0.005989 -0.289434 0.9300 0.8500 0.7000
v 0.341977 -0.005989 -0.289434 0.9300 0.8500 0.7000
v 0.341977 -0.005989 -0.289434 0.9300 0.8500 0.7000
v 0.341977 -0.005989 -0.278434 0.9300 0.8500 0.7000
v 0.341977 -0.005989 -0.278434 0.9300 0.8500 0.7000
v 0.341977 -0.005989 -0.278434 0.9300 0.8500 0.7000
v 0.341977 -0.005989 -0.224434 0.9300 0.8500 0.7000
v 0.341977 -0.005989 -0.224434 0.9300 0.8500 0.7000
v 0.341977 -0.005989 -0.224434 0.9300 0.8500 0.7000
v 0.341977 -0.005989 -0.213934 0.9300 0.8500 0.7000
v 0.341977 -0.005989 -0.213934 0.9300 0.8500 0.7000
v 0.341977 -0.005989 -0.213934 0.9300 0.8500 0.7000
v 0.341977 0.004821 -0.267934 0.9300 0.8500 0.7000
v 0.341977 0.004821 -0.267934 0.9300 0.8500 0.7000
v 0.341977 0.004821 -0.267934 0.9300 0.8500 0.7000
v 0.341977 0.004821 -0.235434 0.9300 0.8500 0.7000
v 0.341977 0.004821 -0.235434 0.9300 0.8500 0.7000
v 0.341977 0.004821 -0.235434 0.9300 0.8500 0.7000
v 0.341977 0.015626 -0.267934 0.9300 0.8500 0.7000
v 0.341977 0.015626 -0.267934 0.9300 0.8500 0.7000
v 0.341977 0.015626 -0.267934 0.9300 0.8500 0.7000
v 0.341977 0.015626 -0.235434 0.9300 0.8500 0.7000
v 0.341977 0.015626 -0.235434 0.9300 0.8500 0.7000
v 0.341977 0.015626 -0.235434 0.9300 0.8500 0.7000
v 0.361527 -0.024204 -0.245934 0.9300 0.8500 0.7000
v 0.361527 -0.024204 -0.245934 0.9300 0.8500 0.7000
v 0.361527 -0.024204 -0.245934 0.9300 0.8500 0.7000
v 0.361527 -0.024204 -0.191434 0.9300 0.8500 0.7000
v 0.361527 -0.024204 -0.191434 0.9300 0.8500 0.7000
v 0.361527 -0.024204 -0.191434 0.9300 0.8500 0.7000
v 0.361527 0.002891 -0.245934 0.9300 0.8500 0.7000
v 0.361527 0.002891 -0.245934 0.9300 0.8500 0.7000
v 0.361527 0.002891 -0.245934 0.9300 0.8500 0.7000
v 0.361527 0.002891 -0.218934 0.9300 0.8500 0.7000
v 0.361527 0.002891 -0.218934 0.9300 0.8500 0.7000
v 0.361527 0.002891 -0.218934 0.9300 0.8500 0.7000
v 0.361527 0.002891 -0.191434 0.9300 0.8500 0.7000
v 0.361527 0.002891 -0.191434 0.9300 0.8500 0.7000
v 0.361527 0.002891 -0.191434 0.9300 0.8500 0.7000
v 0.361527 0.002891 -0.083434 0.9300 0.8500 0.7000
v 0.361527 0.002891 -0.083434 0.9300 0.8500 0.7000
v 0.361527 0.002891 -0.083434 0.9300 0.8500 0.7000
v 0.361527 0.029981 -0.218934 0.9300 0.8500 0.7000
v 0.361527 0.029981 -0.218934 0.9300 0.8500 0.7000
v 0.361527 0.029981 -0.218934 0.9300 0.8500 0.7000
v 0.361527 0.029981 -0.164434 0.9300 0.8500 0.7000
v 0.361527 0.029981 -0.164434 0.9300 0.8500 0.7000
v 0.361527 0.029981 -0.164434 0.9300 0.8500 0.7000
v 0.361527 0.057076 -0.164434 0.9300 0.8500 0.7000
v 0.361527 0.057076 -0.164434 0.9300 0.8500 0.7000
v 0.361527 0.057076 -0.164434 0.9300 0.8500 0.7000
v 0.361527 0.057076 -0.083434 0.9300 0.8500 0.7000
v 0.361527 0.057076 -0.083434 0.9300 0.8500 0.7000
v 0.361527 0.057076 -0.083434 0.9300 0.8500 0.7000
v 0.363577 -0.049224 -0.278434 0.9300 0.8500 0.7000
v 0.363577 -0.049224 -0.278434 0.9300 0.8500 0.7000
v 0.363577 -0.049224 -0.267934 0.9300 0.8500 0.7000
v 0.363577 -0.049224 -0.267934 0.9300 0.8500 0.7000
v 0.374377 -0.060034 -0.267934 0.9300 0.8500 0.7000
v 0.374377 -0.060034 -0.267934 0.9300 0.8500 0.7000
v 0.374377 -0.060034 -0.267934 0.9300 0.8500 0.7000
v 0.374377 -0.060034 -0.235434 0.9300 0.8500 0.7000
v 0.374377 -0.060034 -0.235434 0.9300 0.8500 0.7000
v 0.374377 -0.060034 -0.235434 0.9300 0.8500 0.7000
v 0.374377 -0.049224 -0.267934 0.9300 0.8500 0.7000
v 0.374377 -0.049224 -0.267934 0.9300 0.8500 0.7000
v 0.374377 -0.049224 -0.267934 0.9300 0.8500 0.7000
v 0.374377 -0.049224 -0.235434 0.9300 0.8500 0.7000
v 0.374377 -0.049224 -0.235434 0.9300 0.8500 0.7000
v 0.374377 -0.049224 -0.235434 0.9300 0.8500 0.7000
v 0.374377 -0.038414 -0.289434 0.9300 0.8500 0.7000
v 0.374377 -0.038414 -0.289434 0.9300 0.8500 0.7000
v 0.374377 -0.038414 -0.289434 0.9300 0.8500 0.7000
v 0.374377 -0.038414 -0.278434 0.9300 0.8500 0.7000
v 0.374377 -0.038414 -0.278434 0.9300 0.8500 0.7000
v 0.374377 -0.038414 -0.278434 0.9300 0.8500 0.7000
v 0.374377 -0.038414 -0.224434 0.9300 0.8500 0.7000
v 0.374377 -0.038414 -0.224434 0.9300 0.8500 0.7000
v 0.374377 -0.038414 -0.224434 0.9300 0.8500 0.7000
v 0.374377 -0.038414 -0.213934 0.9300 0.8500 0.7000
v 0.374377 -0.038414 -0.213934 0.9300 0.8500 0.7000
v 0.374377 -0.038414 -0.213934 0.9300 0.8500 0.7000
v 0.374377 -0.027604 -0.224434 0.9300 0.8500 0.7000
v 0.374377 -0.027604 -0.224434 0.9300 0.8500 0.7000
v 0.374377 -0.005989 -0.289434 0.9300 0.8500 0.7000
v 0.374377 -0.005989 -0.289434 0.9300 0.8500 0.7000
v 0.374377 -0.005989 -0.289434 0.9300 0.8500 0.7000
v 0.374377 -0.005989 -0.278434 0.9300 0.8500 0.7000
v 0.374377 -0.005989 -0.278434 0.9300 0.8500 0.7000
v 0.374377 -0.005989 -0.278434 0.9300 0.8500 0.7000
v 0.374377 -0.005989 -0.224434 0.9300 0.8500 0.7000
v 0.374377 -0.005989 -0.224434 0.9300 0.8500 0.7000
v 0.374377 -0.005989 -0.224434 0.9300 0.8500 0.7000
v 0.374377 -0.005989 -0.213934 0.9300 0.8500 0.7000
v 0.374377 -0.005989 -0.213934 0.9300 0.8500 0.7000
v 0.374377 -0.005989 -0.213934 0.9300 0.8500 0.7000
v 0.374377 0.004821 -0.267934 0.9300 0.8500 0.7000
v 0.374377 0.004821 -0.267934 0.9300 0.8500 0.7000
v 0.374377 0.004821 -0.267934 0.9300 0.8500 0.7000
v 0.374377 0.004821 -0.256934 0.9300 0.8500 0.7000
v 0.374377 0.004821 -0.256934 0.9300 0.8500 0.7000
v 0.374377 0.004821 -0.235434 0.9300 0.8500 0.7000
v 0.374377 0.004821 -0.235434 0.9300 0.8500 0.7000
v 0.374377 0.004821 -0.235434 0.9300 0.8500 0.7000
v 0.374377 0.015626 -0.267934 0.9300 0.8500 0.7000
v 0.374377 0.015626 -0.267934 0.9300 0.8500 0.7000
v 0.374377 0.015626 -0.267934 0.9300 0.8500 0.7000
v 0.374377 0.015626 -0.235434 0.9300 0.8500 0.7000
v 0.374377 0.015626 -0.235434 0.9300 0.8500 0.7000
v 0.374377 0.015626 -0.235434 0.9300 0.8500 0.7000
v 0.385227 -0.049224 -0.278434 0.9300 0.8500 0.7000
v 0.385227 -0.049224 -0.278434 0.9300 0.8500 0.7000
v 0.385227 -0.049224 -0.278434 0.9300 0.8500 0.7000
v 0.385227 -0.049224 -0.256934 0.9300 0.8500 0.7000
v 0.385227 -0.049224 -0.256934 0.9300 0.8500 0.7000
v 0.385227 -0.049224 -0.235434 0.9300 0.8500 0.7000
v 0.385227 -0.049224 -0.235434 0.9300 0.8500 0.7000
v 0.385227 -0.049224 -0.224434 0.9300 0.8500 0.7000
v 0.385227 -0.049224 -0.224434 0.9300 0.8500 0.7000
v 0.385227 -0.049224 -0.224434 0.9300 0.8500 0.7000
v 0.385227 -0.038414 -0.267934 0.9300 0.8500 0.7000
v 0.385227 -0.038414 -0.267934 0.9300 0.8500 0.7000
v 0.385227 -0.038414 -0.267934 0.9300 0.8500 0.7000
v 0.385227 -0.038414 -0.256934 0.9300 0.8500 0.7000
v 0.385227 -0.038414 -0.256934 0.9300 0.8500 0.7000
v 0.385227 -0.038414 -0.235434 0.9300 0.8500 0.7000
v 0.385227 -0.038414 -0.235434 0.9300 0.8500 0.7000
v 0.385227 -0.038414 -0.235434 0.9300 0.8500 0.7000
v 0.385227 -0.027604 -0.224434 0.9300 0.8500 0.7000
v 0.385227 -0.027604 -0.224434 0.9300 0.8500 0.7000
v 0.385227 -0.005989 -0.267934 0.9300 0.8500 0.7000
v 0.385227 -0.005989 -0.267934 0.9300 0.8500 0.7000
v 0.385227 -0.005989 -0.267934 0.9300 0.8500 0.7000
v 0.385227 -0.005989 -0.235434 0.9300 0.8500 0.7000
v 0.385227 -0.005989 -0.235434 0.9300 0.8500 0.7000
v 0.385227 -0.005989 -0.235434 0.9300 0.8500 0.7000
v 0.385227 -0.005989 -0.224434 0.9300 0.8500 0.7000
v 0.385227 -0.005989 -0.224434 0.9300 0.8500 0.7000
v 0.385227 0.004821 -0.278434 0.9300 0.8500 0.7000
v 0.385227 0.004821 -0.278434 0.9300 0.8500 0.7000
v 0.385227 0.004821 -0.278434 0.9300 0.8500 0.7000
v 0.385227 0.004821 -0.267934 0.9300 0.8500 0.7000
v 0.385227 0.004821 -0.267934 0.9300 0.8500 0.7000
v 0.385227 0.004821 -0.256934 0.9300 0.8500 0.7000
v 0.385227 0.004821 -0.256934 0.9300 0.8500 0.7000
v 0.385227 0.004821 -0.224434 0.9300 0.8500 0.7000
v 0.385227 0.004821 -0.224434 0.9300 0.8500 0.7000
v 0.385227 0.004821 -0.224434 0.9300 0.8500 0.7000
v 0.388627 0.002891 -0.083434 0.9300 0.8500 0.7000
v 0.388627 0.002891 -0.083434 0.9300 0.8500 0.7000
v 0.388627 0.002891 -0.083434 0.9300 0.8500 0.7000
v 0.388627 0.002891 -0.056434 0.9300 0.8500 0.7000
v 0.388627 0.002891 -0.056434 0.9300 0.8500 0.7000
v 0.388627 0.057076 -0.083434 0.9300 0.8500 0.7000
v 0.388627 0.057076 -0.083434 0.9300 0.8500 0.7000
v 0.388627 0.057076 -0.083434 0.9300 0.8500 0.7000
v 0.388627 0.057076 -0.056434 0.9300 0.8500 0.7000
v 0.388627 0.057076 -0.056434 0.9300 0.8500 0.7000
v 0.396027 -0.038414 -0.267934 0.9300 0.8500 0.7000
v 0.396027 -0.038414 -0.267934 0.9300 0.8500 0.7000
v 0.396027 -0.038414 -0.267934 0.9300 0.8500 0.7000
v 0.396027 -0.038414 -0.235434 0.9300 0.8500 0.7000
v 0.396027 -0.038414 -0.235434 0.9300 0.8500 0.7000
v 0.396027 -0.038414 -0.235434 0.9300 0.8500 0.7000
v 0.396027 -0.005989 -0.267934 0.9300 0.8500 0.7000
v 0.396027 -0.005989 -0.267934 0.9300 0.8500 0.7000
v 0.396027 -0.005989 -0.267934 0.9300 0.8500 0.7000
v 0.396027 -0.005989 -0.235434 0.9300 0.8500 0.7000
v 0.396027 -0.005989 -0.235434 0.9300 0.8500 0.7000
v 0.396027 -0.005989 -0.235434 0.9300 0.8500 0.7000
v 0.428127 -0.120749 -0.046934 0.9300 0.8500 0.7000
v 0.428127 -0.120749 -0.046934 0.9300 0.8500 0.7000
v 0.428127 -0.120749 -0.046934 0.9300 0.8500 0.7000
v 0.428127 -0.120749 0.053066 0.9300 0.8500 0.7000
v 0.428127 -0.120749 0.053066 0.9300 0.8500 0.7000
v 0.428127 -0.120749 0.053066 0.9300 0.8500 0.7000
v 0.428127 -0.087394 -0.080434 0.9300 0.8500 0.7000
v 0.428127 -0.087394 -0.080434 0.9300 0.8500 0.7000
v 0.428127 -0.087394 -0.080434 0.9300 0.8500 0.7000
v 0.428127 -0.087394 -0.046934 0.9300 0.8500 0.7000
v 0.428127 -0.087394 -0.046934 0.9300 0.8500 0.7000
v 0.428127 -0.087394 -0.046934 0.9300 0.8500 0.7000
v 0.428127 -0.087394 0.053066 0.9300 0.8500 0.7000
v 0.428127 -0.087394 0.053066 0.9300 0.8500 0.7000
v 0.428127 -0.087394 0.053066 0.9300 0.8500 0.7000
v 0.428127 -0.087394 0.086566 0.9300 0.8500 0.7000
v 0.428127 -0.087394 0.086566 0.9300 0.8500 0.7000
v 0.428127 -0.087394 0.086566 0.9300 0.8500 0.7000
v 0.428127 -0.054034 -0.113434 0.9300 0.8500 0.7000
v 0.428127 -0.054034 -0.113434 0.9300 0.8500 0.7000
v 0.428127 -0.054034 -0.113434 0.9300 0.8500 0.7000
v 0.428127 -0.054034 -0.080434 0.9300 0.8500 0.7000
v 0.428127 -0.054034 -0.080434 0.9300 0.8500 0.7000
v 0.428127 -0.054034 -0.080434 0.9300 0.8500 0.7000
v 0.428127 -0.054034 0.086566 0.9300 0.8500 0.7000
v 0.428127 -0.054034 0.086566 0.9300 0.8500 0.7000
v 0.428127 -0.054034 0.086566 0.9300 0.8500 0.7000
v 0.428127 -0.054034 0.120066 0.9300 0.8500 0.7000
v 0.428127 -0.054034 0.120066 0.9300 0.8500 0.7000
v 0.428127 -0.054034 0.120066 0.9300 0.8500 0.7000
v 0.428127 0.046036 -0.113434 0.9300 0.8500 0.7000
v 0.428127 0.046036 -0.113434 0.9300 0.8500 0.7000
v 0.428127 0.046036 -0.113434 0.9300 0.8500 0.7000
v 0.428127 0.046036 -0.080434 0.9300 0.8500 0.7000
v 0.428127 0.046036 -0.080434 0.9300 0.8500 0.7000
v 0.428127 0.046036 -0.080434 0.9300 0.8500 0.7000
v 0.428127 0.046036 0.086566 0.9300 0.8500 0.7000
v 0.428127 0.046036 0.086566 0.9300 0.8500 0.7000
v 0.428127 0.046036 0.086566 0.9300 0.8500 0.7000
v 0.428127 0.046036 0.120066 0.9300 0.8500 0.7000
v 0.428127 0.046036 0.120066 0.9300 0.8500 0.7000
v 0.428127 0.046036 0.120066 0.9300 0.8500 0.7000
v 0.428127 0.079396 -0.080434 0.9300 0.8500 0.7000
v 0.428127 0.079396 -0.080434 0.9300 0.8500 0.7000
v 0.428127 0.079396 -0.080434 0.9300 0.8500 0.7000
v 0.428127 0.079396 -0.046934 0.9300 0.8500 0.7000
v 0.428127 0.079396 -0.046934 0.9300 0.8500 0.7000
v 0.428127 0.079396 -0.046934 0.9300 0.8500 0.7000
v 0.428127 0.079396 0.053066 0.9300 0.8500 0.7000
v 0.428127 0.079396 0.053066 0.9300 0.8500 0.7000
v 0.428127 0.079396 0.053066 0.9300 0.8500 0.7000
v 0.428127 0.079396 0.086566 0.9300 0.8500 0.7000
v 0.428127 0.079396 0.086566 0.9300 0.8500 0.7000
v 0.428127 0.079396 0.086566 0.9300 0.8500 0.7000
v 0.428127 0.112751 -0.046934 0.9300 0.8500 0.7000
v 0.428127 0.112751 -0.046934 0.9300 0.8500 0.7000
v 0.428127 0.112751 -0.046934 0.9300 0.8500 0.7000
v 0.428127 0.112751 0.053066 0.9300 0.8500 0.7000
v 0.428127 0.112751 0.053066 0.9300 0.8500 0.7000
v 0.428127 0.112751 0.053066 0.9300 0.8500 0.7000
vn -1.00000 0.00000 0.00000
vn 0.00000 -1.00000 0.00000
vn 0.00000 0.00000 -1.00000
vn -1.00000 0.00000 0.00000
vn 0.00000 -1.00000 0.00000
vn 0.00000 0.00000 1.00000
vn -1.00000 0.00000 0.00000
vn 0.00000 -1.00000 0.00000
vn 0.00000 0.00000 -1.00000
vn -1.00000 0.00000 0.00000
vn 0.00000 -1.00000 0.00000
vn 0.00000 0.00000 -1.00000
vn -1.00000 0.00000 0.00000
vn 0.00000 -1.00000 0.00000
vn 0.00000 0.00000 1.00000
vn -1.00000 0.00000 0.00000
vn 0.00000 -1.00000 0.00000
vn 0.00000 0.00000 1.00000
vn -1.00000 0.00000 0.00000
vn 0.00000 -1.00000 0.00000
vn 0.00000 0.00000 -1.00000
vn -1.00000 0.00000 0.00000
vn 0.00000 -1.00000 0.00000
vn 0.00000 0.00000 -1.00000
vn -1.00000 0.00000 0.00000
vn 0.00000 -1.00000 0.00000
vn 0.00000 0.00000 1.00000
vn -1.00000 0.00000 0.00000
vn 0.00000 -1.00000 0.00000
vn 0.00000 0.00000 1.00000
vn -1.00000 0.00000 0.00000
vn 0.00000 -1.00000 0.00000
vn 0.00000 0.00000 -1.00000
vn -1.00000 0.00000 0.00000
vn 0.00000 -1.00000 0.00000
vn 0.00000 0.00000 -1.00000
vn -1.00000 0.00000 0.00000
vn 0.00000 -1.00000 0.00000
vn 0.00000 0.00000 1.00000
vn -1.00000 0.00000 0.00000
vn 0.00000 -1.00000 0.00000
vn 0.00000 0.00000 1.00000
vn -1.00000 0.00000 0.00000
vn 0.00000 -1.00000 0.00000
vn 0.00000 0.00000 -1.00000
vn -1.00000 0.00000 0.00000
vn 0.00000 -1.00000 0.00000
vn 0.00000 0.00000 -1.00000
vn -1.00000 0.00000 0.00000
vn 0.00000 -1.00000 0.00000
vn 0.00000 0.00000 1.00000
vn -1.00000 0.00000 0.00000
vn 0.00000 -1.00000 0.00000
vn 0.00000 0.00000 1.00000
vn -1.00000 0.00000 0.00000
vn 0.00000 0.00000 -1.00000
vn 0.00000 1.00000 0.00000
vn -1.00000 0.00000 0.00000
vn 0.00000 0.00000 -1.00000
vn 0.00000 1.00000 0.00000
vn -1.00000 0.00000 0.00000
vn 0.00000 0.00000 1.00000
vn 0.00000 1.00000 0.00000
vn -1.00000 0.00000 0.00000
vn 0.00000 0.00000 1.00000
vn 0.00000 1.00000 0.00000
vn -1.00000 0.00000 0.00000
vn 0.00000 0.00000 -1.00000
vn 0.00000 1.00000 0.00000
vn -1.00000 0.00000 0.00000
vn 0.00000 0.00000 -1.00000
vn 0.00000 1.00000 0.00000
vn -1.00000 0.00000 0.00000
vn 0.00000 0.00000 1.00000
vn 0.00000 1.00000 0.00000
vn -1.00000 0.00000 0.00000
vn 0.00000 0.00000 1.00000
vn 0.00000 1.00000 0.00000
vn -1.00000 0.00000 0.00000
vn 0.00000 0.00000 -1.00000
vn 0.00000 1.00000 0.00000
vn -1.00000 0.00000 0.00000
vn 0.00000 0.00000 -1.00000
vn 0.00000 1.00000 0.00000
vn -1.00000 0.00000 0.00000
vn 0.00000 0.00000 1.00000
vn 0.00000 1.00000 0.00000
vn -1.00000 0.00000 0.00000
vn 0.00000 0.00000 1.00000
vn 0.00000 1.00000 0.00000
vn -1.00000 0.00000 0.00000
vn 0.00000 0.00000 -1.00000
vn 0.00000 1.00000 0.00000
vn -1.00000 0.00000 0.00000
vn 0.00000 0.00000 1.00000
vn 0.00000 1.00000 0.00000
vn -1.00000 0.00000 0.00000
vn 0.00000 -1.00000 0.00000
vn 0.00000 0.00000 -1.00000
vn -1.00000 0.00000 0.00000
vn 0.00000 -1.00000 0.00000
vn 0.00000 0.00000 1.00000
vn -1.00000 0.00000 0.00000
vn 0.00000 -1.00000 0.00000
vn 0.00000 0.00000 -1.00000
vn -1.00000 0.00000 0.00000
vn 0.00000 -1.00000 0.00000
vn 0.00000 0.00000 -1.00000
vn -1.00000 0.00000 0.00000
vn 0.00000 -1.00000 0.00000
vn 0.00000 0.00000 1.00000
vn -1.00000 0.00000 0.00000
vn 0.00000 -1.00000 0.00000
vn 0.00000 0.00000 1.00000
vn -1.00000 0.00000 0.00000
vn 0.00000 -1.00000 0.00000
vn 0.00000 0.00000 -1.00000
vn -1.00000 0.00000 0.00000
vn 0.00000 -1.00000 0.00000
vn 0.00000 0.00000 -1.00000
vn -1.00000 0.00000 0.00000
vn 0.00000 -1.00000 0.00000
vn 0.00000 0.00000 1.00000
vn -1.00000 0.00000 0.00000
vn 0.00000 -1.00000 0.00000
vn 0.00000 0.00000 1.00000
vn -1.00000 0.00000 0.00000
vn 0.00000 0.00000 -1.00000
vn 0.00000 1.00000 0.00000
vn -1.00000 0.00000 0.00000
vn 0.00000 0.00000 -1.00000
vn 0.00000 1.00000 0.00000
vn -1.00000 0.00000 0.00000
vn 0.00000 0.00000 1.00000
vn 0.00000 1.00000 0.00000
vn -1.00000 0.00000 0.00000
vn 0.00000 0.00000 1.00000
vn 0.00000 1.00000 0.00000
vn -1.00000 0.00000 0.00000
vn 0.00000 0.00000 -1.00000
vn 0.00000 1.00000 0.00000
vn -1.00000 0.00000 0.00000
vn 0.00000 0.00000 -1.00000
vn 0.00000 1.00000 0.00000
vn -1.00000 0.00000 0.00000
vn 0.00000 0.00000 1.00000
vn 0.00000 1.00000 0.00000
vn -1.00000 0.00000 0.00000
vn 0.00000 0.00000 1.00000
vn 0.00000 1.00000 0.00000
vn -1.00000 0.00000 0.00000
vn 0.00000 0.00000 -1.00000
vn 0.00000 1.00000 0.00000
vn -1.00000 0.00000 0.00000
vn 0.00000 0.00000 1.00000
vn 0.00000 1.00000 0.00000
vn 0.00000 -1.00000 0.00000
vn 0.00000 0.00000 -1.00000
vn 1.00000 0.00000 0.00000
vn 0.00000 -1.00000 0.00000
vn 0.00000 0.00000 1.00000
vn 1.00000 0.00000 0.00000
vn 0.00000 -1.00000 0.00000
vn 0.00000 0.00000 -1.00000
vn 1.00000 0.00000 0.00000
vn 0.00000 -1.00000 0.00000
vn 0.00000 0.00000 -1.00000
vn 1.00000 0.00000 0.00000
vn 0.00000 -1.00000 0.00000
vn 0.00000 0.00000 1.00000
vn 1.00000 0.00000 0.00000
vn 0.00000 -1.00000 0.00000
vn 0.00000 0.00000 1.00000
vn 1.00000 0.00000 0.00000
vn 0.00000 -1.00000 0.00000
vn 0.00000 0.00000 -1.00000
vn 1.00000 0.00000 0.00000
vn 0.00000 -1.00000 0.00000
vn 0.00000 0.00000 -1.00000
vn 1.00000 0.00000 0.00000
vn 0.00000 -1.00000 0.00000
vn 0.00000 0.00000 1.00000
vn 1.00000 0.00000 0.00000
vn 0.00000 -1.00000 0.00000
vn 0.00000 0.00000 1.00000
vn 1.00000 0.00000 0.00000
vn 0.00000 -1.00000 0.00000
vn 0.00000 0.00000 -1.00000
vn 1.00000 0.00000 0.00000
vn 0.00000 -1.00000 0.00000
vn 0.00000 0.00000 -1.00000
vn 1.00000 0.00000 0.00000
vn 0.00000 -1.00000 0.00000
vn 0.00000 0.00000 1.00000
vn 1.00000 0.00000 0.00000
vn 0.00000 -1.00000 0.00000
vn 0.00000 0.00000 1.00000
vn 1.00000 0.00000 0.00000
vn 0.00000 -1.00000 0.00000
vn 0.00000 0.00000 -1.00000
vn 1.00000 0.00000 0.00000
vn 0.00000 -1.00000 0.00000
vn 0.00000 0.00000 -1.00000
vn 1.00000 0.00000 0.00000
vn 0.00000 -1.00000 0.00000
vn 0.00000 0.00000 1.00000
vn 1.00000 0.00000 0.00000
vn 0.00000 -1.00000 0.00000
vn 0.00000 0.00000 1.00000
vn 1.00000 0.00000 0.00000
vn 0.00000 0.00000 -1.00000
vn 0.00000 1.00000 0.00000
vn 1.00000 0.00000 0.00000
vn 0.00000 0.00000 -1.00000
vn 0.00000 1.00000 0.00000
vn 1.00000 0.00000 0.00000
vn 0.00000 0.00000 1.00000
vn 0.00000 1.00000 0.00000
vn 1.00000 0.00000 0.00000
vn 0.00000 0.00000 1.00000
vn 0.00000 1.00000 0.00000
vn 1.00000 0.00000 0.00000
vn 0.00000 0.00000 -1.00000
vn 0.00000 1.00000 0.00000
vn 1.00000 0.00000 0.00000
vn 0.00000 0.00000 -1.00000
vn 0.00000 1.00000 0.00000
vn 1.00000 0.00000 0.00000
vn 0.00000 0.00000 1.00000
vn 0.00000 1.00000 0.00000
vn 1.00000 0.00000 0.00000
vn 0.00000 0.00000 1.00000
vn 0.00000 1.00000 0.00000
vn 1.00000 0.00000 0.00000
vn 0.00000 0.00000 -1.00000
vn 0.00000 1.00000 0.00000
vn 1.00000 0.00000 0.00000
vn 0.00000 0.00000 -1.00000
vn 0.00000 1.00000 0.00000
vn 1.00000 0.00000 0.00000
vn 0.00000 0.00000 1.00000
vn 0.00000 1.00000 0.00000
vn 1.00000 0.00000 0.00000
vn 0.00000 0.00000 1.00000
vn 0.00000 1.00000 0.00000
vn 1.00000 0.00000 0.00000
vn 0.00000 0.00000 -1.00000
vn 0.00000 1.00000 0.00000
vn 1.00000 0.00000 0.00000
vn 0.00000 0.00000 1.00000
vn 0.00000 1.00000 0.00000
vn 1.00000 0.00000 0.00000
vn -1.00000 0.00000 0.00000
vn 0.00000 -1.00000 0.00000
vn 0.00000 0.00000 -1.00000
vn -1.00000 0.00000 0.00000
vn 0.00000 -1.00000 0.00000
vn -1.00000 0.00000 0.00000
vn 0.00000 0.00000 -1.00000
vn 0.00000 1.00000 0.00000
vn -1.00000 0.00000 0.00000
vn 0.00000 0.00000 -1.00000
vn 0.00000 1.00000 0.00000
vn -1.00000 0.00000 0.00000
vn 0.00000 0.00000 -1.00000
vn 0.00000 1.00000 0.00000
vn -1.00000 0.00000 0.00000
vn 0.00000 1.00000 0.00000
vn -1.00000 0.00000 0.00000
vn 0.00000 -1.00000 0.00000
vn 0.00000 0.00000 -1.00000
vn -1.00000 0.00000 0.00000
vn 0.00000 -1.00000 0.00000
vn 0.00000 0.00000 1.00000
vn -1.00000 0.00000 0.00000
vn 0.00000 0.00000 -1.00000
vn 0.00000 1.00000 0.00000
vn -1.00000 0.00000 0.00000
vn 0.00000 0.00000 1.00000
vn 0.00000 1.00000 0.00000
vn -1.00000 0.00000 0.00000
vn 0.00000 -1.00000 0.00000
vn 0.00000 0.00000 -1.00000
vn -1.00000 0.00000 0.00000
vn 0.00000 -1.00000 0.00000
vn 0.00000 0.00000 1.00000
vn -1.00000 0.00000 0.00000
vn 0.00000 -1.00000 0.00000
vn 0.00000 0.00000 -1.00000
vn -1.00000 0.00000 0.00000
vn 0.00000 -1.00000 0.00000
vn 0.00000 0.00000 1.00000
vn -1.00000 0.00000 0.00000
vn 0.00000 0.00000 -1.00000
vn -1.00000 0.00000 0.00000
vn 0.00000 0.00000 -1.00000
vn -1.00000 0.00000 0.00000
vn 0.00000 0.00000 -1.00000
vn -1.00000 0.00000 0.00000
vn 0.00000 0.00000 -1.00000
vn -1.00000 0.00000 0.00000
vn 0.00000 0.00000 -1.00000
vn 0.00000 1.00000 0.00000
vn -1.00000 0.00000 0.00000
vn 0.00000 0.00000 1.00000
vn 0.00000 1.00000 0.00000
vn -1.00000 0.00000 0.00000
vn 0.00000 0.00000 -1.00000
vn 0.00000 1.00000 0.00000
vn -1.00000 0.00000 0.00000
vn 0.00000 1.00000 0.00000
vn -1.00000 0.00000 0.00000
vn 0.00000 0.00000 1.00000
vn 0.00000 1.00000 0.00000
vn -1.00000 0.00000 0.00000
vn 0.00000 -1.00000 0.00000
vn 0.00000 0.00000 -1.00000
vn -1.00000 0.00000 0.00000
vn 0.00000 -1.00000 0.00000
vn 0.00000 0.00000 1.00000
vn -1.00000 0.00000 0.00000
vn 0.00000 0.00000 -1.00000
vn 0.00000 1.00000 0.00000
vn -1.00000 0.00000 0.00000
vn 0.00000 0.00000 -1.00000
vn 0.00000 1.00000 0.00000
vn -1.00000 0.00000 0.00000
vn 0.00000 -1.00000 0.00000
vn 0.00000 0.00000 -1.00000
vn 0.00000 0.00000 1.00000
vn -1.00000 0.00000 0.00000
vn 0.00000 0.00000 -1.00000
vn 0.00000 1.00000 0.00000
vn -1.00000 0.00000 0.00000
vn 0.00000 0.00000 -1.00000
vn 0.00000 1.00000 0.00000
vn -1.00000 0.00000 0.00000
vn 0.00000 0.00000 -1.00000
vn 0.00000 1.00000 0.00000
vn -1.00000 0.00000 0.00000
vn 0.00000 0.00000 -1.00000
vn 0.00000 1.00000 0.00000
vn -1.00000 0.00000 0.00000
vn 0.00000 0.00000 -1.00000
vn 0.00000 1.00000 0.00000
vn -1.00000 0.00000 0.00000
vn 0.00000 0.00000 -1.00000
vn 0.00000 1.00000 0.00000
vn -1.00000 0.00000 0.00000
vn 0.00000 -1.00000 0.00000
vn 0.00000 0.00000 -1.00000
vn -1.00000 0.00000 0.00000
vn 0.00000 -1.00000 0.00000
vn 0.00000 0.00000 1.00000
vn 0.00000 -1.00000 0.00000
vn 0.00000 0.00000 -1.00000
vn -1.00000 0.00000 0.00000
vn 0.00000 -1.00000 0.00000
vn 0.00000 0.00000 -1.00000
vn -1.00000 0.00000 0.00000
vn 0.00000 -1.00000 0.00000
vn 0.00000 0.00000 1.00000
vn -1.00000 0.00000 0.00000
vn 0.00000 -1.00000 0.00000
vn 0.00000 0.00000 -1.00000
vn -1.00000 0.00000 0.00000
vn 0.00000 -1.00000 0.00000
vn 0.00000 0.00000 -1.00000
vn -1.00000 0.00000 0.00000
vn 0.00000 -1.00000 0.00000
vn 0.00000 0.00000 1.00000
vn -1.00000 0.00000 0.00000
vn 0.00000 -1.00000 0.00000
vn 0.00000 0.00000 1.00000
vn -1.00000 0.00000 0.00000
vn 0.00000 0.00000 -1.00000
vn -1.00000 0.00000 0.00000
vn 0.00000 0.00000 -1.00000
vn 0.00000 1.00000 0.00000
vn -1.00000 0.00000 0.00000
vn 0.00000 0.00000 -1.00000
vn 0.00000 1.00000 0.00000
vn -1.00000 0.00000 0.00000
vn 0.00000 0.00000 1.00000
vn 0.00000 1.00000 0.00000
vn -1.00000 0.00000 0.00000
vn 0.00000 0.00000 1.00000
vn 0.00000 1.00000 0.00000
vn -1.00000 0.00000 0.00000
vn 0.00000 0.00000 -1.00000
vn 0.00000 1.00000 0.00000
vn -1.00000 0.00000 0.00000
vn 0.00000 0.00000 1.00000
vn 0.00000 1.00000 0.00000
vn -1.00000 0.00000 0.00000
vn 0.00000 0.00000 -1.00000
vn 0.00000 1.00000 0.00000
vn -1.00000 0.00000 0.00000
vn 0.00000 0.00000 1.00000
vn 0.00000 1.00000 0.00000
vn 0.00000 -1.00000 0.00000
vn 0.00000 0.00000 -1.00000
vn 1.00000 0.00000 0.00000
vn 0.00000 -1.00000 0.00000
vn 0.00000 0.00000 1.00000
vn 1.00000 0.00000 0.00000
vn 0.00000 0.00000 -1.00000
vn 0.00000 1.00000 0.00000
vn 1.00000 0.00000 0.00000
vn 0.00000 0.00000 -1.00000
vn 0.00000 1.00000 0.00000
vn 1.00000 0.00000 0.00000
vn 0.00000 -1.00000 0.00000
vn 0.00000 0.00000 1.00000
vn 1.00000 0.00000 0.00000
vn 0.00000 -1.00000 0.00000
vn 0.00000 0.00000 -1.00000
vn 1.00000 0.00000 0.00000
vn 0.00000 0.00000 -1.00000
vn 0.00000 1.00000 0.00000
vn 1.00000 0.00000 0.00000
vn 0.00000 0.00000 -1.00000
vn 0.00000 1.00000 0.00000
vn 1.00000 0.00000 0.00000
vn 0.00000 0.00000 -1.00000
vn 0.00000 1.00000 0.00000
vn 1.00000 0.00000 0.00000
vn 0.00000 0.00000 -1.00000
vn 0.00000 1.00000 0.00000
vn 1.00000 0.00000 0.00000
vn 0.00000 -1.00000 0.00000
vn 0.00000 0.00000 -1.00000
vn 0.00000 -1.00000 0.00000
vn 0.00000 0.00000 -1.00000
vn 0.00000 -1.00000 0.00000
vn 0.00000 0.00000 -1.00000
vn 1.00000 0.00000 0.00000
vn 0.00000 -1.00000 0.00000
vn 0.00000 0.00000 1.00000
vn 1.00000 0.00000 0.00000
vn 0.00000 -1.00000 0.00000
vn 0.00000 0.00000 -1.00000
vn 1.00000 0.00000 0.00000
vn 0.00000 -1.00000 0.00000
vn 0.00000 0.00000 1.00000
vn 1.00000 0.00000 0.00000
vn 0.00000 -1.00000 0.00000
vn 0.00000 0.00000 -1.00000
vn 1.00000 0.00000 0.00000
vn 0.00000 -1.00000 0.00000
vn 0.00000 0.00000 -1.00000
vn 1.00000 0.00000 0.00000
vn 0.00000 -1.00000 0.00000
vn 0.00000 0.00000 1.00000
vn 1.00000 0.00000 0.00000
vn 0.00000 -1.00000 0.00000
vn 0.00000 0.00000 1.00000
vn 1.00000 0.00000 0.00000
vn 0.00000 0.00000 1.00000
vn 1.00000 0.00000 0.00000
vn 0.00000 0.00000 -1.00000
vn 0.00000 1.00000 0.00000
vn 1.00000 0.00000 0.00000
vn 0.00000 0.00000 -1.00000
vn 0.00000 1.00000 0.00000
vn 1.00000 0.00000 0.00000
vn 0.00000 0.00000 1.00000
vn 0.00000 1.00000 0.00000
vn 1.00000 0.00000 0.00000
vn 0.00000 0.00000 1.00000
vn 0.00000 1.00000 0.00000
vn 1.00000 0.00000 0.00000
vn 0.00000 0.00000 -1.00000
vn 0.00000 1.00000 0.00000
vn 1.00000 0.00000 0.00000
vn 0.00000 1.00000 0.00000
vn 1.00000 0.00000 0.00000
vn 0.00000 0.00000 1.00000
vn 0.00000 1.00000 0.00000
vn 1.00000 0.00000 0.00000
vn 0.00000 0.00000 -1.00000
vn 0.00000 1.00000 0.00000
vn 1.00000 0.00000 0.00000
vn 0.00000 0.00000 1.00000
vn 0.00000 1.00000 0.00000
vn 1.00000 0.00000 0.00000
vn 0.00000 -1.00000 0.00000
vn 0.00000 0.00000 -1.00000
vn 1.00000 0.00000 0.00000
vn 0.00000 -1.00000 0.00000
vn 1.00000 0.00000 0.00000
vn 0.00000 -1.00000 0.00000
vn 1.00000 0.00000 0.00000
vn 0.00000 -1.00000 0.00000
vn 0.00000 0.00000 1.00000
vn 1.00000 0.00000 0.00000
vn 0.00000 -1.00000 0.00000
vn 0.00000 0.00000 -1.00000
vn 1.00000 0.00000 0.00000
vn 0.00000 -1.00000 0.00000
vn 1.00000 0.00000 0.00000
vn 0.00000 -1.00000 0.00000
vn 0.00000 0.00000 1.00000
vn 1.00000 0.00000 0.00000
vn 0.00000 0.00000 1.00000
vn 1.00000 0.00000 0.00000
vn 0.00000 0.00000 -1.00000
vn 0.00000 1.00000 0.00000
vn 1.00000 0.00000 0.00000
vn 0.00000 0.00000 1.00000
vn 0.00000 1.00000 0.00000
vn 1.00000 0.00000 0.00000
vn 0.00000 0.00000 1.00000
vn 1.00000 0.00000 0.00000
vn 0.00000 0.00000 -1.00000
vn 0.00000 1.00000 0.00000
vn 1.00000 0.00000 0.00000
vn 0.00000 1.00000 0.00000
vn 1.00000 0.00000 0.00000
vn 0.00000 1.00000 0.00000
vn 1.00000 0.00000 0.00000
vn 0.00000 0.00000 1.00000
vn 0.00000 1.00000 0.00000
vn 1.00000 0.00000 0.00000
vn 0.00000 -1.00000 0.00000
vn 0.00000 0.00000 -1.00000
vn 1.00000 0.00000 0.00000
vn 0.00000 -1.00000 0.00000
vn 1.00000 0.00000 0.00000
vn 0.00000 0.00000 -1.00000
vn 0.00000 1.00000 0.00000
vn 1.00000 0.00000 0.00000
vn 0.00000 1.00000 0.00000
vn 1.00000 0.00000 0.00000
vn 0.00000 -1.00000 0.00000
vn 0.00000 0.00000 -1.00000
vn 1.00000 0.00000 0.00000
vn 0.00000 -1.00000 0.00000
vn 0.00000 0.00000 1.00000
vn 1.00000 0.00000 0.00000
vn 0.00000 0.00000 -1.00000
vn 0.00000 1.00000 0.00000
vn 1.00000 0.00000 0.00000
vn 0.00000 0.00000 1.00000
vn 0.00000 1.00000 0.00000
vn 1.00000 0.00000 0.00000
vn 0.00000 -1.00000 0.00000
vn 0.00000 0.00000 -1.00000
vn 1.00000 0.00000 0.00000
vn 0.00000 -1.00000 0.00000
vn 0.00000 0.00000 1.00000
vn 1.00000 0.00000 0.00000
vn 0.00000 -1.00000 0.00000
vn 0.00000 0.00000 -1.00000
vn 1.00000 0.00000 0.00000
vn 0.00000 -1.00000 0.00000
vn 0.00000 0.00000 -1.00000
vn 1.00000 0.00000 0.00000
vn 0.00000 -1.00000 0.00000
vn 0.00000 0.00000 1.00000
vn 1.00000 0.00000 0.00000
vn 0.00000 -1.00000 0.00000
vn 0.00000 0.00000 1.00000
vn 1.00000 0.00000 0.00000
vn 0.00000 -1.00000 0.00000
vn 0.00000 0.00000 -1.00000
vn 1.00000 0.00000 0.00000
vn 0.00000 -1.00000 0.00000
vn 0.00000 0.00000 -1.00000
vn 1.00000 0.00000 0.00000
vn 0.00000 -1.00000 0.00000
vn 0.00000 0.00000 1.00000
vn 1.00000 0.00000 0.00000
vn 0.00000 -1.00000 0.00000
vn 0.00000 0.00000 1.00000
vn 1.00000 0.00000 0.00000
vn 0.00000 0.00000 -1.00000
vn 0.00000 1.00000 0.00000
vn 1.00000 0.00000 0.00000
vn 0.00000 0.00000 -1.00000
vn 0.00000 1.00000 0.00000
vn 1.00000 0.00000 0.00000
vn 0.00000 0.00000 1.00000
vn 0.00000 1.00000 0.00000
vn 1.00000 0.00000 0.00000
vn 0.00000 0.00000 1.00000
vn 0.00000 1.00000 0.00000
vn 1.00000 0.00000 0.00000
vn 0.00000 0.00000 -1.00000
vn 0.00000 1.00000 0.00000
vn 1.00000 0.00000 0.00000
vn 0.00000 0.00000 -1.00000
vn 0.00000 1.00000 0.00000
vn 1.00000 0.00000 0.00000
vn 0.00000 0.00000 1.00000
vn 0.00000 1.00000 0.00000
vn 1.00000 0.00000 0.00000
vn 0.00000 0.00000 1.00000
vn 0.00000 1.00000 0.00000
vn 1.00000 0.00000 0.00000
vn 0.00000 0.00000 -1.00000
vn 0.00000 1.00000 0.00000
vn 1.00000 0.00000 0.00000
vn 0.00000 0.00000 1.00000
vn 0.00000 1.00000 0.00000
vn 1.00000 0.00000 0.00000
f 558//558 555//555 570//570
f 570//570 567//567 579//579
f 570//570 579//579 582//582
f 570//570 561//561 558//558
f 549//549 558//558 561//561
f 561//561 552//552 549//549
f 561//561 570//570 573//573
f 561//561 573//573 564//564
f 573//573 570//570 585//585
f 582//582 585//585 570//570
f 585//585 576//576 573//573
f 585//585 588//588 576//576
f 585//585 582//582 597//597
f 597//597 600//600 585//585
f 597//597 582//582 594//594
f 582//582 591//591 594//594
f 594//594 606//606 597//597
f 594//594 603//603 606//606
f 543//543 540//540 537//537
f 540//540 543//543 546//546
f 532//532 529//529 527//527
f 529//529 532//532 534//534
f 509//509 517//517 519//519
f 517//517 509//509 489//489
f 521//521 509//509 519//519
f 489//489 509//509 499//499
f 491//491 489//489 499//499
f 512//512 509//509 521//521
f 491//491 499//499 501//501
f 524//524 512//512 521//521
f 501//501 493//493 491//491
f 512//512 524//524 514//514
f 493//493 501//501 504//504
f 514//514 506//506 512//512
f 504//504 512//512 506//506
f 504//504 496//496 493//493
f 504//504 506//506 496//496
f 443//443 440//440 437//437
f 440//440 443//443 446//446
f 483//483 477//477 475//475
f 486//486 477//477 483//483
f 477//477 486//486 480//480
f 455//455 460//460 458//458
f 460//460 472//472 458//458
f 460//460 469//469 472//472
f 466//466 449//449 463//463
f 449//449 466//466 452//452
f 403//403 412//412 406//406
f 412//412 403//403 409//409
f 412//412 415//415 406//406
f 421//421 415//415 412//412
f 424//424 415//415 421//421
f 418//418 415//415 424//424
f 424//424 430//430 418//418
f 430//430 424//424 427//427
f 192//192 168//168 180//180
f 168//168 165//165 180//180
f 177//177 192//192 180//180
f 168//168 192//192 195//195
f 168//168 195//195 171//171
f 171//171 159//159 168//168
f 159//159 171//171 162//162
f 183//183 174//174 171//171
f 171//171 195//195 183//183
f 195//195 186//186 183//183
f 189//189 204//204 192//192
f 213//213 204//204 201//201
f 204//204 213//213 216//216
f 216//216 192//192 204//204
f 228//228 192//192 216//216
f 225//225 228//228 216//216
f 240//240 192//192 228//228
f 228//228 237//237 240//240
f 192//192 240//240 195//195
f 252//252 240//240 249//249
f 240//240 252//252 243//243
f 243//243 195//195 240//240
f 231//231 195//195 243//243
f 246//246 231//231 243//243
f 195//195 231//231 219//219
f 234//234 219//219 231//231
f 195//195 219//219 207//207
f 207//207 198//198 195//195
f 219//219 210//210 207//207
f 210//210 219//219 222//222
f 156//156 602//602 153//153
f 602//602 156//156 605//605
f 144//144 590//590 141//141
f 590//590 144//144 593//593
f 150//150 596//596 147//147
f 596//596 150//150 599//599
f 248//248 93//93 96//96
f 248//248 96//96 251//251
f 236//236 81//81 84//84
f 236//236 84//84 239//239
f 90//90 245//245 87//87
f 242//242 87//87 245//245
f 348//348 426//426 345//345
f 429//429 426//426 348//348
f 266//266 429//429 348//348
f 429//429 266//266 268//268
f 533//533 429//429 268//268
f 429//429 533//533 531//531
f 132//132 578//578 129//129
f 578//578 132//132 581//581
f 138//138 584//584 135//135
f 584//584 138//138 587//587
f 263//263 339//339 260//260
f 339//339 263//263 342//342
f 260//260 339//339 336//336
f 423//423 336//336 339//339
f 336//336 423//423 420//420
f 336//336 420//420 333//333
f 230//230 75//75 78//78
f 230//230 78//78 233//233
f 224//224 69//69 72//72
f 224//224 72//72 227//227
f 482//482 397//397 400//400
f 482//482 400//400 485//485
f 474//474 476//476 518//518
f 518//518 476//476 520//520
f 516//516 474//474 518//518
f 479//479 520//520 476//476
f 516//516 391//391 474//474
f 520//520 479//479 523//523
f 391//391 516//516 309//309
f 394//394 523//523 479//479
f 311//311 391//391 309//309
f 391//391 311//311 394//394
f 314//314 523//523 394//394
f 314//314 394//394 311//311
f 212//212 57//57 60//60
f 212//212 60//60 215//215
f 218//218 63//63 66//66
f 218//218 66//66 221//221
f 326//326 408//408 323//323
f 408//408 326//326 411//411
f 306//306 303//303 277//277
f 277//277 280//280 306//306
f 508//508 511//511 542//542
f 542//542 511//511 545//545
f 388//388 471//471 385//385
f 468//468 385//385 471//471
f 382//382 465//465 379//379
f 462//462 379//379 465//465
f 126//126 575//575 586//586
f 126//126 586//586 137//137
f 220//220 65//65 209//209
f 54//54 209//209 65//65
f 134//134 583//583 598//598
f 134//134 598//598 149//149
f 572//572 123//123 563//563
f 114//114 563//563 123//123
f 62//62 217//217 232//232
f 62//62 232//232 77//77
f 197//197 51//51 42//42
f 51//51 197//197 206//206
f 244//244 89//89 229//229
f 74//74 229//229 89//89
f 194//194 39//39 185//185
f 30//30 185//185 39//39
f 102//102 551//551 560//560
f 102//102 560//560 111//111
f 604//604 155//155 595//595
f 146//146 595//595 155//155
f 182//182 27//27 173//173
f 18//18 173//173 27//27
f 241//241 95//95 86//86
f 95//95 241//241 250//250
f 170//170 6//6 161//161
f 6//6 170//170 15//15
f 320//320 405//405 330//330
f 405//405 414//414 330//330
f 470//470 374//374 457//457
f 374//374 470//470 387//387
f 467//467 459//459 505//505
f 454//454 505//505 459//459
f 505//505 513//513 467//467
f 505//505 454//454 495//495
f 522//522 467//467 513//513
f 371//371 495//495 454//454
f 522//522 384//384 467//467
f 495//495 371//371 286//286
f 384//384 522//522 313//313
f 313//313 286//286 371//371
f 371//371 384//384 313//313
f 354//354 439//439 445//445
f 354//354 445//445 362//362
f 279//279 274//274 292//292
f 292//292 305//305 279//279
f 510//510 503//503 539//539
f 539//539 544//544 510//510
f 478//478 399//399 393//393
f 399//399 478//478 484//484
f 34//34 70//70 58//58
f 70//70 67//67 58//58
f 43//43 58//58 55//55
f 58//58 43//43 46//46
f 34//34 58//58 46//46
f 46//46 31//31 34//34
f 82//82 79//79 70//70
f 70//70 34//34 82//82
f 34//34 19//19 22//22
f 10//10 34//34 22//22
f 7//7 10//10 22//22
f 34//34 10//10 13//13
f 1//1 13//13 10//10
f 4//4 13//13 1//1
f 13//13 37//37 34//34
f 37//37 82//82 34//34
f 13//13 16//16 25//25
f 37//37 13//13 25//25
f 28//28 37//37 25//25
f 82//82 37//37 85//85
f 85//85 91//91 82//82
f 91//91 85//85 94//94
f 85//85 37//37 73//73
f 73//73 88//88 85//85
f 73//73 37//37 61//61
f 61//61 76//76 73//73
f 61//61 37//37 49//49
f 37//37 40//40 49//49
f 49//49 64//64 61//61
f 64//64 49//49 52//52
f 118//118 145//145 130//130
f 130//130 127//127 115//115
f 130//130 115//115 118//118
f 142//142 139//139 130//130
f 130//130 145//145 142//142
f 145//145 151//151 142//142
f 145//145 154//154 151//151
f 133//133 148//148 145//145
f 145//145 118//118 133//133
f 118//118 121//121 133//133
f 136//136 133//133 121//121
f 121//121 124//124 136//136
f 121//121 118//118 109//109
f 121//121 109//109 112//112
f 109//109 118//118 106//106
f 118//118 103//103 106//106
f 106//106 100//100 109//109
f 106//106 97//97 100//100
f 261//261 267//267 264//264
f 267//267 261//261 256//256
f 253//253 256//256 261//261
f 261//261 258//258 253//253
f 269//269 272//272 275//275
f 275//275 272//272 278//278
f 295//295 301//301 299//299
f 301//301 307//307 299//299
f 307//307 301//301 310//310
f 301//301 295//295 297//297
f 304//304 310//310 301//301
f 297//297 295//295 293//293
f 310//310 304//304 312//312
f 297//297 293//293 287//287
f 290//290 312//312 304//304
f 293//293 281//281 287//287
f 281//281 290//290 287//287
f 312//312 290//290 284//284
f 290//290 281//281 284//284
f 315//315 324//324 321//321
f 315//315 318//318 324//324
f 324//324 318//318 327//327
f 334//334 324//324 327//327
f 331//331 324//324 334//334
f 337//337 346//346 343//343
f 346//346 337//337 340//340
f 349//349 360//360 357//357
f 360//360 349//349 352//352
f 363//363 375//375 377//377
f 377//377 375//375 380//380
f 375//375 363//363 366//366
f 383//383 369//369 372//372
f 383//383 372//372 386//386
f 389//389 398//398 395//395
f 398//398 389//389 392//392
f 98//98 547//547 550//550
f 98//98 550//550 101//101
f 157//157 5//5 2//2
f 5//5 157//157 160//160
f 104//104 553//553 556//556
f 104//104 556//556 107//107
f 110//110 559//559 562//562
f 110//110 562//562 113//113
f 8//8 163//163 166//166
f 8//8 166//166 11//11
f 14//14 169//169 172//172
f 14//14 172//172 17//17
f 20//20 175//175 178//178
f 20//20 178//178 23//23
f 26//26 181//181 184//184
f 26//26 184//184 29//29
f 350//350 435//435 438//438
f 350//350 438//438 353//353
f 116//116 565//565 568//568
f 116//116 568//568 119//119
f 122//122 571//571 574//574
f 122//122 574//574 125//125
f 355//355 431//431 433//433
f 355//355 433//433 358//358
f 441//441 433//433 431//431
f 355//355 358//358 282//282
f 431//431 487//487 441//441
f 361//361 282//282 358//358
f 490//490 441//441 487//487
f 282//282 361//361 285//285
f 444//444 441//441 490//490
f 361//361 494//494 285//285
f 444//444 494//494 361//361
f 494//494 444//444 492//492
f 444//444 490//490 492//492
f 364//364 447//447 450//450
f 364//364 450//450 367//367
f 370//370 453//453 456//456
f 370//370 456//456 373//373
f 535//535 500//500 497//497
f 538//538 500//500 535//535
f 500//500 538//538 502//502
f 288//288 273//273 270//270
f 273//273 288//288 291//291
f 38//38 193//193 196//196
f 38//38 196//196 41//41
f 187//187 35//35 32//32
f 35//35 187//187 190//190
f 401//401 404//404 316//316
f 316//316 404//404 319//319
f 199//199 47//47 44//44
f 47//47 199//199 202//202
f 50//50 205//205 208//208
f 50//50 208//208 53//53
f 413//413 416//416 328//328
f 416//416 254//254 328//328
f 254//254 416//416 257//257
f 416//416 528//528 257//257
f 528//528 416//416 525//525
f 378//378 461//461 448//448
f 378//378 448//448 365//365
f 381//381 296//296 300//300
f 308//308 381//381 300//300
f 515//515 381//381 308//308
f 376//376 296//296 381//381
f 381//381 515//515 464//464
f 296//296 376//376 294//294
f 515//515 488//488 464//464
f 464//464 488//488 451//451
f 451//451 488//488 432//432
f 368//368 294//294 376//376
f 368//368 451//451 432//432
f 294//294 368//368 283//283
f 368//368 432//432 356//356
f 283//283 368//368 356//356
f 298//298 276//276 302//302
f 298//298 271//271 276//276
f 271//271 298//298 289//289
f 541//541 498//498 507//507
f 498//498 541//541 536//536
f 442//442 436//436 434//434
f 436//436 351//351 434//434
f 359//359 434//434 351//351
f 473//473 390//390 481//481
f 396//396 481//481 390//390
f 407//407 317//317 322//322
f 317//317 407//407 402//402
f 419//419 325//325 332//332
f 325//325 419//419 410//410
f 335//335 255//255 259//259
f 255//255 335//335 329//329
f 425//425 338//338 344//344
f 338//338 425//425 422//422
f 347//347 262//262 265//265
f 262//262 347//347 341//341
f 128//128 577//577 566//566
f 128//128 566//566 117//117
f 56//56 211//211 200//200
f 56//56 200//200 45//45
f 530//530 417//417 428//428
f 417//417 530//530 526//526
f 120//120 569//569 554//554
f 120//120 554//554 105//105
f 589//589 131//131 140//140
f 131//131 589//589 580//580
f 223//223 59//59 68//68
f 59//59 223//223 214//214
f 48//48 203//203 188//188
f 48//48 188//188 33//33
f 176//176 36//36 191//191
f 36//36 176//176 21//21
f 226//226 71//71 235//235
f 80//80 235//235 71//71
f 152//152 601//601 592//592
f 152//152 592//592 143//143
f 108//108 557//557 548//548
f 108//108 548//548 99//99
f 24//24 179//179 164//164
f 24//24 164//164 9//9
f 247//247 83//83 92//92
f 83//83 247//247 238//238
f 167//167 3//3 12//12
f 3//3 167//167 158//158
