# Pixel Sniper over default Sniper - Bullet
# Fleasion-ready: already in the default MeshPart's space
o Bullet
v -0.177571 -0.040215 -0.001208 0.9500 0.7000 0.2500
v -0.177571 -0.040215 -0.001208 0.9500 0.7000 0.2500
v -0.177571 -0.040215 -0.001208 0.9500 0.7000 0.2500
v -0.177571 -0.040215 0.029491 0.9500 0.7000 0.2500
v -0.177571 -0.040215 0.029491 0.9500 0.7000 0.2500
v -0.177571 -0.040215 0.029491 0.9500 0.7000 0.2500
v -0.177571 -0.009316 -0.001208 0.9500 0.7000 0.2500
v -0.177571 -0.009316 -0.001208 0.9500 0.7000 0.2500
v -0.177571 -0.009316 -0.001208 0.9500 0.7000 0.2500
v -0.177571 -0.009316 0.029491 0.9500 0.7000 0.2500
v -0.177571 -0.009316 0.029491 0.9500 0.7000 0.2500
v -0.177571 -0.009316 0.029491 0.9500 0.7000 0.2500
v -0.123554 -0.071114 -0.001208 0.9500 0.7000 0.2500
v -0.123554 -0.071114 -0.001208 0.9500 0.7000 0.2500
v -0.123554 -0.071114 -0.001208 0.9500 0.7000 0.2500
v -0.123554 -0.071114 0.029491 0.9500 0.7000 0.2500
v -0.123554 -0.071114 0.029491 0.9500 0.7000 0.2500
v -0.123554 -0.071114 0.029491 0.9500 0.7000 0.2500
v -0.123554 -0.040215 -0.032464 0.9500 0.7000 0.2500
v -0.123554 -0.040215 -0.032464 0.9500 0.7000 0.2500
v -0.123554 -0.040215 -0.032464 0.9500 0.7000 0.2500
v -0.123554 -0.040215 -0.001208 0.9500 0.7000 0.2500
v -0.123554 -0.040215 -0.001208 0.9500 0.7000 0.2500
v -0.123554 -0.040215 -0.001208 0.9500 0.7000 0.2500
v -0.123554 -0.040215 0.029491 0.9500 0.7000 0.2500
v -0.123554 -0.040215 0.029491 0.9500 0.7000 0.2500
v -0.123554 -0.040215 0.029491 0.9500 0.7000 0.2500
v -0.123554 -0.040215 0.060189 0.9500 0.7000 0.2500
v -0.123554 -0.040215 0.060189 0.9500 0.7000 0.2500
v -0.123554 -0.040215 0.060189 0.9500 0.7000 0.2500
v -0.123554 -0.009316 -0.032464 0.9500 0.7000 0.2500
v -0.123554 -0.009316 -0.032464 0.9500 0.7000 0.2500
v -0.123554 -0.009316 -0.032464 0.9500 0.7000 0.2500
v -0.123554 -0.009316 -0.001208 0.9500 0.7000 0.2500
v -0.123554 -0.009316 -0.001208 0.9500 0.7000 0.2500
v -0.123554 -0.009316 -0.001208 0.9500 0.7000 0.2500
v -0.123554 -0.009316 0.029491 0.9500 0.7000 0.2500
v -0.123554 -0.009316 0.029491 0.9500 0.7000 0.2500
v -0.123554 -0.009316 0.029491 0.9500 0.7000 0.2500
v -0.123554 -0.009316 0.060189 0.9500 0.7000 0.2500
v -0.123554 -0.009316 0.060189 0.9500 0.7000 0.2500
v -0.123554 -0.009316 0.060189 0.9500 0.7000 0.2500
v -0.123554 0.021583 -0.001208 0.9500 0.7000 0.2500
v -0.123554 0.021583 -0.001208 0.9500 0.7000 0.2500
v -0.123554 0.021583 -0.001208 0.9500 0.7000 0.2500
v -0.123554 0.021583 0.029491 0.9500 0.7000 0.2500
v -0.123554 0.021583 0.029491 0.9500 0.7000 0.2500
v -0.123554 0.021583 0.029491 0.9500 0.7000 0.2500
v -0.069537 -0.071114 -0.032464 0.9500 0.7000 0.2500
v -0.069537 -0.071114 -0.032464 0.9500 0.7000 0.2500
v -0.069537 -0.071114 -0.032464 0.9500 0.7000 0.2500
v -0.069537 -0.071114 -0.001208 0.9500 0.7000 0.2500
v -0.069537 -0.071114 -0.001208 0.9500 0.7000 0.2500
v -0.069537 -0.071114 -0.001208 0.9500 0.7000 0.2500
v -0.069537 -0.071114 0.029491 0.9500 0.7000 0.2500
v -0.069537 -0.071114 0.029491 0.9500 0.7000 0.2500
v -0.069537 -0.071114 0.029491 0.9500 0.7000 0.2500
v -0.069537 -0.071114 0.060189 0.9500 0.7000 0.2500
v -0.069537 -0.071114 0.060189 0.9500 0.7000 0.2500
v -0.069537 -0.071114 0.060189 0.9500 0.7000 0.2500
v -0.069537 -0.040215 -0.032464 0.9500 0.7000 0.2500
v -0.069537 -0.040215 -0.032464 0.9500 0.7000 0.2500
v -0.069537 -0.040215 -0.032464 0.9500 0.7000 0.2500
v -0.069537 -0.040215 -0.001208 0.9500 0.7000 0.2500
v -0.069537 -0.040215 -0.001208 0.9500 0.7000 0.2500
v -0.069537 -0.040215 -0.001208 0.9500 0.7000 0.2500
v -0.069537 -0.040215 0.029491 0.9500 0.7000 0.2500
v -0.069537 -0.040215 0.029491 0.9500 0.7000 0.2500
v -0.069537 -0.040215 0.029491 0.9500 0.7000 0.2500
v -0.069537 -0.040215 0.060189 0.9500 0.7000 0.2500
v -0.069537 -0.040215 0.060189 0.9500 0.7000 0.2500
v -0.069537 -0.040215 0.060189 0.9500 0.7000 0.2500
v -0.069537 -0.009316 -0.032464 0.9500 0.7000 0.2500
v -0.069537 -0.009316 -0.032464 0.9500 0.7000 0.2500
v -0.069537 -0.009316 -0.032464 0.9500 0.7000 0.2500
v -0.069537 -0.009316 -0.001208 0.9500 0.7000 0.2500
v -0.069537 -0.009316 -0.001208 0.9500 0.7000 0.2500
v -0.069537 -0.009316 -0.001208 0.9500 0.7000 0.2500
v -0.069537 -0.009316 0.029491 0.9500 0.7000 0.2500
v -0.069537 -0.009316 0.029491 0.9500 0.7000 0.2500
v -0.069537 -0.009316 0.029491 0.9500 0.7000 0.2500
v -0.069537 -0.009316 0.060189 0.9500 0.7000 0.2500
v -0.069537 -0.009316 0.060189 0.9500 0.7000 0.2500
v -0.069537 -0.009316 0.060189 0.9500 0.7000 0.2500
v -0.069537 0.021583 -0.032464 0.9500 0.7000 0.2500
v -0.069537 0.021583 -0.032464 0.9500 0.7000 0.2500
v -0.069537 0.021583 -0.032464 0.9500 0.7000 0.2500
v -0.069537 0.021583 -0.001208 0.9500 0.7000 0.2500
v -0.069537 0.021583 -0.001208 0.9500 0.7000 0.2500
v -0.069537 0.021583 -0.001208 0.9500 0.7000 0.2500
v -0.069537 0.021583 0.029491 0.9500 0.7000 0.2500
v -0.069537 0.021583 0.029491 0.9500 0.7000 0.2500
v -0.069537 0.021583 0.029491 0.9500 0.7000 0.2500
v -0.069537 0.021583 0.060189 0.9500 0.7000 0.2500
v -0.069537 0.021583 0.060189 0.9500 0.7000 0.2500
v -0.069537 0.021583 0.060189 0.9500 0.7000 0.2500
v 0.200548 -0.071114 -0.032464 0.9500 0.7000 0.2500
v 0.200548 -0.071114 -0.032464 0.9500 0.7000 0.2500
v 0.200548 -0.071114 -0.032464 0.9500 0.7000 0.2500
v 0.200548 -0.071114 0.060189 0.9500 0.7000 0.2500
v 0.200548 -0.071114 0.060189 0.9500 0.7000 0.2500
v 0.200548 -0.071114 0.060189 0.9500 0.7000 0.2500
v 0.200548 0.021583 -0.032464 0.9500 0.7000 0.2500
v 0.200548 0.021583 -0.032464 0.9500 0.7000 0.2500
v 0.200548 0.021583 -0.032464 0.9500 0.7000 0.2500
v 0.200548 0.021583 0.060189 0.9500 0.7000 0.2500
v 0.200548 0.021583 0.060189 0.9500 0.7000 0.2500
v 0.200548 0.021583 0.060189 0.9500 0.7000 0.2500
vn -1.00000 0.00000 0.00000
vn 0.00000 -1.00000 0.00000
vn 0.00000 0.00000 -1.00000
vn -1.00000 0.00000 0.00000
vn 0.00000 -1.00000 0.00000
vn 0.00000 0.00000 1.00000
vn -1.00000 0.00000 0.00000
vn 0.00000 0.00000 -1.00000
vn 0.00000 1.00000 0.00000
vn -1.00000 0.00000 0.00000
vn 0.00000 0.00000 1.00000
vn 0.00000 1.00000 0.00000
vn -1.00000 0.00000 0.00000
vn 0.00000 -1.00000 0.00000
vn 0.00000 0.00000 -1.00000
vn -1.00000 0.00000 0.00000
vn 0.00000 -1.00000 0.00000
vn 0.00000 0.00000 1.00000
vn -1.00000 0.00000 0.00000
vn 0.00000 -1.00000 0.00000
vn 0.00000 0.00000 -1.00000
vn -1.00000 0.00000 0.00000
vn 0.00000 -1.00000 0.00000
vn 0.00000 0.00000 -1.00000
vn -1.00000 0.00000 0.00000
vn 0.00000 -1.00000 0.00000
vn 0.00000 0.00000 1.00000
vn -1.00000 0.00000 0.00000
vn 0.00000 -1.00000 0.00000
vn 0.00000 0.00000 1.00000
vn -1.00000 0.00000 0.00000
vn 0.00000 0.00000 -1.00000
vn 0.00000 1.00000 0.00000
vn -1.00000 0.00000 0.00000
vn 0.00000 0.00000 -1.00000
vn 0.00000 1.00000 0.00000
vn -1.00000 0.00000 0.00000
vn 0.00000 0.00000 1.00000
vn 0.00000 1.00000 0.00000
vn -1.00000 0.00000 0.00000
vn 0.00000 0.00000 1.00000
vn 0.00000 1.00000 0.00000
vn -1.00000 0.00000 0.00000
vn 0.00000 0.00000 -1.00000
vn 0.00000 1.00000 0.00000
vn -1.00000 0.00000 0.00000
vn 0.00000 0.00000 1.00000
vn 0.00000 1.00000 0.00000
vn -1.00000 0.00000 0.00000
vn 0.00000 -1.00000 0.00000
vn 0.00000 0.00000 -1.00000
vn -1.00000 0.00000 0.00000
vn 0.00000 -1.00000 0.00000
vn 0.00000 0.00000 -1.00000
vn -1.00000 0.00000 0.00000
vn 0.00000 -1.00000 0.00000
vn 0.00000 0.00000 1.00000
vn -1.00000 0.00000 0.00000
vn 0.00000 -1.00000 0.00000
vn 0.00000 0.00000 1.00000
vn -1.00000 0.00000 0.00000
vn 0.00000 -1.00000 0.00000
vn 0.00000 0.00000 -1.00000
vn -1.00000 0.00000 0.00000
vn 0.00000 -1.00000 0.00000
vn 0.00000 0.00000 -1.00000
vn -1.00000 0.00000 0.00000
vn 0.00000 -1.00000 0.00000
vn 0.00000 0.00000 1.00000
vn -1.00000 0.00000 0.00000
vn 0.00000 -1.00000 0.00000
vn 0.00000 0.00000 1.00000
vn -1.00000 0.00000 0.00000
vn 0.00000 0.00000 -1.00000
vn 0.00000 1.00000 0.00000
vn -1.00000 0.00000 0.00000
vn 0.00000 0.00000 -1.00000
vn 0.00000 1.00000 0.00000
vn -1.00000 0.00000 0.00000
vn 0.00000 0.00000 1.00000
vn 0.00000 1.00000 0.00000
vn -1.00000 0.00000 0.00000
vn 0.00000 0.00000 1.00000
vn 0.00000 1.00000 0.00000
vn -1.00000 0.00000 0.00000
vn 0.00000 0.00000 -1.00000
vn 0.00000 1.00000 0.00000
vn -1.00000 0.00000 0.00000
vn 0.00000 0.00000 -1.00000
vn 0.00000 1.00000 0.00000
vn -1.00000 0.00000 0.00000
vn 0.00000 0.00000 1.00000
vn 0.00000 1.00000 0.00000
vn -1.00000 0.00000 0.00000
vn 0.00000 0.00000 1.00000
vn 0.00000 1.00000 0.00000
vn 0.00000 -1.00000 0.00000
vn 0.00000 0.00000 -1.00000
vn 1.00000 0.00000 0.00000
vn 0.00000 -1.00000 0.00000
vn 0.00000 0.00000 1.00000
vn 1.00000 0.00000 0.00000
vn 0.00000 0.00000 -1.00000
vn 0.00000 1.00000 0.00000
vn 1.00000 0.00000 0.00000
vn 0.00000 0.00000 1.00000
vn 0.00000 1.00000 0.00000
vn 1.00000 0.00000 0.00000
f 99//99 105//105 108//108
f 99//99 108//108 102//102
f 104//104 93//93 107//107
f 107//107 93//93 96//96
f 93//93 104//104 90//90
f 90//90 104//104 87//87
f 90//90 48//48 93//93
f 90//90 45//45 48//48
f 75//75 33//33 36//36
f 75//75 36//36 78//78
f 12//12 36//36 9//9
f 36//36 12//12 39//39
f 81//81 39//39 42//42
f 81//81 42//42 84//84
f 101//101 72//72 60//60
f 72//72 101//101 106//106
f 72//72 106//106 83//83
f 106//106 95//95 83//83
f 83//83 41//41 72//72
f 30//30 72//72 41//41
f 80//80 47//47 38//38
f 47//47 80//80 92//92
f 11//11 27//27 38//38
f 27//27 11//11 6//6
f 57//57 27//27 18//18
f 27//27 57//57 69//69
f 7//7 1//1 10//10
f 1//1 4//4 10//10
f 31//31 19//19 34//34
f 19//19 22//22 34//34
f 43//43 34//34 46//46
f 34//34 37//37 46//46
f 37//37 25//25 40//40
f 25//25 28//28 40//40
f 22//22 13//13 25//25
f 13//13 16//16 25//25
f 85//85 73//73 88//88
f 73//73 76//76 88//88
f 91//91 79//79 94//94
f 79//79 82//82 94//94
f 61//61 49//49 64//64
f 49//49 52//52 64//64
f 67//67 55//55 70//70
f 55//55 58//58 70//70
f 97//97 53//53 50//50
f 97//97 56//56 53//53
f 56//56 97//97 100//100
f 56//56 100//100 59//59
f 56//56 17//17 53//53
f 14//14 53//53 17//17
f 20//20 62//62 65//65
f 20//20 65//65 23//23
f 2//2 23//23 26//26
f 2//2 26//26 5//5
f 26//26 68//68 71//71
f 26//26 71//71 29//29
f 103//103 74//74 86//86
f 103//103 63//63 74//74
f 63//63 103//103 98//98
f 98//98 51//51 63//63
f 63//63 21//21 74//74
f 32//32 74//74 21//21
f 77//77 35//35 89//89
f 44//44 89//89 35//35
f 8//8 35//35 3//3
f 24//24 3//3 35//35
f 24//24 66//66 15//15
f 54//54 15//15 66//66
