# Pixel Sniper over default Sniper - Handguard
# Fleasion-ready: already in the default MeshPart's space
o Handguard
v -1.069619 0.229022 -0.137934 0.9300 0.8500 0.7000
v -1.069619 0.229022 -0.137934 0.9300 0.8500 0.7000
v -1.069619 0.229022 -0.137934 0.9300 0.8500 0.7000
v -1.069619 0.229022 0.144566 0.9300 0.8500 0.7000
v -1.069619 0.229022 0.144566 0.9300 0.8500 0.7000
v -1.069619 0.229022 0.144566 0.9300 0.8500 0.7000
v -1.069619 0.264122 -0.137934 0.9300 0.8500 0.7000
v -1.069619 0.264122 -0.137934 0.9300 0.8500 0.7000
v -1.069619 0.264122 -0.137934 0.9300 0.8500 0.7000
v -1.069619 0.264122 0.144566 0.9300 0.8500 0.7000
v -1.069619 0.264122 0.144566 0.9300 0.8500 0.7000
v -1.069619 0.264122 0.144566 0.9300 0.8500 0.7000
v -1.057919 0.217322 -0.137934 0.9300 0.8500 0.7000
v -1.057919 0.217322 -0.137934 0.9300 0.8500 0.7000
v -1.057919 0.217322 -0.137934 0.9300 0.8500 0.7000
v -1.057919 0.217322 0.144566 0.9300 0.8500 0.7000
v -1.057919 0.217322 0.144566 0.9300 0.8500 0.7000
v -1.057919 0.217322 0.144566 0.9300 0.8500 0.7000
v -1.057919 0.229022 -0.137934 0.9300 0.8500 0.7000
v -1.057919 0.229022 -0.137934 0.9300 0.8500 0.7000
v -1.057919 0.229022 -0.137934 0.9300 0.8500 0.7000
v -1.057919 0.229022 0.144566 0.9300 0.8500 0.7000
v -1.057919 0.229022 0.144566 0.9300 0.8500 0.7000
v -1.057919 0.229022 0.144566 0.9300 0.8500 0.7000
v -1.057919 0.264122 -0.137934 0.9300 0.8500 0.7000
v -1.057919 0.264122 -0.137934 0.9300 0.8500 0.7000
v -1.057919 0.264122 -0.137934 0.9300 0.8500 0.7000
v -1.057919 0.264122 0.144566 0.9300 0.8500 0.7000
v -1.057919 0.264122 0.144566 0.9300 0.8500 0.7000
v -1.057919 0.264122 0.144566 0.9300 0.8500 0.7000
v -1.057919 0.275822 -0.137934 0.9300 0.8500 0.7000
v -1.057919 0.275822 -0.137934 0.9300 0.8500 0.7000
v -1.057919 0.275822 -0.137934 0.9300 0.8500 0.7000
v -1.057919 0.275822 0.144566 0.9300 0.8500 0.7000
v -1.057919 0.275822 0.144566 0.9300 0.8500 0.7000
v -1.057919 0.275822 0.144566 0.9300 0.8500 0.7000
v -1.046219 0.205622 -0.137934 0.9300 0.8500 0.7000
v -1.046219 0.205622 -0.137934 0.9300 0.8500 0.7000
v -1.046219 0.205622 -0.137934 0.9300 0.8500 0.7000
v -1.046219 0.205622 0.144566 0.9300 0.8500 0.7000
v -1.046219 0.205622 0.144566 0.9300 0.8500 0.7000
v -1.046219 0.205622 0.144566 0.9300 0.8500 0.7000
v -1.046219 0.217322 -0.137934 0.9300 0.8500 0.7000
v -1.046219 0.217322 -0.137934 0.9300 0.8500 0.7000
v -1.046219 0.217322 -0.137934 0.9300 0.8500 0.7000
v -1.046219 0.217322 0.144566 0.9300 0.8500 0.7000
v -1.046219 0.217322 0.144566 0.9300 0.8500 0.7000
v -1.046219 0.217322 0.144566 0.9300 0.8500 0.7000
v -1.046219 0.275822 -0.137934 0.9300 0.8500 0.7000
v -1.046219 0.275822 -0.137934 0.9300 0.8500 0.7000
v -1.046219 0.275822 -0.137934 0.9300 0.8500 0.7000
v -1.046219 0.275822 0.144566 0.9300 0.8500 0.7000
v -1.046219 0.275822 0.144566 0.9300 0.8500 0.7000
v -1.046219 0.275822 0.144566 0.9300 0.8500 0.7000
v -1.046219 0.287522 -0.137934 0.9300 0.8500 0.7000
v -1.046219 0.287522 -0.137934 0.9300 0.8500 0.7000
v -1.046219 0.287522 -0.137934 0.9300 0.8500 0.7000
v -1.046219 0.287522 0.144566 0.9300 0.8500 0.7000
v -1.046219 0.287522 0.144566 0.9300 0.8500 0.7000
v -1.046219 0.287522 0.144566 0.9300 0.8500 0.7000
v -1.011169 0.205622 -0.137934 0.9300 0.8500 0.7000
v -1.011169 0.205622 -0.137934 0.9300 0.8500 0.7000
v -1.011169 0.205622 -0.137934 0.9300 0.8500 0.7000
v -1.011169 0.205622 0.144566 0.9300 0.8500 0.7000
v -1.011169 0.205622 0.144566 0.9300 0.8500 0.7000
v -1.011169 0.205622 0.144566 0.9300 0.8500 0.7000
v -1.011169 0.217322 -0.137934 0.9300 0.8500 0.7000
v -1.011169 0.217322 -0.137934 0.9300 0.8500 0.7000
v -1.011169 0.217322 -0.137934 0.9300 0.8500 0.7000
v -1.011169 0.217322 0.144566 0.9300 0.8500 0.7000
v -1.011169 0.217322 0.144566 0.9300 0.8500 0.7000
v -1.011169 0.217322 0.144566 0.9300 0.8500 0.7000
v -1.011169 0.275822 -0.137934 0.9300 0.8500 0.7000
v -1.011169 0.275822 -0.137934 0.9300 0.8500 0.7000
v -1.011169 0.275822 -0.137934 0.9300 0.8500 0.7000
v -1.011169 0.275822 0.144566 0.9300 0.8500 0.7000
v -1.011169 0.275822 0.144566 0.9300 0.8500 0.7000
v -1.011169 0.275822 0.144566 0.9300 0.8500 0.7000
v -1.011169 0.287522 -0.137934 0.9300 0.8500 0.7000
v -1.011169 0.287522 -0.137934 0.9300 0.8500 0.7000
v -1.011169 0.287522 -0.137934 0.9300 0.8500 0.7000
v -1.011169 0.287522 0.144566 0.9300 0.8500 0.7000
v -1.011169 0.287522 0.144566 0.9300 0.8500 0.7000
v -1.011169 0.287522 0.144566 0.9300 0.8500 0.7000
v -0.999469 0.217322 -0.137934 0.9300 0.8500 0.7000
v -0.999469 0.217322 -0.137934 0.9300 0.8500 0.7000
v -0.999469 0.217322 -0.137934 0.9300 0.8500 0.7000
v -0.999469 0.217322 0.144566 0.9300 0.8500 0.7000
v -0.999469 0.217322 0.144566 0.9300 0.8500 0.7000
v -0.999469 0.217322 0.144566 0.9300 0.8500 0.7000
v -0.999469 0.229022 -0.137934 0.9300 0.8500 0.7000
v -0.999469 0.229022 -0.137934 0.9300 0.8500 0.7000
v -0.999469 0.229022 -0.137934 0.9300 0.8500 0.7000
v -0.999469 0.229022 0.144566 0.9300 0.8500 0.7000
v -0.999469 0.229022 0.144566 0.9300 0.8500 0.7000
v -0.999469 0.229022 0.144566 0.9300 0.8500 0.7000
v -0.999469 0.264122 -0.137934 0.9300 0.8500 0.7000
v -0.999469 0.264122 -0.137934 0.9300 0.8500 0.7000
v -0.999469 0.264122 -0.137934 0.9300 0.8500 0.7000
v -0.999469 0.264122 0.144566 0.9300 0.8500 0.7000
v -0.999469 0.264122 0.144566 0.9300 0.8500 0.7000
v -0.999469 0.264122 0.144566 0.9300 0.8500 0.7000
v -0.999469 0.275822 -0.137934 0.9300 0.8500 0.7000
v -0.999469 0.275822 -0.137934 0.9300 0.8500 0.7000
v -0.999469 0.275822 -0.137934 0.9300 0.8500 0.7000
v -0.999469 0.275822 0.144566 0.9300 0.8500 0.7000
v -0.999469 0.275822 0.144566 0.9300 0.8500 0.7000
v -0.999469 0.275822 0.144566 0.9300 0.8500 0.7000
v -0.987769 0.229022 -0.137934 0.9300 0.8500 0.7000
v -0.987769 0.229022 -0.137934 0.9300 0.8500 0.7000
v -0.987769 0.229022 -0.137934 0.9300 0.8500 0.7000
v -0.987769 0.229022 0.144566 0.9300 0.8500 0.7000
v -0.987769 0.229022 0.144566 0.9300 0.8500 0.7000
v -0.987769 0.229022 0.144566 0.9300 0.8500 0.7000
v -0.987769 0.264122 -0.137934 0.9300 0.8500 0.7000
v -0.987769 0.264122 -0.137934 0.9300 0.8500 0.7000
v -0.987769 0.264122 -0.137934 0.9300 0.8500 0.7000
v -0.987769 0.264122 0.144566 0.9300 0.8500 0.7000
v -0.987769 0.264122 0.144566 0.9300 0.8500 0.7000
v -0.987769 0.264122 0.144566 0.9300 0.8500 0.7000
v 0.209931 0.099022 -0.137934 0.9300 0.8500 0.7000
v 0.209931 0.099022 -0.137934 0.9300 0.8500 0.7000
v 0.209931 0.099022 -0.137934 0.9300 0.8500 0.7000
v 0.209931 0.099022 0.144566 0.9300 0.8500 0.7000
v 0.209931 0.099022 0.144566 0.9300 0.8500 0.7000
v 0.209931 0.099022 0.144566 0.9300 0.8500 0.7000
v 0.209931 0.134122 -0.137934 0.9300 0.8500 0.7000
v 0.209931 0.134122 -0.137934 0.9300 0.8500 0.7000
v 0.209931 0.134122 -0.137934 0.9300 0.8500 0.7000
v 0.209931 0.134122 0.144566 0.9300 0.8500 0.7000
v 0.209931 0.134122 0.144566 0.9300 0.8500 0.7000
v 0.209931 0.134122 0.144566 0.9300 0.8500 0.7000
v 0.221631 0.087322 -0.137934 0.9300 0.8500 0.7000
v 0.221631 0.087322 -0.137934 0.9300 0.8500 0.7000
v 0.221631 0.087322 -0.137934 0.9300 0.8500 0.7000
v 0.221631 0.087322 0.144566 0.9300 0.8500 0.7000
v 0.221631 0.087322 0.144566 0.9300 0.8500 0.7000
v 0.221631 0.087322 0.144566 0.9300 0.8500 0.7000
v 0.221631 0.099022 -0.137934 0.9300 0.8500 0.7000
v 0.221631 0.099022 -0.137934 0.9300 0.8500 0.7000
v 0.221631 0.099022 -0.137934 0.9300 0.8500 0.7000
v 0.221631 0.099022 0.144566 0.9300 0.8500 0.7000
v 0.221631 0.099022 0.144566 0.9300 0.8500 0.7000
v 0.221631 0.099022 0.144566 0.9300 0.8500 0.7000
v 0.221631 0.134122 -0.137934 0.9300 0.8500 0.7000
v 0.221631 0.134122 -0.137934 0.9300 0.8500 0.7000
v 0.221631 0.134122 -0.137934 0.9300 0.8500 0.7000
v 0.221631 0.134122 0.144566 0.9300 0.8500 0.7000
v 0.221631 0.134122 0.144566 0.9300 0.8500 0.7000
v 0.221631 0.134122 0.144566 0.9300 0.8500 0.7000
v 0.221631 0.145822 -0.137934 0.9300 0.8500 0.7000
v 0.221631 0.145822 -0.137934 0.9300 0.8500 0.7000
v 0.221631 0.145822 -0.137934 0.9300 0.8500 0.7000
v 0.221631 0.145822 0.144566 0.9300 0.8500 0.7000
v 0.221631 0.145822 0.144566 0.9300 0.8500 0.7000
v 0.221631 0.145822 0.144566 0.9300 0.8500 0.7000
v 0.233331 0.075622 -0.137934 0.9300 0.8500 0.7000
v 0.233331 0.075622 -0.137934 0.9300 0.8500 0.7000
v 0.233331 0.075622 -0.137934 0.9300 0.8500 0.7000
v 0.233331 0.075622 0.144566 0.9300 0.8500 0.7000
v 0.233331 0.075622 0.144566 0.9300 0.8500 0.7000
v 0.233331 0.075622 0.144566 0.9300 0.8500 0.7000
v 0.233331 0.087322 -0.137934 0.9300 0.8500 0.7000
v 0.233331 0.087322 -0.137934 0.9300 0.8500 0.7000
v 0.233331 0.087322 -0.137934 0.9300 0.8500 0.7000
v 0.233331 0.087322 0.144566 0.9300 0.8500 0.7000
v 0.233331 0.087322 0.144566 0.9300 0.8500 0.7000
v 0.233331 0.087322 0.144566 0.9300 0.8500 0.7000
v 0.233331 0.145822 -0.137934 0.9300 0.8500 0.7000
v 0.233331 0.145822 -0.137934 0.9300 0.8500 0.7000
v 0.233331 0.145822 -0.137934 0.9300 0.8500 0.7000
v 0.233331 0.145822 0.144566 0.9300 0.8500 0.7000
v 0.233331 0.145822 0.144566 0.9300 0.8500 0.7000
v 0.233331 0.145822 0.144566 0.9300 0.8500 0.7000
v 0.233331 0.157522 -0.137934 0.9300 0.8500 0.7000
v 0.233331 0.157522 -0.137934 0.9300 0.8500 0.7000
v 0.233331 0.157522 -0.137934 0.9300 0.8500 0.7000
v 0.233331 0.157522 0.144566 0.9300 0.8500 0.7000
v 0.233331 0.157522 0.144566 0.9300 0.8500 0.7000
v 0.233331 0.157522 0.144566 0.9300 0.8500 0.7000
v 0.268381 0.075622 -0.137934 0.9300 0.8500 0.7000
v 0.268381 0.075622 -0.137934 0.9300 0.8500 0.7000
v 0.268381 0.075622 -0.137934 0.9300 0.8500 0.7000
v 0.268381 0.075622 0.144566 0.9300 0.8500 0.7000
v 0.268381 0.075622 0.144566 0.9300 0.8500 0.7000
v 0.268381 0.075622 0.144566 0.9300 0.8500 0.7000
v 0.268381 0.087322 -0.137934 0.9300 0.8500 0.7000
v 0.268381 0.087322 -0.137934 0.9300 0.8500 0.7000
v 0.268381 0.087322 -0.137934 0.9300 0.8500 0.7000
v 0.268381 0.087322 0.144566 0.9300 0.8500 0.7000
v 0.268381 0.087322 0.144566 0.9300 0.8500 0.7000
v 0.268381 0.087322 0.144566 0.9300 0.8500 0.7000
v 0.268381 0.145822 -0.137934 0.9300 0.8500 0.7000
v 0.268381 0.145822 -0.137934 0.9300 0.8500 0.7000
v 0.268381 0.145822 -0.137934 0.9300 0.8500 0.7000
v 0.268381 0.145822 0.144566 0.9300 0.8500 0.7000
v 0.268381 0.145822 0.144566 0.9300 0.8500 0.7000
v 0.268381 0.145822 0.144566 0.9300 0.8500 0.7000
v 0.268381 0.157522 -0.137934 0.9300 0.8500 0.7000
v 0.268381 0.157522 -0.137934 0.9300 0.8500 0.7000
v 0.268381 0.157522 -0.137934 0.9300 0.8500 0.7000
v 0.268381 0.157522 0.144566 0.9300 0.8500 0.7000
v 0.268381 0.157522 0.144566 0.9300 0.8500 0.7000
v 0.268381 0.157522 0.144566 0.9300 0.8500 0.7000
v 0.280081 0.087322 -0.137934 0.9300 0.8500 0.7000
v 0.280081 0.087322 -0.137934 0.9300 0.8500 0.7000
v 0.280081 0.087322 -0.137934 0.9300 0.8500 0.7000
v 0.280081 0.087322 0.144566 0.9300 0.8500 0.7000
v 0.280081 0.087322 0.144566 0.9300 0.8500 0.7000
v 0.280081 0.087322 0.144566 0.9300 0.8500 0.7000
v 0.280081 0.099022 -0.137934 0.9300 0.8500 0.7000
v 0.280081 0.099022 -0.137934 0.9300 0.8500 0.7000
v 0.280081 0.099022 -0.137934 0.9300 0.8500 0.7000
v 0.280081 0.099022 0.144566 0.9300 0.8500 0.7000
v 0.280081 0.099022 0.144566 0.9300 0.8500 0.7000
v 0.280081 0.099022 0.144566 0.9300 0.8500 0.7000
v 0.280081 0.134122 -0.137934 0.9300 0.8500 0.7000
v 0.280081 0.134122 -0.137934 0.9300 0.8500 0.7000
v 0.280081 0.134122 -0.137934 0.9300 0.8500 0.7000
v 0.280081 0.134122 0.144566 0.9300 0.8500 0.7000
v 0.280081 0.134122 0.144566 0.9300 0.8500 0.7000
v 0.280081 0.134122 0.144566 0.9300 0.8500 0.7000
v 0.280081 0.145822 -0.137934 0.9300 0.8500 0.7000
v 0.280081 0.145822 -0.137934 0.9300 0.8500 0.7000
v 0.280081 0.145822 -0.137934 0.9300 0.8500 0.7000
v 0.280081 0.145822 0.144566 0.9300 0.8500 0.7000
v 0.280081 0.145822 0.144566 0.9300 0.8500 0.7000
v 0.280081 0.145822 0.144566 0.9300 0.8500 0.7000
v 0.291781 0.099022 -0.137934 0.9300 0.8500 0.7000
v 0.291781 0.099022 -0.137934 0.9300 0.8500 0.7000
v 0.291781 0.099022 -0.137934 0.9300 0.8500 0.7000
v 0.291781 0.099022 0.144566 0.9300 0.8500 0.7000
v 0.291781 0.099022 0.144566 0.9300 0.8500 0.7000
v 0.291781 0.099022 0.144566 0.9300 0.8500 0.7000
v 0.291781 0.134122 -0.137934 0.9300 0.8500 0.7000
v 0.291781 0.134122 -0.137934 0.9300 0.8500 0.7000
v 0.291781 0.134122 -0.137934 0.9300 0.8500 0.7000
v 0.291781 0.134122 0.144566 0.9300 0.8500 0.7000
v 0.291781 0.134122 0.144566 0.9300 0.8500 0.7000
v 0.291781 0.134122 0.144566 0.9300 0.8500 0.7000
v 0.769731 0.099022 -0.137934 0.9300 0.8500 0.7000
v 0.769731 0.099022 -0.137934 0.9300 0.8500 0.7000
v 0.769731 0.099022 -0.137934 0.9300 0.8500 0.7000
v 0.769731 0.099022 0.144566 0.9300 0.8500 0.7000
v 0.769731 0.099022 0.144566 0.9300 0.8500 0.7000
v 0.769731 0.099022 0.144566 0.9300 0.8500 0.7000
v 0.769731 0.134122 -0.137934 0.9300 0.8500 0.7000
v 0.769731 0.134122 -0.137934 0.9300 0.8500 0.7000
v 0.769731 0.134122 -0.137934 0.9300 0.8500 0.7000
v 0.769731 0.134122 0.144566 0.9300 0.8500 0.7000
v 0.769731 0.134122 0.144566 0.9300 0.8500 0.7000
v 0.769731 0.134122 0.144566 0.9300 0.8500 0.7000
v 0.781431 0.087322 -0.137934 0.9300 0.8500 0.7000
v 0.781431 0.087322 -0.137934 0.9300 0.8500 0.7000
v 0.781431 0.087322 -0.137934 0.9300 0.8500 0.7000
v 0.781431 0.087322 0.144566 0.9300 0.8500 0.7000
v 0.781431 0.087322 0.144566 0.9300 0.8500 0.7000
v 0.781431 0.087322 0.144566 0.9300 0.8500 0.7000
v 0.781431 0.099022 -0.137934 0.9300 0.8500 0.7000
v 0.781431 0.099022 -0.137934 0.9300 0.8500 0.7000
v 0.781431 0.099022 -0.137934 0.9300 0.8500 0.7000
v 0.781431 0.099022 0.144566 0.9300 0.8500 0.7000
v 0.781431 0.099022 0.144566 0.9300 0.8500 0.7000
v 0.781431 0.099022 0.144566 0.9300 0.8500 0.7000
v 0.781431 0.134122 -0.137934 0.9300 0.8500 0.7000
v 0.781431 0.134122 -0.137934 0.9300 0.8500 0.7000
v 0.781431 0.134122 -0.137934 0.9300 0.8500 0.7000
v 0.781431 0.134122 0.144566 0.9300 0.8500 0.7000
v 0.781431 0.134122 0.144566 0.9300 0.8500 0.7000
v 0.781431 0.134122 0.144566 0.9300 0.8500 0.7000
v 0.781431 0.145822 -0.137934 0.9300 0.8500 0.7000
v 0.781431 0.145822 -0.137934 0.9300 0.8500 0.7000
v 0.781431 0.145822 -0.137934 0.9300 0.8500 0.7000
v 0.781431 0.145822 0.144566 0.9300 0.8500 0.7000
v 0.781431 0.145822 0.144566 0.9300 0.8500 0.7000
v 0.781431 0.145822 0.144566 0.9300 0.8500 0.7000
v 0.793131 0.075622 -0.137934 0.9300 0.8500 0.7000
v 0.793131 0.075622 -0.137934 0.9300 0.8500 0.7000
v 0.793131 0.075622 -0.137934 0.9300 0.8500 0.7000
v 0.793131 0.075622 0.144566 0.9300 0.8500 0.7000
v 0.793131 0.075622 0.144566 0.9300 0.8500 0.7000
v 0.793131 0.075622 0.144566 0.9300 0.8500 0.7000
v 0.793131 0.087322 -0.137934 0.9300 0.8500 0.7000
v 0.793131 0.087322 -0.137934 0.9300 0.8500 0.7000
v 0.793131 0.087322 -0.137934 0.9300 0.8500 0.7000
v 0.793131 0.087322 0.144566 0.9300 0.8500 0.7000
v 0.793131 0.087322 0.144566 0.9300 0.8500 0.7000
v 0.793131 0.087322 0.144566 0.9300 0.8500 0.7000
v 0.793131 0.145822 -0.137934 0.9300 0.8500 0.7000
v 0.793131 0.145822 -0.137934 0.9300 0.8500 0.7000
v 0.793131 0.145822 -0.137934 0.9300 0.8500 0.7000
v 0.793131 0.145822 0.144566 0.9300 0.8500 0.7000
v 0.793131 0.145822 0.144566 0.9300 0.8500 0.7000
v 0.793131 0.145822 0.144566 0.9300 0.8500 0.7000
v 0.793131 0.157522 -0.137934 0.9300 0.8500 0.7000
v 0.793131 0.157522 -0.137934 0.9300 0.8500 0.7000
v 0.793131 0.157522 -0.137934 0.9300 0.8500 0.7000
v 0.793131 0.157522 0.144566 0.9300 0.8500 0.7000
v 0.793131 0.157522 0.144566 0.9300 0.8500 0.7000
v 0.793131 0.157522 0.144566 0.9300 0.8500 0.7000
v 0.828181 0.075622 -0.137934 0.9300 0.8500 0.7000
v 0.828181 0.075622 -0.137934 0.9300 0.8500 0.7000
v 0.828181 0.075622 -0.137934 0.9300 0.8500 0.7000
v 0.828181 0.075622 0.144566 0.9300 0.8500 0.7000
v 0.828181 0.075622 0.144566 0.9300 0.8500 0.7000
v 0.828181 0.075622 0.144566 0.9300 0.8500 0.7000
v 0.828181 0.087322 -0.137934 0.9300 0.8500 0.7000
v 0.828181 0.087322 -0.137934 0.9300 0.8500 0.7000
v 0.828181 0.087322 -0.137934 0.9300 0.8500 0.7000
v 0.828181 0.087322 0.144566 0.9300 0.8500 0.7000
v 0.828181 0.087322 0.144566 0.9300 0.8500 0.7000
v 0.828181 0.087322 0.144566 0.9300 0.8500 0.7000
v 0.828181 0.145822 -0.137934 0.9300 0.8500 0.7000
v 0.828181 0.145822 -0.137934 0.9300 0.8500 0.7000
v 0.828181 0.145822 -0.137934 0.9300 0.8500 0.7000
v 0.828181 0.145822 0.144566 0.9300 0.8500 0.7000
v 0.828181 0.145822 0.144566 0.9300 0.8500 0.7000
v 0.828181 0.145822 0.144566 0.9300 0.8500 0.7000
v 0.828181 0.157522 -0.137934 0.9300 0.8500 0.7000
v 0.828181 0.157522 -0.137934 0.9300 0.8500 0.7000
v 0.828181 0.157522 -0.137934 0.9300 0.8500 0.7000
v 0.828181 0.157522 0.144566 0.9300 0.8500 0.7000
v 0.828181 0.157522 0.144566 0.9300 0.8500 0.7000
v 0.828181 0.157522 0.144566 0.9300 0.8500 0.7000
v 0.839881 0.087322 -0.137934 0.9300 0.8500 0.7000
v 0.839881 0.087322 -0.137934 0.9300 0.8500 0.7000
v 0.839881 0.087322 -0.137934 0.9300 0.8500 0.7000
v 0.839881 0.087322 0.144566 0.9300 0.8500 0.7000
v 0.839881 0.087322 0.144566 0.9300 0.8500 0.7000
v 0.839881 0.087322 0.144566 0.9300 0.8500 0.7000
v 0.839881 0.099022 -0.137934 0.9300 0.8500 0.7000
v 0.839881 0.099022 -0.137934 0.9300 0.8500 0.7000
v 0.839881 0.099022 -0.137934 0.9300 0.8500 0.7000
v 0.839881 0.099022 0.144566 0.9300 0.8500 0.7000
v 0.839881 0.099022 0.144566 0.9300 0.8500 0.7000
v 0.839881 0.099022 0.144566 0.9300 0.8500 0.7000
v 0.839881 0.134122 -0.137934 0.9300 0.8500 0.7000
v 0.839881 0.134122 -0.137934 0.9300 0.8500 0.7000
v 0.839881 0.134122 -0.137934 0.9300 0.8500 0.7000
v 0.839881 0.134122 0.144566 0.9300 0.8500 0.7000
v 0.839881 0.134122 0.144566 0.9300 0.8500 0.7000
v 0.839881 0.134122 0.144566 0.9300 0.8500 0.7000
v 0.839881 0.145822 -0.137934 0.9300 0.8500 0.7000
v 0.839881 0.145822 -0.137934 0.9300 0.8500 0.7000
v 0.839881 0.145822 -0.137934 0.9300 0.8500 0.7000
v 0.839881 0.145822 0.144566 0.9300 0.8500 0.7000
v 0.839881 0.145822 0.144566 0.9300 0.8500 0.7000
v 0.839881 0.145822 0.144566 0.9300 0.8500 0.7000
v 0.851581 0.099022 -0.137934 0.9300 0.8500 0.7000
v 0.851581 0.099022 -0.137934 0.9300 0.8500 0.7000
v 0.851581 0.099022 -0.137934 0.9300 0.8500 0.7000
v 0.851581 0.099022 0.144566 0.9300 0.8500 0.7000
v 0.851581 0.099022 0.144566 0.9300 0.8500 0.7000
v 0.851581 0.099022 0.144566 0.9300 0.8500 0.7000
v 0.851581 0.134122 -0.137934 0.9300 0.8500 0.7000
v 0.851581 0.134122 -0.137934 0.9300 0.8500 0.7000
v 0.851581 0.134122 -0.137934 0.9300 0.8500 0.7000
v 0.851581 0.134122 0.144566 0.9300 0.8500 0.7000
v 0.851581 0.134122 0.144566 0.9300 0.8500 0.7000
v 0.851581 0.134122 0.144566 0.9300 0.8500 0.7000
v 1.008481 -0.200643 -0.137934 0.9300 0.8500 0.7000
v 1.008481 -0.200643 -0.137934 0.9300 0.8500 0.7000
v 1.008481 -0.200643 -0.137934 0.9300 0.8500 0.7000
v 1.008481 -0.200643 0.144566 0.9300 0.8500 0.7000
v 1.008481 -0.200643 0.144566 0.9300 0.8500 0.7000
v 1.008481 -0.200643 0.144566 0.9300 0.8500 0.7000
v 1.008481 -0.165543 -0.137934 0.9300 0.8500 0.7000
v 1.008481 -0.165543 -0.137934 0.9300 0.8500 0.7000
v 1.008481 -0.165543 -0.137934 0.9300 0.8500 0.7000
v 1.008481 -0.165543 0.144566 0.9300 0.8500 0.7000
v 1.008481 -0.165543 0.144566 0.9300 0.8500 0.7000
v 1.008481 -0.165543 0.144566 0.9300 0.8500 0.7000
v 1.020181 -0.212343 -0.137934 0.9300 0.8500 0.7000
v 1.020181 -0.212343 -0.137934 0.9300 0.8500 0.7000
v 1.020181 -0.212343 -0.137934 0.9300 0.8500 0.7000
v 1.020181 -0.212343 0.144566 0.9300 0.8500 0.7000
v 1.020181 -0.212343 0.144566 0.9300 0.8500 0.7000
v 1.020181 -0.212343 0.144566 0.9300 0.8500 0.7000
v 1.020181 -0.200643 -0.137934 0.9300 0.8500 0.7000
v 1.020181 -0.200643 -0.137934 0.9300 0.8500 0.7000
v 1.020181 -0.200643 -0.137934 0.9300 0.8500 0.7000
v 1.020181 -0.200643 0.144566 0.9300 0.8500 0.7000
v 1.020181 -0.200643 0.144566 0.9300 0.8500 0.7000
v 1.020181 -0.200643 0.144566 0.9300 0.8500 0.7000
v 1.020181 -0.165543 -0.137934 0.9300 0.8500 0.7000
v 1.020181 -0.165543 -0.137934 0.9300 0.8500 0.7000
v 1.020181 -0.165543 -0.137934 0.9300 0.8500 0.7000
v 1.020181 -0.165543 0.144566 0.9300 0.8500 0.7000
v 1.020181 -0.165543 0.144566 0.9300 0.8500 0.7000
v 1.020181 -0.165543 0.144566 0.9300 0.8500 0.7000
v 1.020181 -0.153843 -0.137934 0.9300 0.8500 0.7000
v 1.020181 -0.153843 -0.137934 0.9300 0.8500 0.7000
v 1.020181 -0.153843 -0.137934 0.9300 0.8500 0.7000
v 1.020181 -0.153843 0.144566 0.9300 0.8500 0.7000
v 1.020181 -0.153843 0.144566 0.9300 0.8500 0.7000
v 1.020181 -0.153843 0.144566 0.9300 0.8500 0.7000
v 1.031881 -0.224043 -0.137934 0.9300 0.8500 0.7000
v 1.031881 -0.224043 -0.137934 0.9300 0.8500 0.7000
v 1.031881 -0.224043 -0.137934 0.9300 0.8500 0.7000
v 1.031881 -0.224043 0.144566 0.9300 0.8500 0.7000
v 1.031881 -0.224043 0.144566 0.9300 0.8500 0.7000
v 1.031881 -0.224043 0.144566 0.9300 0.8500 0.7000
v 1.031881 -0.212343 -0.137934 0.9300 0.8500 0.7000
v 1.031881 -0.212343 -0.137934 0.9300 0.8500 0.7000
v 1.031881 -0.212343 -0.137934 0.9300 0.8500 0.7000
v 1.031881 -0.212343 0.144566 0.9300 0.8500 0.7000
v 1.031881 -0.212343 0.144566 0.9300 0.8500 0.7000
v 1.031881 -0.212343 0.144566 0.9300 0.8500 0.7000
v 1.031881 -0.153843 -0.137934 0.9300 0.8500 0.7000
v 1.031881 -0.153843 -0.137934 0.9300 0.8500 0.7000
v 1.031881 -0.153843 -0.137934 0.9300 0.8500 0.7000
v 1.031881 -0.153843 0.144566 0.9300 0.8500 0.7000
v 1.031881 -0.153843 0.144566 0.9300 0.8500 0.7000
v 1.031881 -0.153843 0.144566 0.9300 0.8500 0.7000
v 1.031881 -0.142143 -0.137934 0.9300 0.8500 0.7000
v 1.031881 -0.142143 -0.137934 0.9300 0.8500 0.7000
v 1.031881 -0.142143 -0.137934 0.9300 0.8500 0.7000
v 1.031881 -0.142143 0.144566 0.9300 0.8500 0.7000
v 1.031881 -0.142143 0.144566 0.9300 0.8500 0.7000
v 1.031881 -0.142143 0.144566 0.9300 0.8500 0.7000
v 1.066981 -0.224043 -0.137934 0.9300 0.8500 0.7000
v 1.066981 -0.224043 -0.137934 0.9300 0.8500 0.7000
v 1.066981 -0.224043 -0.137934 0.9300 0.8500 0.7000
v 1.066981 -0.224043 0.144566 0.9300 0.8500 0.7000
v 1.066981 -0.224043 0.144566 0.9300 0.8500 0.7000
v 1.066981 -0.224043 0.144566 0.9300 0.8500 0.7000
v 1.066981 -0.212343 -0.137934 0.9300 0.8500 0.7000
v 1.066981 -0.212343 -0.137934 0.9300 0.8500 0.7000
v 1.066981 -0.212343 -0.137934 0.9300 0.8500 0.7000
v 1.066981 -0.212343 0.144566 0.9300 0.8500 0.7000
v 1.066981 -0.212343 0.144566 0.9300 0.8500 0.7000
v 1.066981 -0.212343 0.144566 0.9300 0.8500 0.7000
v 1.066981 -0.153843 -0.137934 0.9300 0.8500 0.7000
v 1.066981 -0.153843 -0.137934 0.9300 0.8500 0.7000
v 1.066981 -0.153843 -0.137934 0.9300 0.8500 0.7000
v 1.066981 -0.153843 0.144566 0.9300 0.8500 0.7000
v 1.066981 -0.153843 0.144566 0.9300 0.8500 0.7000
v 1.066981 -0.153843 0.144566 0.9300 0.8500 0.7000
v 1.066981 -0.142143 -0.137934 0.9300 0.8500 0.7000
v 1.066981 -0.142143 -0.137934 0.9300 0.8500 0.7000
v 1.066981 -0.142143 -0.137934 0.9300 0.8500 0.7000
v 1.066981 -0.142143 0.144566 0.9300 0.8500 0.7000
v 1.066981 -0.142143 0.144566 0.9300 0.8500 0.7000
v 1.066981 -0.142143 0.144566 0.9300 0.8500 0.7000
v 1.078681 -0.212343 -0.137934 0.9300 0.8500 0.7000
v 1.078681 -0.212343 -0.137934 0.9300 0.8500 0.7000
v 1.078681 -0.212343 -0.137934 0.9300 0.8500 0.7000
v 1.078681 -0.212343 0.144566 0.9300 0.8500 0.7000
v 1.078681 -0.212343 0.144566 0.9300 0.8500 0.7000
v 1.078681 -0.212343 0.144566 0.9300 0.8500 0.7000
v 1.078681 -0.200643 -0.137934 0.9300 0.8500 0.7000
v 1.078681 -0.200643 -0.137934 0.9300 0.8500 0.7000
v 1.078681 -0.200643 -0.137934 0.9300 0.8500 0.7000
v 1.078681 -0.200643 0.144566 0.9300 0.8500 0.7000
v 1.078681 -0.200643 0.144566 0.9300 0.8500 0.7000
v 1.078681 -0.200643 0.144566 0.9300 0.8500 0.7000
v 1.078681 -0.165543 -0.137934 0.9300 0.8500 0.7000
v 1.078681 -0.165543 -0.137934 0.9300 0.8500 0.7000
v 1.078681 -0.165543 -0.137934 0.9300 0.8500 0.7000
v 1.078681 -0.165543 0.144566 0.9300 0.8500 0.7000
v 1.078681 -0.165543 0.144566 0.9300 0.8500 0.7000
v 1.078681 -0.165543 0.144566 0.9300 0.8500 0.7000
v 1.078681 -0.153843 -0.137934 0.9300 0.8500 0.7000
v 1.078681 -0.153843 -0.137934 0.9300 0.8500 0.7000
v 1.078681 -0.153843 -0.137934 0.9300 0.8500 0.7000
v 1.078681 -0.153843 0.144566 0.9300 0.8500 0.7000
v 1.078681 -0.153843 0.144566 0.9300 0.8500 0.7000
v 1.078681 -0.153843 0.144566 0.9300 0.8500 0.7000
v 1.090381 -0.200643 -0.137934 0.9300 0.8500 0.7000
v 1.090381 -0.200643 -0.137934 0.9300 0.8500 0.7000
v 1.090381 -0.200643 -0.137934 0.9300 0.8500 0.7000
v 1.090381 -0.200643 0.144566 0.9300 0.8500 0.7000
v 1.090381 -0.200643 0.144566 0.9300 0.8500 0.7000
v 1.090381 -0.200643 0.144566 0.9300 0.8500 0.7000
v 1.090381 -0.165543 -0.137934 0.9300 0.8500 0.7000
v 1.090381 -0.165543 -0.137934 0.9300 0.8500 0.7000
v 1.090381 -0.165543 -0.137934 0.9300 0.8500 0.7000
v 1.090381 -0.165543 0.144566 0.9300 0.8500 0.7000
v 1.090381 -0.165543 0.144566 0.9300 0.8500 0.7000
v 1.090381 -0.165543 0.144566 0.9300 0.8500 0.7000
vn -1.00000 0.00000 0.00000
vn 0.00000 -1.00000 0.00000
vn 0.00000 0.00000 -1.00000
vn -1.00000 0.00000 0.00000
vn 0.00000 -1.00000 0.00000
vn 0.00000 0.00000 1.00000
vn -1.00000 0.00000 0.00000
vn 0.00000 0.00000 -1.00000
vn 0.00000 1.00000 0.00000
vn -1.00000 0.00000 0.00000
vn 0.00000 0.00000 1.00000
vn 0.00000 1.00000 0.00000
vn -1.00000 0.00000 0.00000
vn 0.00000 -1.00000 0.00000
vn 0.00000 0.00000 -1.00000
vn -1.00000 0.00000 0.00000
vn 0.00000 -1.00000 0.00000
vn 0.00000 0.00000 1.00000
vn -1.00000 0.00000 0.00000
vn 0.00000 -1.00000 0.00000
vn 0.00000 0.00000 -1.00000
vn -1.00000 0.00000 0.00000
vn 0.00000 -1.00000 0.00000
vn 0.00000 0.00000 1.00000
vn -1.00000 0.00000 0.00000
vn 0.00000 0.00000 -1.00000
vn 0.00000 1.00000 0.00000
vn -1.00000 0.00000 0.00000
vn 0.00000 0.00000 1.00000
vn 0.00000 1.00000 0.00000
vn -1.00000 0.00000 0.00000
vn 0.00000 0.00000 -1.00000
vn 0.00000 1.00000 0.00000
vn -1.00000 0.00000 0.00000
vn 0.00000 0.00000 1.00000
vn 0.00000 1.00000 0.00000
vn -1.00000 0.00000 0.00000
vn 0.00000 -1.00000 0.00000
vn 0.00000 0.00000 -1.00000
vn -1.00000 0.00000 0.00000
vn 0.00000 -1.00000 0.00000
vn 0.00000 0.00000 1.00000
vn -1.00000 0.00000 0.00000
vn 0.00000 -1.00000 0.00000
vn 0.00000 0.00000 -1.00000
vn -1.00000 0.00000 0.00000
vn 0.00000 -1.00000 0.00000
vn 0.00000 0.00000 1.00000
vn -1.00000 0.00000 0.00000
vn 0.00000 0.00000 -1.00000
vn 0.00000 1.00000 0.00000
vn -1.00000 0.00000 0.00000
vn 0.00000 0.00000 1.00000
vn 0.00000 1.00000 0.00000
vn -1.00000 0.00000 0.00000
vn 0.00000 0.00000 -1.00000
vn 0.00000 1.00000 0.00000
vn -1.00000 0.00000 0.00000
vn 0.00000 0.00000 1.00000
vn 0.00000 1.00000 0.00000
vn 0.00000 -1.00000 0.00000
vn 0.00000 0.00000 -1.00000
vn 1.00000 0.00000 0.00000
vn 0.00000 -1.00000 0.00000
vn 0.00000 0.00000 1.00000
vn 1.00000 0.00000 0.00000
vn 0.00000 -1.00000 0.00000
vn 0.00000 0.00000 -1.00000
vn 1.00000 0.00000 0.00000
vn 0.00000 -1.00000 0.00000
vn 0.00000 0.00000 1.00000
vn 1.00000 0.00000 0.00000
vn 0.00000 0.00000 -1.00000
vn 0.00000 1.00000 0.00000
vn 1.00000 0.00000 0.00000
vn 0.00000 0.00000 1.00000
vn 0.00000 1.00000 0.00000
vn 1.00000 0.00000 0.00000
vn 0.00000 0.00000 -1.00000
vn 0.00000 1.00000 0.00000
vn 1.00000 0.00000 0.00000
vn 0.00000 0.00000 1.00000
vn 0.00000 1.00000 0.00000
vn 1.00000 0.00000 0.00000
vn 0.00000 -1.00000 0.00000
vn 0.00000 0.00000 -1.00000
vn 1.00000 0.00000 0.00000
vn 0.00000 -1.00000 0.00000
vn 0.00000 0.00000 1.00000
vn 1.00000 0.00000 0.00000
vn 0.00000 -1.00000 0.00000
vn 0.00000 0.00000 -1.00000
vn 1.00000 0.00000 0.00000
vn 0.00000 -1.00000 0.00000
vn 0.00000 0.00000 1.00000
vn 1.00000 0.00000 0.00000
vn 0.00000 0.00000 -1.00000
vn 0.00000 1.00000 0.00000
vn 1.00000 0.00000 0.00000
vn 0.00000 0.00000 1.00000
vn 0.00000 1.00000 0.00000
vn 1.00000 0.00000 0.00000
vn 0.00000 0.00000 -1.00000
vn 0.00000 1.00000 0.00000
vn 1.00000 0.00000 0.00000
vn 0.00000 0.00000 1.00000
vn 0.00000 1.00000 0.00000
vn 1.00000 0.00000 0.00000
vn 0.00000 -1.00000 0.00000
vn 0.00000 0.00000 -1.00000
vn 1.00000 0.00000 0.00000
vn 0.00000 -1.00000 0.00000
vn 0.00000 0.00000 1.00000
vn 1.00000 0.00000 0.00000
vn 0.00000 0.00000 -1.00000
vn 0.00000 1.00000 0.00000
vn 1.00000 0.00000 0.00000
vn 0.00000 0.00000 1.00000
vn 0.00000 1.00000 0.00000
vn 1.00000 0.00000 0.00000
vn -1.00000 0.00000 0.00000
vn 0.00000 -1.00000 0.00000
vn 0.00000 0.00000 -1.00000
vn -1.00000 0.00000 0.00000
vn 0.00000 -1.00000 0.00000
vn 0.00000 0.00000 1.00000
vn -1.00000 0.00000 0.00000
vn 0.00000 0.00000 -1.00000
vn 0.00000 1.00000 0.00000
vn -1.00000 0.00000 0.00000
vn 0.00000 0.00000 1.00000
vn 0.00000 1.00000 0.00000
vn -1.00000 0.00000 0.00000
vn 0.00000 -1.00000 0.00000
vn 0.00000 0.00000 -1.00000
vn -1.00000 0.00000 0.00000
vn 0.00000 -1.00000 0.00000
vn 0.00000 0.00000 1.00000
vn -1.00000 0.00000 0.00000
vn 0.00000 -1.00000 0.00000
vn 0.00000 0.00000 -1.00000
vn -1.00000 0.00000 0.00000
vn 0.00000 -1.00000 0.00000
vn 0.00000 0.00000 1.00000
vn -1.00000 0.00000 0.00000
vn 0.00000 0.00000 -1.00000
vn 0.00000 1.00000 0.00000
vn -1.00000 0.00000 0.00000
vn 0.00000 0.00000 1.00000
vn 0.00000 1.00000 0.00000
vn -1.00000 0.00000 0.00000
vn 0.00000 0.00000 -1.00000
vn 0.00000 1.00000 0.00000
vn -1.00000 0.00000 0.00000
vn 0.00000 0.00000 1.00000
vn 0.00000 1.00000 0.00000
vn -1.00000 0.00000 0.00000
vn 0.00000 -1.00000 0.00000
vn 0.00000 0.00000 -1.00000
vn -1.00000 0.00000 0.00000
vn 0.00000 -1.00000 0.00000
vn 0.00000 0.00000 1.00000
vn -1.00000 0.00000 0.00000
vn 0.00000 -1.00000 0.00000
vn 0.00000 0.00000 -1.00000
vn -1.00000 0.00000 0.00000
vn 0.00000 -1.00000 0.00000
vn 0.00000 0.00000 1.00000
vn -1.00000 0.00000 0.00000
vn 0.00000 0.00000 -1.00000
vn 0.00000 1.00000 0.00000
vn -1.00000 0.00000 0.00000
vn 0.00000 0.00000 1.00000
vn 0.00000 1.00000 0.00000
vn -1.00000 0.00000 0.00000
vn 0.00000 0.00000 -1.00000
vn 0.00000 1.00000 0.00000
vn -1.00000 0.00000 0.00000
vn 0.00000 0.00000 1.00000
vn 0.00000 1.00000 0.00000
vn 0.00000 -1.00000 0.00000
vn 0.00000 0.00000 -1.00000
vn 1.00000 0.00000 0.00000
vn 0.00000 -1.00000 0.00000
vn 0.00000 0.00000 1.00000
vn 1.00000 0.00000 0.00000
vn 0.00000 -1.00000 0.00000
vn 0.00000 0.00000 -1.00000
vn 1.00000 0.00000 0.00000
vn 0.00000 -1.00000 0.00000
vn 0.00000 0.00000 1.00000
vn 1.00000 0.00000 0.00000
vn 0.00000 0.00000 -1.00000
vn 0.00000 1.00000 0.00000
vn 1.00000 0.00000 0.00000
vn 0.00000 0.00000 1.00000
vn 0.00000 1.00000 0.00000
vn 1.00000 0.00000 0.00000
vn 0.00000 0.00000 -1.00000
vn 0.00000 1.00000 0.00000
vn 1.00000 0.00000 0.00000
vn 0.00000 0.00000 1.00000
vn 0.00000 1.00000 0.00000
vn 1.00000 0.00000 0.00000
vn 0.00000 -1.00000 0.00000
vn 0.00000 0.00000 -1.00000
vn 1.00000 0.00000 0.00000
vn 0.00000 -1.00000 0.00000
vn 0.00000 0.00000 1.00000
vn 1.00000 0.00000 0.00000
vn 0.00000 -1.00000 0.00000
vn 0.00000 0.00000 -1.00000
vn 1.00000 0.00000 0.00000
vn 0.00000 -1.00000 0.00000
vn 0.00000 0.00000 1.00000
vn 1.00000 0.00000 0.00000
vn 0.00000 0.00000 -1.00000
vn 0.00000 1.00000 0.00000
vn 1.00000 0.00000 0.00000
vn 0.00000 0.00000 1.00000
vn 0.00000 1.00000 0.00000
vn 1.00000 0.00000 0.00000
vn 0.00000 0.00000 -1.00000
vn 0.00000 1.00000 0.00000
vn 1.00000 0.00000 0.00000
vn 0.00000 0.00000 1.00000
vn 0.00000 1.00000 0.00000
vn 1.00000 0.00000 0.00000
vn 0.00000 -1.00000 0.00000
vn 0.00000 0.00000 -1.00000
vn 1.00000 0.00000 0.00000
vn 0.00000 -1.00000 0.00000
vn 0.00000 0.00000 1.00000
vn 1.00000 0.00000 0.00000
vn 0.00000 0.00000 -1.00000
vn 0.00000 1.00000 0.00000
vn 1.00000 0.00000 0.00000
vn 0.00000 0.00000 1.00000
vn 0.00000 1.00000 0.00000
vn 1.00000 0.00000 0.00000
vn -1.00000 0.00000 0.00000
vn 0.00000 -1.00000 0.00000
vn 0.00000 0.00000 -1.00000
vn -1.00000 0.00000 0.00000
vn 0.00000 -1.00000 0.00000
vn 0.00000 0.00000 1.00000
vn -1.00000 0.00000 0.00000
vn 0.00000 0.00000 -1.00000
vn 0.00000 1.00000 0.00000
vn -1.00000 0.00000 0.00000
vn 0.00000 0.00000 1.00000
vn 0.00000 1.00000 0.00000
vn -1.00000 0.00000 0.00000
vn 0.00000 -1.00000 0.00000
vn 0.00000 0.00000 -1.00000
vn -1.00000 0.00000 0.00000
vn 0.00000 -1.00000 0.00000
vn 0.00000 0.00000 1.00000
vn -1.00000 0.00000 0.00000
vn 0.00000 -1.00000 0.00000
vn 0.00000 0.00000 -1.00000
vn -1.00000 0.00000 0.00000
vn 0.00000 -1.00000 0.00000
vn 0.00000 0.00000 1.00000
vn -1.00000 0.00000 0.00000
vn 0.00000 0.00000 -1.00000
vn 0.00000 1.00000 0.00000
vn -1.00000 0.00000 0.00000
vn 0.00000 0.00000 1.00000
vn 0.00000 1.00000 0.00000
vn -1.00000 0.00000 0.00000
vn 0.00000 0.00000 -1.00000
vn 0.00000 1.00000 0.00000
vn -1.00000 0.00000 0.00000
vn 0.00000 0.00000 1.00000
vn 0.00000 1.00000 0.00000
vn -1.00000 0.00000 0.00000
vn 0.00000 -1.00000 0.00000
vn 0.00000 0.00000 -1.00000
vn -1.00000 0.00000 0.00000
vn 0.00000 -1.00000 0.00000
vn 0.00000 0.00000 1.00000
vn -1.00000 0.00000 0.00000
vn 0.00000 -1.00000 0.00000
vn 0.00000 0.00000 -1.00000
vn -1.00000 0.00000 0.00000
vn 0.00000 -1.00000 0.00000
vn 0.00000 0.00000 1.00000
vn -1.00000 0.00000 0.00000
vn 0.00000 0.00000 -1.00000
vn 0.00000 1.00000 0.00000
vn -1.00000 0.00000 0.00000
vn 0.00000 0.00000 1.00000
vn 0.00000 1.00000 0.00000
vn -1.00000 0.00000 0.00000
vn 0.00000 0.00000 -1.00000
vn 0.00000 1.00000 0.00000
vn -1.00000 0.00000 0.00000
vn 0.00000 0.00000 1.00000
vn 0.00000 1.00000 0.00000
vn 0.00000 -1.00000 0.00000
vn 0.00000 0.00000 -1.00000
vn 1.00000 0.00000 0.00000
vn 0.00000 -1.00000 0.00000
vn 0.00000 0.00000 1.00000
vn 1.00000 0.00000 0.00000
vn 0.00000 -1.00000 0.00000
vn 0.00000 0.00000 -1.00000
vn 1.00000 0.00000 0.00000
vn 0.00000 -1.00000 0.00000
vn 0.00000 0.00000 1.00000
vn 1.00000 0.00000 0.00000
vn 0.00000 0.00000 -1.00000
vn 0.00000 1.00000 0.00000
vn 1.00000 0.00000 0.00000
vn 0.00000 0.00000 1.00000
vn 0.00000 1.00000 0.00000
vn 1.00000 0.00000 0.00000
vn 0.00000 0.00000 -1.00000
vn 0.00000 1.00000 0.00000
vn 1.00000 0.00000 0.00000
vn 0.00000 0.00000 1.00000
vn 0.00000 1.00000 0.00000
vn 1.00000 0.00000 0.00000
vn 0.00000 -1.00000 0.00000
vn 0.00000 0.00000 -1.00000
vn 1.00000 0.00000 0.00000
vn 0.00000 -1.00000 0.00000
vn 0.00000 0.00000 1.00000
vn 1.00000 0.00000 0.00000
vn 0.00000 -1.00000 0.00000
vn 0.00000 0.00000 -1.00000
vn 1.00000 0.00000 0.00000
vn 0.00000 -1.00000 0.00000
vn 0.00000 0.00000 1.00000
vn 1.00000 0.00000 0.00000
vn 0.00000 0.00000 -1.00000
vn 0.00000 1.00000 0.00000
vn 1.00000 0.00000 0.00000
vn 0.00000 0.00000 1.00000
vn 0.00000 1.00000 0.00000
vn 1.00000 0.00000 0.00000
vn 0.00000 0.00000 -1.00000
vn 0.00000 1.00000 0.00000
vn 1.00000 0.00000 0.00000
vn 0.00000 0.00000 1.00000
vn 0.00000 1.00000 0.00000
vn 1.00000 0.00000 0.00000
vn 0.00000 -1.00000 0.00000
vn 0.00000 0.00000 -1.00000
vn 1.00000 0.00000 0.00000
vn 0.00000 -1.00000 0.00000
vn 0.00000 0.00000 1.00000
vn 1.00000 0.00000 0.00000
vn 0.00000 0.00000 -1.00000
vn 0.00000 1.00000 0.00000
vn 1.00000 0.00000 0.00000
vn 0.00000 0.00000 1.00000
vn 0.00000 1.00000 0.00000
vn 1.00000 0.00000 0.00000
vn -1.00000 0.00000 0.00000
vn 0.00000 -1.00000 0.00000
vn 0.00000 0.00000 -1.00000
vn -1.00000 0.00000 0.00000
vn 0.00000 -1.00000 0.00000
vn 0.00000 0.00000 1.00000
vn -1.00000 0.00000 0.00000
vn 0.00000 0.00000 -1.00000
vn 0.00000 1.00000 0.00000
vn -1.00000 0.00000 0.00000
vn 0.00000 0.00000 1.00000
vn 0.00000 1.00000 0.00000
vn -1.00000 0.00000 0.00000
vn 0.00000 -1.00000 0.00000
vn 0.00000 0.00000 -1.00000
vn -1.00000 0.00000 0.00000
vn 0.00000 -1.00000 0.00000
vn 0.00000 0.00000 1.00000
vn -1.00000 0.00000 0.00000
vn 0.00000 -1.00000 0.00000
vn 0.00000 0.00000 -1.00000
vn -1.00000 0.00000 0.00000
vn 0.00000 -1.00000 0.00000
vn 0.00000 0.00000 1.00000
vn -1.00000 0.00000 0.00000
vn 0.00000 0.00000 -1.00000
vn 0.00000 1.00000 0.00000
vn -1.00000 0.00000 0.00000
vn 0.00000 0.00000 1.00000
vn 0.00000 1.00000 0.00000
vn -1.00000 0.00000 0.00000
vn 0.00000 0.00000 -1.00000
vn 0.00000 1.00000 0.00000
vn -1.00000 0.00000 0.00000
vn 0.00000 0.00000 1.00000
vn 0.00000 1.00000 0.00000
vn -1.00000 0.00000 0.00000
vn 0.00000 -1.00000 0.00000
vn 0.00000 0.00000 -1.00000
vn -1.00000 0.00000 0.00000
vn 0.00000 -1.00000 0.00000
vn 0.00000 0.00000 1.00000
vn -1.00000 0.00000 0.00000
vn 0.00000 -1.00000 0.00000
vn 0.00000 0.00000 -1.00000
vn -1.00000 0.00000 0.00000
vn 0.00000 -1.00000 0.00000
vn 0.00000 0.00000 1.00000
vn -1.00000 0.00000 0.00000
vn 0.00000 0.00000 -1.00000
vn 0.00000 1.00000 0.00000
vn -1.00000 0.00000 0.00000
vn 0.00000 0.00000 1.00000
vn 0.00000 1.00000 0.00000
vn -1.00000 0.00000 0.00000
vn 0.00000 0.00000 -1.00000
vn 0.00000 1.00000 0.00000
vn -1.00000 0.00000 0.00000
vn 0.00000 0.00000 1.00000
vn 0.00000 1.00000 0.00000
vn 0.00000 -1.00000 0.00000
vn 0.00000 0.00000 -1.00000
vn 1.00000 0.00000 0.00000
vn 0.00000 -1.00000 0.00000
vn 0.00000 0.00000 1.00000
vn 1.00000 0.00000 0.00000
vn 0.00000 -1.00000 0.00000
vn 0.00000 0.00000 -1.00000
vn 1.00000 0.00000 0.00000
vn 0.00000 -1.00000 0.00000
vn 0.00000 0.00000 1.00000
vn 1.00000 0.00000 0.00000
vn 0.00000 0.00000 -1.00000
vn 0.00000 1.00000 0.00000
vn 1.00000 0.00000 0.00000
vn 0.00000 0.00000 1.00000
vn 0.00000 1.00000 0.00000
vn 1.00000 0.00000 0.00000
vn 0.00000 0.00000 -1.00000
vn 0.00000 1.00000 0.00000
vn 1.00000 0.00000 0.00000
vn 0.00000 0.00000 1.00000
vn 0.00000 1.00000 0.00000
vn 1.00000 0.00000 0.00000
vn 0.00000 -1.00000 0.00000
vn 0.00000 0.00000 -1.00000
vn 1.00000 0.00000 0.00000
vn 0.00000 -1.00000 0.00000
vn 0.00000 0.00000 1.00000
vn 1.00000 0.00000 0.00000
vn 0.00000 -1.00000 0.00000
vn 0.00000 0.00000 -1.00000
vn 1.00000 0.00000 0.00000
vn 0.00000 -1.00000 0.00000
vn 0.00000 0.00000 1.00000
vn 1.00000 0.00000 0.00000
vn 0.00000 0.00000 -1.00000
vn 0.00000 1.00000 0.00000
vn 1.00000 0.00000 0.00000
vn 0.00000 0.00000 1.00000
vn 0.00000 1.00000 0.00000
vn 1.00000 0.00000 0.00000
vn 0.00000 0.00000 -1.00000
vn 0.00000 1.00000 0.00000
vn 1.00000 0.00000 0.00000
vn 0.00000 0.00000 1.00000
vn 0.00000 1.00000 0.00000
vn 1.00000 0.00000 0.00000
vn 0.00000 -1.00000 0.00000
vn 0.00000 0.00000 -1.00000
vn 1.00000 0.00000 0.00000
vn 0.00000 -1.00000 0.00000
vn 0.00000 0.00000 1.00000
vn 1.00000 0.00000 0.00000
vn 0.00000 0.00000 -1.00000
vn 0.00000 1.00000 0.00000
vn 1.00000 0.00000 0.00000
vn 0.00000 0.00000 1.00000
vn 0.00000 1.00000 0.00000
vn 1.00000 0.00000 0.00000
f 477//477 474//474 471//471
f 474//474 477//477 480//480
f 465//465 462//462 459//459
f 462//462 465//465 468//468
f 456//456 447//447 453//453
f 447//447 456//456 450//450
f 444//444 435//435 441//441
f 435//435 444//444 438//438
f 429//429 426//426 423//423
f 426//426 429//429 432//432
f 357//357 354//354 351//351
f 354//354 357//357 360//360
f 345//345 342//342 339//339
f 342//342 345//345 348//348
f 336//336 327//327 333//333
f 327//327 336//336 330//330
f 324//324 315//315 321//321
f 315//315 324//324 318//318
f 309//309 306//306 303//303
f 306//306 309//309 312//312
f 237//237 234//234 231//231
f 234//234 237//237 240//240
f 225//225 222//222 219//219
f 222//222 225//225 228//228
f 216//216 207//207 213//213
f 207//207 216//216 210//210
f 204//204 195//195 201//201
f 195//195 204//204 198//198
f 189//189 186//186 183//183
f 186//186 189//189 192//192
f 117//117 114//114 111//111
f 114//114 117//117 120//120
f 105//105 102//102 99//99
f 102//102 105//105 108//108
f 93//93 96//96 87//87
f 87//87 96//96 90//90
f 84//84 75//75 81//81
f 75//75 84//84 78//78
f 69//69 66//66 63//63
f 66//66 69//69 72//72
f 57//57 83//83 80//80
f 83//83 57//57 60//60
f 33//33 36//36 51//51
f 51//51 36//36 54//54
f 107//107 104//104 74//74
f 74//74 77//77 107//107
f 30//30 27//27 9//9
f 9//9 12//12 30//30
f 119//119 116//116 98//98
f 98//98 101//101 119//119
f 297//297 323//323 320//320
f 323//323 297//297 300//300
f 177//177 203//203 200//200
f 203//203 177//177 180//180
f 273//273 276//276 291//291
f 291//291 276//276 294//294
f 347//347 344//344 314//314
f 314//314 317//317 347//347
f 153//153 156//156 171//171
f 171//171 156//156 174//174
f 227//227 224//224 194//194
f 194//194 197//197 227//227
f 270//270 267//267 249//249
f 249//249 252//252 270//270
f 359//359 356//356 338//338
f 338//338 341//341 359//359
f 150//150 147//147 129//129
f 129//129 132//132 150//150
f 239//239 236//236 218//218
f 218//218 221//221 239//239
f 417//417 443//443 440//440
f 443//443 417//417 420//420
f 393//393 396//396 411//411
f 411//411 396//396 414//414
f 467//467 464//464 434//434
f 434//434 437//437 467//467
f 390//390 387//387 369//369
f 369//369 372//372 390//390
f 479//479 476//476 458//458
f 458//458 461//461 479//479
f 269//269 311//311 340//340
f 282//282 305//305 311//311
f 282//282 311//311 288//288
f 269//269 288//288 311//311
f 288//288 269//269 264//264
f 264//264 258//258 288//288
f 264//264 269//269 251//251
f 251//251 246//246 264//264
f 311//311 329//329 335//335
f 340//340 311//311 335//335
f 353//353 340//340 335//335
f 340//340 353//353 358//358
f 269//269 340//340 293//293
f 269//269 293//293 275//275
f 293//293 340//340 316//316
f 340//340 346//346 316//316
f 293//293 316//316 322//322
f 299//299 293//293 322//322
f 149//149 191//191 220//220
f 162//162 185//185 191//191
f 162//162 191//191 168//168
f 149//149 168//168 191//191
f 168//168 149//149 144//144
f 144//144 138//138 168//168
f 144//144 149//149 131//131
f 131//131 126//126 144//144
f 191//191 209//209 215//215
f 220//220 191//191 215//215
f 233//233 220//220 215//215
f 220//220 233//233 238//238
f 149//149 220//220 173//173
f 149//149 173//173 155//155
f 173//173 220//220 196//196
f 220//220 226//226 196//196
f 173//173 196//196 202//202
f 179//179 173//173 202//202
f 431//431 436//436 389//389
f 389//389 436//436 413//413
f 389//389 413//413 395//395
f 442//442 413//413 436//436
f 419//419 413//413 442//442
f 460//460 466//466 436//436
f 436//436 431//431 460//460
f 460//460 473//473 478//478
f 473//473 460//460 455//455
f 460//460 431//431 455//455
f 431//431 449//449 455//455
f 402//402 425//425 431//431
f 402//402 431//431 408//408
f 431//431 384//384 408//408
f 431//431 389//389 384//384
f 384//384 378//378 408//408
f 384//384 389//389 371//371
f 371//371 366//366 384//384
f 53//53 48//48 71//71
f 42//42 71//71 48//48
f 42//42 65//65 71//71
f 24//24 18//18 48//48
f 48//48 53//53 24//24
f 11//11 6//6 24//24
f 24//24 29//29 11//11
f 53//53 29//29 24//24
f 29//29 53//53 35//35
f 59//59 53//53 82//82
f 53//53 76//76 82//82
f 71//71 76//76 53//53
f 76//76 71//71 100//100
f 100//100 106//106 76//76
f 100//100 71//71 95//95
f 71//71 89//89 95//95
f 113//113 100//100 95//95
f 100//100 113//113 118//118
f 4//4 7//7 1//1
f 7//7 4//4 10//10
f 28//28 31//31 25//25
f 31//31 28//28 34//34
f 13//13 22//22 19//19
f 22//22 13//13 16//16
f 49//49 58//58 55//55
f 58//58 49//49 52//52
f 37//37 46//46 43//43
f 46//46 37//37 40//40
f 124//124 127//127 121//121
f 127//127 124//124 130//130
f 148//148 151//151 145//145
f 151//151 148//148 154//154
f 133//133 142//142 139//139
f 142//142 133//133 136//136
f 169//169 178//178 175//175
f 178//178 169//169 172//172
f 157//157 166//166 163//163
f 166//166 157//157 160//160
f 244//244 247//247 241//241
f 247//247 244//244 250//250
f 268//268 271//271 265//265
f 271//271 268//268 274//274
f 253//253 262//262 259//259
f 262//262 253//253 256//256
f 289//289 298//298 295//295
f 298//298 289//289 292//292
f 277//277 286//286 283//283
f 286//286 277//277 280//280
f 361//361 364//364 367//367
f 367//367 364//364 370//370
f 388//388 391//391 385//385
f 391//391 388//388 394//394
f 373//373 382//382 379//379
f 382//382 373//373 376//376
f 409//409 418//418 415//415
f 418//418 409//409 412//412
f 397//397 406//406 403//403
f 406//406 397//397 400//400
f 421//421 401//401 398//398
f 401//401 421//421 424//424
f 404//404 407//407 374//374
f 374//374 407//407 377//377
f 448//448 427//427 445//445
f 427//427 448//448 430//430
f 380//380 365//365 362//362
f 365//365 380//380 383//383
f 469//469 454//454 451//451
f 454//454 469//469 472//472
f 301//301 281//281 278//278
f 281//281 301//301 304//304
f 181//181 161//161 158//158
f 161//161 181//181 184//184
f 284//284 287//287 254//254
f 254//254 287//287 257//257
f 328//328 307//307 325//325
f 307//307 328//328 310//310
f 167//167 134//134 164//164
f 134//134 167//167 137//137
f 205//205 208//208 187//187
f 187//187 208//208 190//190
f 260//260 245//245 242//242
f 245//245 260//260 263//263
f 349//349 334//334 331//331
f 334//334 349//349 352//352
f 140//140 125//125 122//122
f 125//125 140//140 143//143
f 229//229 214//214 211//211
f 214//214 229//229 232//232
f 61//61 41//41 38//38
f 41//41 61//61 64//64
f 44//44 47//47 14//14
f 14//14 47//47 17//17
f 85//85 88//88 67//67
f 67//67 88//88 70//70
f 20//20 5//5 2//2
f 5//5 20//20 23//23
f 109//109 94//94 91//91
f 94//94 109//109 112//112
f 313//313 266//266 290//290
f 290//290 319//319 313//313
f 290//290 296//296 319//319
f 266//266 272//272 290//290
f 337//337 266//266 313//313
f 313//313 343//343 337//337
f 337//337 355//355 350//350
f 337//337 350//350 332//332
f 308//308 337//337 332//332
f 308//308 332//332 326//326
f 266//266 337//337 285//285
f 337//337 308//308 285//285
f 279//279 285//285 308//308
f 308//308 302//302 279//279
f 266//266 285//285 261//261
f 285//285 255//255 261//261
f 261//261 248//248 266//266
f 261//261 243//243 248//248
f 193//193 146//146 170//170
f 170//170 199//199 193//193
f 170//170 176//176 199//199
f 146//146 152//152 170//170
f 217//217 146//146 193//193
f 193//193 223//223 217//217
f 217//217 235//235 230//230
f 217//217 230//230 212//212
f 188//188 217//217 212//212
f 188//188 212//212 206//206
f 146//146 217//217 165//165
f 217//217 188//188 165//165
f 159//159 165//165 188//188
f 188//188 182//182 159//159
f 146//146 165//165 141//141
f 165//165 135//135 141//141
f 141//141 128//128 146//146
f 141//141 123//123 128//128
f 428//428 433//433 452//452
f 428//428 452//452 446//446
f 452//452 433//433 457//457
f 457//457 470//470 452//452
f 457//457 475//475 470//470
f 433//433 463//463 457//457
f 428//428 422//422 399//399
f 399//399 405//405 428//428
f 381//381 428//428 405//405
f 433//433 428//428 381//381
f 405//405 375//375 381//381
f 433//433 381//381 386//386
f 381//381 368//368 386//386
f 381//381 363//363 368//368
f 433//433 386//386 410//410
f 386//386 392//392 410//410
f 410//410 439//439 433//433
f 410//410 416//416 439//439
f 68//68 73//73 92//92
f 68//68 92//92 86//86
f 92//92 73//73 97//97
f 97//97 110//110 92//92
f 97//97 115//115 110//110
f 73//73 103//103 97//97
f 68//68 62//62 39//39
f 39//39 45//45 68//68
f 73//73 68//68 45//45
f 73//73 45//45 50//50
f 50//50 79//79 73//73
f 50//50 56//56 79//79
f 50//50 45//45 26//26
f 26//26 32//32 50//50
f 26//26 45//45 21//21
f 45//45 15//15 21//21
f 21//21 8//8 26//26
f 21//21 3//3 8//8
