# Pixel Sniper over default Sniper - Magazine
# Fleasion-ready: already in the default MeshPart's space
o Magazine
v -0.222561 -0.277982 -0.101434 0.9300 0.8500 0.7000
v -0.222561 -0.277982 -0.101434 0.9300 0.8500 0.7000
v -0.222561 -0.277982 -0.101434 0.9300 0.8500 0.7000
v -0.222561 -0.277982 0.108066 0.9300 0.8500 0.7000
v -0.222561 -0.277982 0.108066 0.9300 0.8500 0.7000
v -0.222561 -0.277982 0.108066 0.9300 0.8500 0.7000
v -0.222561 -0.199497 -0.101434 0.9300 0.8500 0.7000
v -0.222561 -0.199497 -0.101434 0.9300 0.8500 0.7000
v -0.222561 -0.199497 -0.101434 0.9300 0.8500 0.7000
v -0.222561 -0.199497 0.108066 0.9300 0.8500 0.7000
v -0.222561 -0.199497 0.108066 0.9300 0.8500 0.7000
v -0.222561 -0.199497 0.108066 0.9300 0.8500 0.7000
v -0.198761 -0.199497 -0.101434 0.9300 0.8500 0.7000
v -0.198761 -0.199497 -0.101434 0.9300 0.8500 0.7000
v -0.198761 -0.199497 -0.101434 0.9300 0.8500 0.7000
v -0.198761 -0.199497 0.108066 0.9300 0.8500 0.7000
v -0.198761 -0.199497 0.108066 0.9300 0.8500 0.7000
v -0.198761 -0.199497 0.108066 0.9300 0.8500 0.7000
v -0.198761 -0.173337 -0.101434 0.9300 0.8500 0.7000
v -0.198761 -0.173337 -0.101434 0.9300 0.8500 0.7000
v -0.198761 -0.173337 -0.101434 0.9300 0.8500 0.7000
v -0.198761 -0.173337 0.108066 0.9300 0.8500 0.7000
v -0.198761 -0.173337 0.108066 0.9300 0.8500 0.7000
v -0.198761 -0.173337 0.108066 0.9300 0.8500 0.7000
v -0.174961 -0.173337 -0.101434 0.9300 0.8500 0.7000
v -0.174961 -0.173337 -0.101434 0.9300 0.8500 0.7000
v -0.174961 -0.173337 -0.101434 0.9300 0.8500 0.7000
v -0.174961 -0.173337 0.108066 0.9300 0.8500 0.7000
v -0.174961 -0.173337 0.108066 0.9300 0.8500 0.7000
v -0.174961 -0.173337 0.108066 0.9300 0.8500 0.7000
v -0.174961 0.271388 -0.101434 0.9300 0.8500 0.7000
v -0.174961 0.271388 -0.101434 0.9300 0.8500 0.7000
v -0.174961 0.271388 -0.101434 0.9300 0.8500 0.7000
v -0.174961 0.271388 0.108066 0.9300 0.8500 0.7000
v -0.174961 0.271388 0.108066 0.9300 0.8500 0.7000
v -0.174961 0.271388 0.108066 0.9300 0.8500 0.7000
v 0.182239 -0.173337 -0.101434 0.9300 0.8500 0.7000
v 0.182239 -0.173337 -0.101434 0.9300 0.8500 0.7000
v 0.182239 -0.173337 -0.101434 0.9300 0.8500 0.7000
v 0.182239 -0.173337 0.108066 0.9300 0.8500 0.7000
v 0.182239 -0.173337 0.108066 0.9300 0.8500 0.7000
v 0.182239 -0.173337 0.108066 0.9300 0.8500 0.7000
v 0.182239 0.271388 -0.101434 0.9300 0.8500 0.7000
v 0.182239 0.271388 -0.101434 0.9300 0.8500 0.7000
v 0.182239 0.271388 -0.101434 0.9300 0.8500 0.7000
v 0.182239 0.271388 0.108066 0.9300 0.8500 0.7000
v 0.182239 0.271388 0.108066 0.9300 0.8500 0.7000
v 0.182239 0.271388 0.108066 0.9300 0.8500 0.7000
v 0.206089 -0.199497 -0.101434 0.9300 0.8500 0.7000
v 0.206089 -0.199497 -0.101434 0.9300 0.8500 0.7000
v 0.206089 -0.199497 -0.101434 0.9300 0.8500 0.7000
v 0.206089 -0.199497 0.108066 0.9300 0.8500 0.7000
v 0.206089 -0.199497 0.108066 0.9300 0.8500 0.7000
v 0.206089 -0.199497 0.108066 0.9300 0.8500 0.7000
v 0.206089 -0.173337 -0.101434 0.9300 0.8500 0.7000
v 0.206089 -0.173337 -0.101434 0.9300 0.8500 0.7000
v 0.206089 -0.173337 -0.101434 0.9300 0.8500 0.7000
v 0.206089 -0.173337 0.108066 0.9300 0.8500 0.7000
v 0.206089 -0.173337 0.108066 0.9300 0.8500 0.7000
v 0.206089 -0.173337 0.108066 0.9300 0.8500 0.7000
v 0.229889 -0.277982 -0.101434 0.9300 0.8500 0.7000
v 0.229889 -0.277982 -0.101434 0.9300 0.8500 0.7000
v 0.229889 -0.277982 -0.101434 0.9300 0.8500 0.7000
v 0.229889 -0.277982 0.108066 0.9300 0.8500 0.7000
v 0.229889 -0.277982 0.108066 0.9300 0.8500 0.7000
v 0.229889 -0.277982 0.108066 0.9300 0.8500 0.7000
v 0.229889 -0.199497 -0.101434 0.9300 0.8500 0.7000
v 0.229889 -0.199497 -0.101434 0.9300 0.8500 0.7000
v 0.229889 -0.199497 -0.101434 0.9300 0.8500 0.7000
v 0.229889 -0.199497 0.108066 0.9300 0.8500 0.7000
v 0.229889 -0.199497 0.108066 0.9300 0.8500 0.7000
v 0.229889 -0.199497 0.108066 0.9300 0.8500 0.7000
vn -1.00000 0.00000 0.00000
vn 0.00000 -1.00000 0.00000
vn 0.00000 0.00000 -1.00000
vn -1.00000 0.00000 0.00000
vn 0.00000 -1.00000 0.00000
vn 0.00000 0.00000 1.00000
vn -1.00000 0.00000 0.00000
vn 0.00000 0.00000 -1.00000
vn 0.00000 1.00000 0.00000
vn -1.00000 0.00000 0.00000
vn 0.00000 0.00000 1.00000
vn 0.00000 1.00000 0.00000
vn -1.00000 0.00000 0.00000
vn 0.00000 0.00000 -1.00000
vn 0.00000 1.00000 0.00000
vn -1.00000 0.00000 0.00000
vn 0.00000 0.00000 1.00000
vn 0.00000 1.00000 0.00000
vn -1.00000 0.00000 0.00000
vn 0.00000 0.00000 -1.00000
vn 0.00000 1.00000 0.00000
vn -1.00000 0.00000 0.00000
vn 0.00000 0.00000 1.00000
vn 0.00000 1.00000 0.00000
vn -1.00000 0.00000 0.00000
vn 0.00000 0.00000 -1.00000
vn 0.00000 1.00000 0.00000
vn -1.00000 0.00000 0.00000
vn 0.00000 0.00000 1.00000
vn 0.00000 1.00000 0.00000
vn -1.00000 0.00000 0.00000
vn 0.00000 0.00000 -1.00000
vn 0.00000 1.00000 0.00000
vn -1.00000 0.00000 0.00000
vn 0.00000 0.00000 1.00000
vn 0.00000 1.00000 0.00000
vn 0.00000 0.00000 -1.00000
vn 0.00000 1.00000 0.00000
vn 1.00000 0.00000 0.00000
vn 0.00000 0.00000 1.00000
vn 0.00000 1.00000 0.00000
vn 1.00000 0.00000 0.00000
vn 0.00000 0.00000 -1.00000
vn 0.00000 1.00000 0.00000
vn 1.00000 0.00000 0.00000
vn 0.00000 0.00000 1.00000
vn 0.00000 1.00000 0.00000
vn 1.00000 0.00000 0.00000
vn 0.00000 0.00000 -1.00000
vn 0.00000 1.00000 0.00000
vn 1.00000 0.00000 0.00000
vn 0.00000 0.00000 1.00000
vn 0.00000 1.00000 0.00000
vn 1.00000 0.00000 0.00000
vn 0.00000 0.00000 -1.00000
vn 0.00000 1.00000 0.00000
vn 1.00000 0.00000 0.00000
vn 0.00000 0.00000 1.00000
vn 0.00000 1.00000 0.00000
vn 1.00000 0.00000 0.00000
vn 0.00000 -1.00000 0.00000
vn 0.00000 0.00000 -1.00000
vn 1.00000 0.00000 0.00000
vn 0.00000 -1.00000 0.00000
vn 0.00000 0.00000 1.00000
vn 1.00000 0.00000 0.00000
vn 0.00000 0.00000 -1.00000
vn 0.00000 1.00000 0.00000
vn 1.00000 0.00000 0.00000
vn 0.00000 0.00000 1.00000
vn 0.00000 1.00000 0.00000
vn 1.00000 0.00000 0.00000
f 66//66 63//63 69//69
f 69//69 72//72 66//66
f 54//54 51//51 57//57
f 57//57 60//60 54//54
f 39//39 45//45 48//48
f 39//39 48//48 42//42
f 33//33 47//47 44//44
f 47//47 33//33 36//36
f 30//30 27//27 21//21
f 21//21 24//24 30//30
f 38//38 41//41 56//56
f 56//56 41//41 59//59
f 71//71 68//68 50//50
f 50//50 53//53 71//71
f 9//9 12//12 15//15
f 15//15 12//12 18//18
f 40//40 35//35 29//29
f 35//35 40//40 46//46
f 29//29 65//65 40//40
f 40//40 65//65 52//52
f 52//52 58//58 40//40
f 65//65 70//70 52//52
f 65//65 29//29 6//6
f 6//6 29//29 17//17
f 29//29 23//23 17//17
f 17//17 11//11 6//6
f 1//1 10//10 7//7
f 10//10 1//1 4//4
f 13//13 22//22 19//19
f 22//22 13//13 16//16
f 25//25 34//34 31//31
f 34//34 25//25 28//28
f 61//61 5//5 2//2
f 5//5 61//61 64//64
f 67//67 62//62 49//49
f 62//62 37//37 49//49
f 55//55 49//49 37//37
f 62//62 26//26 37//37
f 26//26 62//62 3//3
f 26//26 32//32 37//37
f 37//37 32//32 43//43
f 26//26 3//3 14//14
f 8//8 14//14 3//3
f 14//14 20//20 26//26
