# Pixel Sniper over default Sniper - MagFollower
# Fleasion-ready: already in the default MeshPart's space
o MagFollower
v -0.101072 -0.208412 -0.104934 0.9300 0.8500 0.7000
v -0.101072 -0.208412 -0.104934 0.9300 0.8500 0.7000
v -0.101072 -0.208412 -0.104934 0.9300 0.8500 0.7000
v -0.101072 -0.208412 0.111566 0.9300 0.8500 0.7000
v -0.101072 -0.208412 0.111566 0.9300 0.8500 0.7000
v -0.101072 -0.208412 0.111566 0.9300 0.8500 0.7000
v -0.101072 0.201633 -0.104934 0.9300 0.8500 0.7000
v -0.101072 0.201633 -0.104934 0.9300 0.8500 0.7000
v -0.101072 0.201633 -0.104934 0.9300 0.8500 0.7000
v -0.101072 0.201633 0.111566 0.9300 0.8500 0.7000
v -0.101072 0.201633 0.111566 0.9300 0.8500 0.7000
v -0.101072 0.201633 0.111566 0.9300 0.8500 0.7000
v -0.064522 -0.208412 -0.104934 0.9300 0.8500 0.7000
v -0.064522 -0.208412 -0.104934 0.9300 0.8500 0.7000
v -0.064522 -0.208412 -0.104934 0.9300 0.8500 0.7000
v -0.064522 -0.208412 0.111566 0.9300 0.8500 0.7000
v -0.064522 -0.208412 0.111566 0.9300 0.8500 0.7000
v -0.064522 -0.208412 0.111566 0.9300 0.8500 0.7000
v -0.064522 0.201633 -0.104934 0.9300 0.8500 0.7000
v -0.064522 0.201633 -0.104934 0.9300 0.8500 0.7000
v -0.064522 0.201633 -0.104934 0.9300 0.8500 0.7000
v -0.064522 0.201633 0.111566 0.9300 0.8500 0.7000
v -0.064522 0.201633 0.111566 0.9300 0.8500 0.7000
v -0.064522 0.201633 0.111566 0.9300 0.8500 0.7000
v 0.071828 -0.208412 -0.104934 0.9300 0.8500 0.7000
v 0.071828 -0.208412 -0.104934 0.9300 0.8500 0.7000
v 0.071828 -0.208412 -0.104934 0.9300 0.8500 0.7000
v 0.071828 -0.208412 0.111566 0.9300 0.8500 0.7000
v 0.071828 -0.208412 0.111566 0.9300 0.8500 0.7000
v 0.071828 -0.208412 0.111566 0.9300 0.8500 0.7000
v 0.071828 0.201633 -0.104934 0.9300 0.8500 0.7000
v 0.071828 0.201633 -0.104934 0.9300 0.8500 0.7000
v 0.071828 0.201633 -0.104934 0.9300 0.8500 0.7000
v 0.071828 0.201633 0.111566 0.9300 0.8500 0.7000
v 0.071828 0.201633 0.111566 0.9300 0.8500 0.7000
v 0.071828 0.201633 0.111566 0.9300 0.8500 0.7000
v 0.108378 -0.208412 -0.104934 0.9300 0.8500 0.7000
v 0.108378 -0.208412 -0.104934 0.9300 0.8500 0.7000
v 0.108378 -0.208412 -0.104934 0.9300 0.8500 0.7000
v 0.108378 -0.208412 0.111566 0.9300 0.8500 0.7000
v 0.108378 -0.208412 0.111566 0.9300 0.8500 0.7000
v 0.108378 -0.208412 0.111566 0.9300 0.8500 0.7000
v 0.108378 0.201633 -0.104934 0.9300 0.8500 0.7000
v 0.108378 0.201633 -0.104934 0.9300 0.8500 0.7000
v 0.108378 0.201633 -0.104934 0.9300 0.8500 0.7000
v 0.108378 0.201633 0.111566 0.9300 0.8500 0.7000
v 0.108378 0.201633 0.111566 0.9300 0.8500 0.7000
v 0.108378 0.201633 0.111566 0.9300 0.8500 0.7000
vn -1.00000 0.00000 0.00000
vn 0.00000 -1.00000 0.00000
vn 0.00000 0.00000 -1.00000
vn -1.00000 0.00000 0.00000
vn 0.00000 -1.00000 0.00000
vn 0.00000 0.00000 1.00000
vn -1.00000 0.00000 0.00000
vn 0.00000 0.00000 -1.00000
vn 0.00000 1.00000 0.00000
vn -1.00000 0.00000 0.00000
vn 0.00000 0.00000 1.00000
vn 0.00000 1.00000 0.00000
vn 0.00000 -1.00000 0.00000
vn 0.00000 0.00000 -1.00000
vn 1.00000 0.00000 0.00000
vn 0.00000 -1.00000 0.00000
vn 0.00000 0.00000 1.00000
vn 1.00000 0.00000 0.00000
vn 0.00000 0.00000 -1.00000
vn 0.00000 1.00000 0.00000
vn 1.00000 0.00000 0.00000
vn 0.00000 0.00000 1.00000
vn 0.00000 1.00000 0.00000
vn 1.00000 0.00000 0.00000
vn -1.00000 0.00000 0.00000
vn 0.00000 -1.00000 0.00000
vn 0.00000 0.00000 -1.00000
vn -1.00000 0.00000 0.00000
vn 0.00000 -1.00000 0.00000
vn 0.00000 0.00000 1.00000
vn -1.00000 0.00000 0.00000
vn 0.00000 0.00000 -1.00000
vn 0.00000 1.00000 0.00000
vn -1.00000 0.00000 0.00000
vn 0.00000 0.00000 1.00000
vn 0.00000 1.00000 0.00000
vn 0.00000 -1.00000 0.00000
vn 0.00000 0.00000 -1.00000
vn 1.00000 0.00000 0.00000
vn 0.00000 -1.00000 0.00000
vn 0.00000 0.00000 1.00000
vn 1.00000 0.00000 0.00000
vn 0.00000 0.00000 -1.00000
vn 0.00000 1.00000 0.00000
vn 1.00000 0.00000 0.00000
vn 0.00000 0.00000 1.00000
vn 0.00000 1.00000 0.00000
vn 1.00000 0.00000 0.00000
f 48//48 42//42 45//45
f 39//39 45//45 42//42
f 24//24 18//18 21//21
f 15//15 21//21 18//18
f 23//23 20//20 9//9
f 9//9 12//12 23//23
f 47//47 44//44 33//33
f 33//33 36//36 47//47
f 17//17 22//22 6//6
f 6//6 22//22 11//11
f 41//41 46//46 30//30
f 30//30 46//46 35//35
f 1//1 10//10 7//7
f 10//10 1//1 4//4
f 25//25 34//34 31//31
f 34//34 25//25 28//28
f 5//5 2//2 13//13
f 13//13 16//16 5//5
f 29//29 26//26 37//37
f 37//37 40//40 29//29
f 38//38 32//32 43//43
f 32//32 38//38 27//27
f 14//14 8//8 19//19
f 8//8 14//14 3//3
