# Pixel Sniper over default Sniper - ScopeLens
# Fleasion-ready: already in the default MeshPart's space
o ScopeLens
v -0.904090 -0.090773 -0.084655 0.1600 0.2000 0.2800
v -0.904090 -0.090773 0.090345 0.1600 0.2000 0.2800
v -0.904090 0.084117 -0.084655 0.1600 0.2000 0.2800
v -0.904090 0.084117 0.090345 0.1600 0.2000 0.2800
v 0.906260 -0.090773 -0.093155 0.1600 0.2000 0.2800
v 0.906260 -0.090773 0.099345 0.1600 0.2000 0.2800
v 0.906260 0.084117 -0.093155 0.1600 0.2000 0.2800
v 0.906260 0.084117 0.099345 0.1600 0.2000 0.2800
vn -1.00000 0.00000 0.00000
vn -1.00000 0.00000 0.00000
vn -1.00000 0.00000 0.00000
vn -1.00000 0.00000 0.00000
vn 1.00000 0.00000 0.00000
vn 1.00000 0.00000 0.00000
vn 1.00000 0.00000 0.00000
vn 1.00000 0.00000 0.00000
f 7//7 8//8 5//5
f 5//5 8//8 6//6
f 1//1 2//2 3//3
f 3//3 2//2 4//4
