# Pixel Sniper over default Sniper - ScopeMount
# Fleasion-ready: already in the default MeshPart's space
o ScopeMount
v -0.254276 -0.236527 -0.094655 0.9300 0.8500 0.7000
v -0.254276 -0.236527 -0.094655 0.9300 0.8500 0.7000
v -0.254276 -0.236527 -0.094655 0.9300 0.8500 0.7000
v -0.254276 -0.236527 0.098345 0.9300 0.8500 0.7000
v -0.254276 -0.236527 0.098345 0.9300 0.8500 0.7000
v -0.254276 -0.236527 0.098345 0.9300 0.8500 0.7000
v -0.254276 0.090353 -0.094655 0.9300 0.8500 0.7000
v -0.254276 0.090353 -0.094655 0.9300 0.8500 0.7000
v -0.254276 0.090353 -0.094655 0.9300 0.8500 0.7000
v -0.254276 0.090353 -0.033655 0.9300 0.8500 0.7000
v -0.254276 0.090353 -0.033655 0.9300 0.8500 0.7000
v -0.254276 0.090353 -0.033655 0.9300 0.8500 0.7000
v -0.254276 0.090353 0.037845 0.9300 0.8500 0.7000
v -0.254276 0.090353 0.037845 0.9300 0.8500 0.7000
v -0.254276 0.090353 0.037845 0.9300 0.8500 0.7000
v -0.254276 0.090353 0.098345 0.9300 0.8500 0.7000
v -0.254276 0.090353 0.098345 0.9300 0.8500 0.7000
v -0.254276 0.090353 0.098345 0.9300 0.8500 0.7000
v -0.254276 0.151448 -0.033655 0.9300 0.8500 0.7000
v -0.254276 0.151448 -0.033655 0.9300 0.8500 0.7000
v -0.254276 0.151448 -0.033655 0.9300 0.8500 0.7000
v -0.254276 0.151448 0.037845 0.9300 0.8500 0.7000
v -0.254276 0.151448 0.037845 0.9300 0.8500 0.7000
v -0.254276 0.151448 0.037845 0.9300 0.8500 0.7000
v -0.154276 -0.236527 -0.094655 0.9300 0.8500 0.7000
v -0.154276 -0.236527 -0.094655 0.9300 0.8500 0.7000
v -0.154276 -0.236527 -0.094655 0.9300 0.8500 0.7000
v -0.154276 -0.236527 0.098345 0.9300 0.8500 0.7000
v -0.154276 -0.236527 0.098345 0.9300 0.8500 0.7000
v -0.154276 -0.236527 0.098345 0.9300 0.8500 0.7000
v -0.154276 0.090353 -0.094655 0.9300 0.8500 0.7000
v -0.154276 0.090353 -0.094655 0.9300 0.8500 0.7000
v -0.154276 0.090353 -0.094655 0.9300 0.8500 0.7000
v -0.154276 0.090353 -0.033655 0.9300 0.8500 0.7000
v -0.154276 0.090353 -0.033655 0.9300 0.8500 0.7000
v -0.154276 0.090353 -0.033655 0.9300 0.8500 0.7000
v -0.154276 0.090353 0.037845 0.9300 0.8500 0.7000
v -0.154276 0.090353 0.037845 0.9300 0.8500 0.7000
v -0.154276 0.090353 0.037845 0.9300 0.8500 0.7000
v -0.154276 0.090353 0.098345 0.9300 0.8500 0.7000
v -0.154276 0.090353 0.098345 0.9300 0.8500 0.7000
v -0.154276 0.090353 0.098345 0.9300 0.8500 0.7000
v -0.154276 0.151448 -0.033655 0.9300 0.8500 0.7000
v -0.154276 0.151448 -0.033655 0.9300 0.8500 0.7000
v -0.154276 0.151448 -0.033655 0.9300 0.8500 0.7000
v -0.154276 0.151448 0.037845 0.9300 0.8500 0.7000
v -0.154276 0.151448 0.037845 0.9300 0.8500 0.7000
v -0.154276 0.151448 0.037845 0.9300 0.8500 0.7000
v -0.069676 -0.011997 -0.196155 0.9300 0.8500 0.7000
v -0.069676 -0.011997 -0.196155 0.9300 0.8500 0.7000
v -0.069676 -0.011997 -0.196155 0.9300 0.8500 0.7000
v -0.069676 -0.011997 -0.107655 0.9300 0.8500 0.7000
v -0.069676 -0.011997 -0.107655 0.9300 0.8500 0.7000
v -0.069676 -0.011997 -0.107655 0.9300 0.8500 0.7000
v -0.069676 -0.011997 0.113345 0.9300 0.8500 0.7000
v -0.069676 -0.011997 0.113345 0.9300 0.8500 0.7000
v -0.069676 -0.011997 0.113345 0.9300 0.8500 0.7000
v -0.069676 -0.011997 0.201845 0.9300 0.8500 0.7000
v -0.069676 -0.011997 0.201845 0.9300 0.8500 0.7000
v -0.069676 -0.011997 0.201845 0.9300 0.8500 0.7000
v -0.069676 0.040113 -0.107655 0.9300 0.8500 0.7000
v -0.069676 0.040113 -0.107655 0.9300 0.8500 0.7000
v -0.069676 0.040113 -0.107655 0.9300 0.8500 0.7000
v -0.069676 0.040113 -0.063155 0.9300 0.8500 0.7000
v -0.069676 0.040113 -0.063155 0.9300 0.8500 0.7000
v -0.069676 0.040113 0.069345 0.9300 0.8500 0.7000
v -0.069676 0.040113 0.069345 0.9300 0.8500 0.7000
v -0.069676 0.040113 0.113345 0.9300 0.8500 0.7000
v -0.069676 0.040113 0.113345 0.9300 0.8500 0.7000
v -0.069676 0.040113 0.113345 0.9300 0.8500 0.7000
v -0.069676 0.057483 -0.107655 0.9300 0.8500 0.7000
v -0.069676 0.057483 -0.107655 0.9300 0.8500 0.7000
v -0.069676 0.057483 -0.107655 0.9300 0.8500 0.7000
v -0.069676 0.057483 -0.063155 0.9300 0.8500 0.7000
v -0.069676 0.057483 -0.063155 0.9300 0.8500 0.7000
v -0.069676 0.057483 0.069345 0.9300 0.8500 0.7000
v -0.069676 0.057483 0.069345 0.9300 0.8500 0.7000
v -0.069676 0.057483 0.113345 0.9300 0.8500 0.7000
v -0.069676 0.057483 0.113345 0.9300 0.8500 0.7000
v -0.069676 0.057483 0.113345 0.9300 0.8500 0.7000
v -0.069676 0.092223 -0.196155 0.9300 0.8500 0.7000
v -0.069676 0.092223 -0.196155 0.9300 0.8500 0.7000
v -0.069676 0.092223 -0.196155 0.9300 0.8500 0.7000
v -0.069676 0.092223 -0.107655 0.9300 0.8500 0.7000
v -0.069676 0.092223 -0.107655 0.9300 0.8500 0.7000
v -0.069676 0.092223 -0.107655 0.9300 0.8500 0.7000
v -0.069676 0.092223 0.113345 0.9300 0.8500 0.7000
v -0.069676 0.092223 0.113345 0.9300 0.8500 0.7000
v -0.069676 0.092223 0.113345 0.9300 0.8500 0.7000
v -0.069676 0.092223 0.201845 0.9300 0.8500 0.7000
v -0.069676 0.092223 0.201845 0.9300 0.8500 0.7000
v -0.069676 0.092223 0.201845 0.9300 0.8500 0.7000
v -0.069676 0.109583 -0.011155 0.9300 0.8500 0.7000
v -0.069676 0.109583 -0.011155 0.9300 0.8500 0.7000
v -0.069676 0.109583 0.005845 0.9300 0.8500 0.7000
v -0.069676 0.109583 0.005845 0.9300 0.8500 0.7000
v -0.069676 0.153788 -0.046155 0.9300 0.8500 0.7000
v -0.069676 0.153788 -0.046155 0.9300 0.8500 0.7000
v -0.069676 0.153788 -0.046155 0.9300 0.8500 0.7000
v -0.069676 0.153788 -0.011155 0.9300 0.8500 0.7000
v -0.069676 0.153788 -0.011155 0.9300 0.8500 0.7000
v -0.069676 0.153788 -0.011155 0.9300 0.8500 0.7000
v -0.069676 0.153788 0.005845 0.9300 0.8500 0.7000
v -0.069676 0.153788 0.005845 0.9300 0.8500 0.7000
v -0.069676 0.153788 0.005845 0.9300 0.8500 0.7000
v -0.069676 0.153788 0.058345 0.9300 0.8500 0.7000
v -0.069676 0.153788 0.058345 0.9300 0.8500 0.7000
v -0.069676 0.153788 0.058345 0.9300 0.8500 0.7000
v -0.069676 0.242203 -0.046155 0.9300 0.8500 0.7000
v -0.069676 0.242203 -0.046155 0.9300 0.8500 0.7000
v -0.069676 0.242203 -0.046155 0.9300 0.8500 0.7000
v -0.069676 0.242203 0.058345 0.9300 0.8500 0.7000
v -0.069676 0.242203 0.058345 0.9300 0.8500 0.7000
v -0.069676 0.242203 0.058345 0.9300 0.8500 0.7000
v -0.025476 -0.029367 -0.196155 0.9300 0.8500 0.7000
v -0.025476 -0.029367 -0.196155 0.9300 0.8500 0.7000
v -0.025476 -0.029367 -0.196155 0.9300 0.8500 0.7000
v -0.025476 -0.029367 -0.107655 0.9300 0.8500 0.7000
v -0.025476 -0.029367 -0.107655 0.9300 0.8500 0.7000
v -0.025476 -0.029367 -0.107655 0.9300 0.8500 0.7000
v -0.025476 -0.029367 0.113345 0.9300 0.8500 0.7000
v -0.025476 -0.029367 0.113345 0.9300 0.8500 0.7000
v -0.025476 -0.029367 0.113345 0.9300 0.8500 0.7000
v -0.025476 -0.029367 0.201845 0.9300 0.8500 0.7000
v -0.025476 -0.029367 0.201845 0.9300 0.8500 0.7000
v -0.025476 -0.029367 0.201845 0.9300 0.8500 0.7000
v -0.025476 -0.011997 -0.196155 0.9300 0.8500 0.7000
v -0.025476 -0.011997 -0.196155 0.9300 0.8500 0.7000
v -0.025476 -0.011997 -0.196155 0.9300 0.8500 0.7000
v -0.025476 -0.011997 -0.107655 0.9300 0.8500 0.7000
v -0.025476 -0.011997 -0.107655 0.9300 0.8500 0.7000
v -0.025476 -0.011997 -0.107655 0.9300 0.8500 0.7000
v -0.025476 -0.011997 -0.063155 0.9300 0.8500 0.7000
v -0.025476 -0.011997 -0.063155 0.9300 0.8500 0.7000
v -0.025476 -0.011997 0.069345 0.9300 0.8500 0.7000
v -0.025476 -0.011997 0.069345 0.9300 0.8500 0.7000
v -0.025476 -0.011997 0.113345 0.9300 0.8500 0.7000
v -0.025476 -0.011997 0.113345 0.9300 0.8500 0.7000
v -0.025476 -0.011997 0.113345 0.9300 0.8500 0.7000
v -0.025476 -0.011997 0.201845 0.9300 0.8500 0.7000
v -0.025476 -0.011997 0.201845 0.9300 0.8500 0.7000
v -0.025476 -0.011997 0.201845 0.9300 0.8500 0.7000
v -0.025476 0.040113 -0.107655 0.9300 0.8500 0.7000
v -0.025476 0.040113 -0.107655 0.9300 0.8500 0.7000
v -0.025476 0.040113 -0.107655 0.9300 0.8500 0.7000
v -0.025476 0.040113 -0.063155 0.9300 0.8500 0.7000
v -0.025476 0.040113 -0.063155 0.9300 0.8500 0.7000
v -0.025476 0.040113 0.069345 0.9300 0.8500 0.7000
v -0.025476 0.040113 0.069345 0.9300 0.8500 0.7000
v -0.025476 0.040113 0.113345 0.9300 0.8500 0.7000
v -0.025476 0.040113 0.113345 0.9300 0.8500 0.7000
v -0.025476 0.040113 0.113345 0.9300 0.8500 0.7000
v -0.025476 0.057483 -0.107655 0.9300 0.8500 0.7000
v -0.025476 0.057483 -0.107655 0.9300 0.8500 0.7000
v -0.025476 0.057483 -0.107655 0.9300 0.8500 0.7000
v -0.025476 0.057483 -0.063155 0.9300 0.8500 0.7000
v -0.025476 0.057483 -0.063155 0.9300 0.8500 0.7000
v -0.025476 0.057483 0.069345 0.9300 0.8500 0.7000
v -0.025476 0.057483 0.069345 0.9300 0.8500 0.7000
v -0.025476 0.057483 0.113345 0.9300 0.8500 0.7000
v -0.025476 0.057483 0.113345 0.9300 0.8500 0.7000
v -0.025476 0.057483 0.113345 0.9300 0.8500 0.7000
v -0.025476 0.092223 -0.196155 0.9300 0.8500 0.7000
v -0.025476 0.092223 -0.196155 0.9300 0.8500 0.7000
v -0.025476 0.092223 -0.196155 0.9300 0.8500 0.7000
v -0.025476 0.092223 -0.107655 0.9300 0.8500 0.7000
v -0.025476 0.092223 -0.107655 0.9300 0.8500 0.7000
v -0.025476 0.092223 -0.107655 0.9300 0.8500 0.7000
v -0.025476 0.092223 -0.063155 0.9300 0.8500 0.7000
v -0.025476 0.092223 -0.063155 0.9300 0.8500 0.7000
v -0.025476 0.092223 0.069345 0.9300 0.8500 0.7000
v -0.025476 0.092223 0.069345 0.9300 0.8500 0.7000
v -0.025476 0.092223 0.113345 0.9300 0.8500 0.7000
v -0.025476 0.092223 0.113345 0.9300 0.8500 0.7000
v -0.025476 0.092223 0.113345 0.9300 0.8500 0.7000
v -0.025476 0.092223 0.201845 0.9300 0.8500 0.7000
v -0.025476 0.092223 0.201845 0.9300 0.8500 0.7000
v -0.025476 0.092223 0.201845 0.9300 0.8500 0.7000
v -0.025476 0.109583 -0.046155 0.9300 0.8500 0.7000
v -0.025476 0.109583 -0.046155 0.9300 0.8500 0.7000
v -0.025476 0.109583 -0.011155 0.9300 0.8500 0.7000
v -0.025476 0.109583 -0.011155 0.9300 0.8500 0.7000
v -0.025476 0.109583 0.005845 0.9300 0.8500 0.7000
v -0.025476 0.109583 0.005845 0.9300 0.8500 0.7000
v -0.025476 0.109583 0.058345 0.9300 0.8500 0.7000
v -0.025476 0.109583 0.058345 0.9300 0.8500 0.7000
v -0.025476 0.109593 -0.196155 0.9300 0.8500 0.7000
v -0.025476 0.109593 -0.196155 0.9300 0.8500 0.7000
v -0.025476 0.109593 -0.196155 0.9300 0.8500 0.7000
v -0.025476 0.109593 -0.107655 0.9300 0.8500 0.7000
v -0.025476 0.109593 -0.107655 0.9300 0.8500 0.7000
v -0.025476 0.109593 -0.107655 0.9300 0.8500 0.7000
v -0.025476 0.109593 0.113345 0.9300 0.8500 0.7000
v -0.025476 0.109593 0.113345 0.9300 0.8500 0.7000
v -0.025476 0.109593 0.113345 0.9300 0.8500 0.7000
v -0.025476 0.109593 0.201845 0.9300 0.8500 0.7000
v -0.025476 0.109593 0.201845 0.9300 0.8500 0.7000
v -0.025476 0.109593 0.201845 0.9300 0.8500 0.7000
v -0.025476 0.153788 -0.063155 0.9300 0.8500 0.7000
v -0.025476 0.153788 -0.063155 0.9300 0.8500 0.7000
v -0.025476 0.153788 -0.063155 0.9300 0.8500 0.7000
v -0.025476 0.153788 -0.046155 0.9300 0.8500 0.7000
v -0.025476 0.153788 -0.046155 0.9300 0.8500 0.7000
v -0.025476 0.153788 -0.046155 0.9300 0.8500 0.7000
v -0.025476 0.153788 -0.011155 0.9300 0.8500 0.7000
v -0.025476 0.153788 -0.011155 0.9300 0.8500 0.7000
v -0.025476 0.153788 -0.011155 0.9300 0.8500 0.7000
v -0.025476 0.153788 0.005845 0.9300 0.8500 0.7000
v -0.025476 0.153788 0.005845 0.9300 0.8500 0.7000
v -0.025476 0.153788 0.005845 0.9300 0.8500 0.7000
v -0.025476 0.153788 0.058345 0.9300 0.8500 0.7000
v -0.025476 0.153788 0.058345 0.9300 0.8500 0.7000
v -0.025476 0.153788 0.058345 0.9300 0.8500 0.7000
v -0.025476 0.153788 0.075345 0.9300 0.8500 0.7000
v -0.025476 0.153788 0.075345 0.9300 0.8500 0.7000
v -0.025476 0.153788 0.075345 0.9300 0.8500 0.7000
v -0.025476 0.242203 -0.063155 0.9300 0.8500 0.7000
v -0.025476 0.242203 -0.063155 0.9300 0.8500 0.7000
v -0.025476 0.242203 -0.063155 0.9300 0.8500 0.7000
v -0.025476 0.242203 -0.046155 0.9300 0.8500 0.7000
v -0.025476 0.242203 -0.046155 0.9300 0.8500 0.7000
v -0.025476 0.242203 -0.046155 0.9300 0.8500 0.7000
v -0.025476 0.242203 0.058345 0.9300 0.8500 0.7000
v -0.025476 0.242203 0.058345 0.9300 0.8500 0.7000
v -0.025476 0.242203 0.058345 0.9300 0.8500 0.7000
v -0.025476 0.242203 0.075345 0.9300 0.8500 0.7000
v -0.025476 0.242203 0.075345 0.9300 0.8500 0.7000
v -0.025476 0.242203 0.075345 0.9300 0.8500 0.7000
v 0.018724 -0.029367 -0.196155 0.9300 0.8500 0.7000
v 0.018724 -0.029367 -0.196155 0.9300 0.8500 0.7000
v 0.018724 -0.029367 -0.196155 0.9300 0.8500 0.7000
v 0.018724 -0.029367 -0.107655 0.9300 0.8500 0.7000
v 0.018724 -0.029367 -0.107655 0.9300 0.8500 0.7000
v 0.018724 -0.029367 -0.107655 0.9300 0.8500 0.7000
v 0.018724 -0.029367 0.113345 0.9300 0.8500 0.7000
v 0.018724 -0.029367 0.113345 0.9300 0.8500 0.7000
v 0.018724 -0.029367 0.113345 0.9300 0.8500 0.7000
v 0.018724 -0.029367 0.201845 0.9300 0.8500 0.7000
v 0.018724 -0.029367 0.201845 0.9300 0.8500 0.7000
v 0.018724 -0.029367 0.201845 0.9300 0.8500 0.7000
v 0.018724 -0.011997 -0.196155 0.9300 0.8500 0.7000
v 0.018724 -0.011997 -0.196155 0.9300 0.8500 0.7000
v 0.018724 -0.011997 -0.196155 0.9300 0.8500 0.7000
v 0.018724 -0.011997 -0.107655 0.9300 0.8500 0.7000
v 0.018724 -0.011997 -0.107655 0.9300 0.8500 0.7000
v 0.018724 -0.011997 -0.107655 0.9300 0.8500 0.7000
v 0.018724 -0.011997 -0.063155 0.9300 0.8500 0.7000
v 0.018724 -0.011997 -0.063155 0.9300 0.8500 0.7000
v 0.018724 -0.011997 0.069345 0.9300 0.8500 0.7000
v 0.018724 -0.011997 0.069345 0.9300 0.8500 0.7000
v 0.018724 -0.011997 0.113345 0.9300 0.8500 0.7000
v 0.018724 -0.011997 0.113345 0.9300 0.8500 0.7000
v 0.018724 -0.011997 0.113345 0.9300 0.8500 0.7000
v 0.018724 -0.011997 0.201845 0.9300 0.8500 0.7000
v 0.018724 -0.011997 0.201845 0.9300 0.8500 0.7000
v 0.018724 -0.011997 0.201845 0.9300 0.8500 0.7000
v 0.018724 0.040113 -0.107655 0.9300 0.8500 0.7000
v 0.018724 0.040113 -0.107655 0.9300 0.8500 0.7000
v 0.018724 0.040113 -0.107655 0.9300 0.8500 0.7000
v 0.018724 0.040113 -0.063155 0.9300 0.8500 0.7000
v 0.018724 0.040113 -0.063155 0.9300 0.8500 0.7000
v 0.018724 0.040113 0.069345 0.9300 0.8500 0.7000
v 0.018724 0.040113 0.069345 0.9300 0.8500 0.7000
v 0.018724 0.040113 0.113345 0.9300 0.8500 0.7000
v 0.018724 0.040113 0.113345 0.9300 0.8500 0.7000
v 0.018724 0.040113 0.113345 0.9300 0.8500 0.7000
v 0.018724 0.057483 -0.107655 0.9300 0.8500 0.7000
v 0.018724 0.057483 -0.107655 0.9300 0.8500 0.7000
v 0.018724 0.057483 -0.107655 0.9300 0.8500 0.7000
v 0.018724 0.057483 -0.063155 0.9300 0.8500 0.7000
v 0.018724 0.057483 -0.063155 0.9300 0.8500 0.7000
v 0.018724 0.057483 0.069345 0.9300 0.8500 0.7000
v 0.018724 0.057483 0.069345 0.9300 0.8500 0.7000
v 0.018724 0.057483 0.113345 0.9300 0.8500 0.7000
v 0.018724 0.057483 0.113345 0.9300 0.8500 0.7000
v 0.018724 0.057483 0.113345 0.9300 0.8500 0.7000
v 0.018724 0.092223 -0.196155 0.9300 0.8500 0.7000
v 0.018724 0.092223 -0.196155 0.9300 0.8500 0.7000
v 0.018724 0.092223 -0.196155 0.9300 0.8500 0.7000
v 0.018724 0.092223 -0.107655 0.9300 0.8500 0.7000
v 0.018724 0.092223 -0.107655 0.9300 0.8500 0.7000
v 0.018724 0.092223 -0.107655 0.9300 0.8500 0.7000
v 0.018724 0.092223 -0.063155 0.9300 0.8500 0.7000
v 0.018724 0.092223 -0.063155 0.9300 0.8500 0.7000
v 0.018724 0.092223 0.069345 0.9300 0.8500 0.7000
v 0.018724 0.092223 0.069345 0.9300 0.8500 0.7000
v 0.018724 0.092223 0.113345 0.9300 0.8500 0.7000
v 0.018724 0.092223 0.113345 0.9300 0.8500 0.7000
v 0.018724 0.092223 0.113345 0.9300 0.8500 0.7000
v 0.018724 0.092223 0.201845 0.9300 0.8500 0.7000
v 0.018724 0.092223 0.201845 0.9300 0.8500 0.7000
v 0.018724 0.092223 0.201845 0.9300 0.8500 0.7000
v 0.018724 0.109583 -0.046155 0.9300 0.8500 0.7000
v 0.018724 0.109583 -0.046155 0.9300 0.8500 0.7000
v 0.018724 0.109583 -0.011155 0.9300 0.8500 0.7000
v 0.018724 0.109583 -0.011155 0.9300 0.8500 0.7000
v 0.018724 0.109583 0.005845 0.9300 0.8500 0.7000
v 0.018724 0.109583 0.005845 0.9300 0.8500 0.7000
v 0.018724 0.109583 0.058345 0.9300 0.8500 0.7000
v 0.018724 0.109583 0.058345 0.9300 0.8500 0.7000
v 0.018724 0.109593 -0.196155 0.9300 0.8500 0.7000
v 0.018724 0.109593 -0.196155 0.9300 0.8500 0.7000
v 0.018724 0.109593 -0.196155 0.9300 0.8500 0.7000
v 0.018724 0.109593 -0.107655 0.9300 0.8500 0.7000
v 0.018724 0.109593 -0.107655 0.9300 0.8500 0.7000
v 0.018724 0.109593 -0.107655 0.9300 0.8500 0.7000
v 0.018724 0.109593 0.113345 0.9300 0.8500 0.7000
v 0.018724 0.109593 0.113345 0.9300 0.8500 0.7000
v 0.018724 0.109593 0.113345 0.9300 0.8500 0.7000
v 0.018724 0.109593 0.201845 0.9300 0.8500 0.7000
v 0.018724 0.109593 0.201845 0.9300 0.8500 0.7000
v 0.018724 0.109593 0.201845 0.9300 0.8500 0.7000
v 0.018724 0.153788 -0.063155 0.9300 0.8500 0.7000
v 0.018724 0.153788 -0.063155 0.9300 0.8500 0.7000
v 0.018724 0.153788 -0.063155 0.9300 0.8500 0.7000
v 0.018724 0.153788 -0.046155 0.9300 0.8500 0.7000
v 0.018724 0.153788 -0.046155 0.9300 0.8500 0.7000
v 0.018724 0.153788 -0.046155 0.9300 0.8500 0.7000
v 0.018724 0.153788 -0.011155 0.9300 0.8500 0.7000
v 0.018724 0.153788 -0.011155 0.9300 0.8500 0.7000
v 0.018724 0.153788 -0.011155 0.9300 0.8500 0.7000
v 0.018724 0.153788 0.005845 0.9300 0.8500 0.7000
v 0.018724 0.153788 0.005845 0.9300 0.8500 0.7000
v 0.018724 0.153788 0.005845 0.9300 0.8500 0.7000
v 0.018724 0.153788 0.058345 0.9300 0.8500 0.7000
v 0.018724 0.153788 0.058345 0.9300 0.8500 0.7000
v 0.018724 0.153788 0.058345 0.9300 0.8500 0.7000
v 0.018724 0.153788 0.075345 0.9300 0.8500 0.7000
v 0.018724 0.153788 0.075345 0.9300 0.8500 0.7000
v 0.018724 0.153788 0.075345 0.9300 0.8500 0.7000
v 0.018724 0.242203 -0.063155 0.9300 0.8500 0.7000
v 0.018724 0.242203 -0.063155 0.9300 0.8500 0.7000
v 0.018724 0.242203 -0.063155 0.9300 0.8500 0.7000
v 0.018724 0.242203 -0.046155 0.9300 0.8500 0.7000
v 0.018724 0.242203 -0.046155 0.9300 0.8500 0.7000
v 0.018724 0.242203 -0.046155 0.9300 0.8500 0.7000
v 0.018724 0.242203 0.058345 0.9300 0.8500 0.7000
v 0.018724 0.242203 0.058345 0.9300 0.8500 0.7000
v 0.018724 0.242203 0.058345 0.9300 0.8500 0.7000
v 0.018724 0.242203 0.075345 0.9300 0.8500 0.7000
v 0.018724 0.242203 0.075345 0.9300 0.8500 0.7000
v 0.018724 0.242203 0.075345 0.9300 0.8500 0.7000
v 0.062924 -0.011997 -0.196155 0.9300 0.8500 0.7000
v 0.062924 -0.011997 -0.196155 0.9300 0.8500 0.7000
v 0.062924 -0.011997 -0.196155 0.9300 0.8500 0.7000
v 0.062924 -0.011997 -0.107655 0.9300 0.8500 0.7000
v 0.062924 -0.011997 -0.107655 0.9300 0.8500 0.7000
v 0.062924 -0.011997 -0.107655 0.9300 0.8500 0.7000
v 0.062924 -0.011997 0.113345 0.9300 0.8500 0.7000
v 0.062924 -0.011997 0.113345 0.9300 0.8500 0.7000
v 0.062924 -0.011997 0.113345 0.9300 0.8500 0.7000
v 0.062924 -0.011997 0.201845 0.9300 0.8500 0.7000
v 0.062924 -0.011997 0.201845 0.9300 0.8500 0.7000
v 0.062924 -0.011997 0.201845 0.9300 0.8500 0.7000
v 0.062924 0.040113 -0.107655 0.9300 0.8500 0.7000
v 0.062924 0.040113 -0.107655 0.9300 0.8500 0.7000
v 0.062924 0.040113 -0.107655 0.9300 0.8500 0.7000
v 0.062924 0.040113 -0.063155 0.9300 0.8500 0.7000
v 0.062924 0.040113 -0.063155 0.9300 0.8500 0.7000
v 0.062924 0.040113 0.069345 0.9300 0.8500 0.7000
v 0.062924 0.040113 0.069345 0.9300 0.8500 0.7000
v 0.062924 0.040113 0.113345 0.9300 0.8500 0.7000
v 0.062924 0.040113 0.113345 0.9300 0.8500 0.7000
v 0.062924 0.040113 0.113345 0.9300 0.8500 0.7000
v 0.062924 0.057483 -0.107655 0.9300 0.8500 0.7000
v 0.062924 0.057483 -0.107655 0.9300 0.8500 0.7000
v 0.062924 0.057483 -0.107655 0.9300 0.8500 0.7000
v 0.062924 0.057483 -0.063155 0.9300 0.8500 0.7000
v 0.062924 0.057483 -0.063155 0.9300 0.8500 0.7000
v 0.062924 0.057483 0.069345 0.9300 0.8500 0.7000
v 0.062924 0.057483 0.069345 0.9300 0.8500 0.7000
v 0.062924 0.057483 0.113345 0.9300 0.8500 0.7000
v 0.062924 0.057483 0.113345 0.9300 0.8500 0.7000
v 0.062924 0.057483 0.113345 0.9300 0.8500 0.7000
v 0.062924 0.092223 -0.196155 0.9300 0.8500 0.7000
v 0.062924 0.092223 -0.196155 0.9300 0.8500 0.7000
v 0.062924 0.092223 -0.196155 0.9300 0.8500 0.7000
v 0.062924 0.092223 -0.107655 0.9300 0.8500 0.7000
v 0.062924 0.092223 -0.107655 0.9300 0.8500 0.7000
v 0.062924 0.092223 -0.107655 0.9300 0.8500 0.7000
v 0.062924 0.092223 0.113345 0.9300 0.8500 0.7000
v 0.062924 0.092223 0.113345 0.9300 0.8500 0.7000
v 0.062924 0.092223 0.113345 0.9300 0.8500 0.7000
v 0.062924 0.092223 0.201845 0.9300 0.8500 0.7000
v 0.062924 0.092223 0.201845 0.9300 0.8500 0.7000
v 0.062924 0.092223 0.201845 0.9300 0.8500 0.7000
v 0.062924 0.109583 -0.011155 0.9300 0.8500 0.7000
v 0.062924 0.109583 -0.011155 0.9300 0.8500 0.7000
v 0.062924 0.109583 0.005845 0.9300 0.8500 0.7000
v 0.062924 0.109583 0.005845 0.9300 0.8500 0.7000
v 0.062924 0.153788 -0.046155 0.9300 0.8500 0.7000
v 0.062924 0.153788 -0.046155 0.9300 0.8500 0.7000
v 0.062924 0.153788 -0.046155 0.9300 0.8500 0.7000
v 0.062924 0.153788 -0.011155 0.9300 0.8500 0.7000
v 0.062924 0.153788 -0.011155 0.9300 0.8500 0.7000
v 0.062924 0.153788 -0.011155 0.9300 0.8500 0.7000
v 0.062924 0.153788 0.005845 0.9300 0.8500 0.7000
v 0.062924 0.153788 0.005845 0.9300 0.8500 0.7000
v 0.062924 0.153788 0.005845 0.9300 0.8500 0.7000
v 0.062924 0.153788 0.058345 0.9300 0.8500 0.7000
v 0.062924 0.153788 0.058345 0.9300 0.8500 0.7000
v 0.062924 0.153788 0.058345 0.9300 0.8500 0.7000
v 0.062924 0.242203 -0.046155 0.9300 0.8500 0.7000
v 0.062924 0.242203 -0.046155 0.9300 0.8500 0.7000
v 0.062924 0.242203 -0.046155 0.9300 0.8500 0.7000
v 0.062924 0.242203 0.058345 0.9300 0.8500 0.7000
v 0.062924 0.242203 0.058345 0.9300 0.8500 0.7000
v 0.062924 0.242203 0.058345 0.9300 0.8500 0.7000
v 0.185724 -0.236527 -0.094655 0.9300 0.8500 0.7000
v 0.185724 -0.236527 -0.094655 0.9300 0.8500 0.7000
v 0.185724 -0.236527 -0.094655 0.9300 0.8500 0.7000
v 0.185724 -0.236527 0.098345 0.9300 0.8500 0.7000
v 0.185724 -0.236527 0.098345 0.9300 0.8500 0.7000
v 0.185724 -0.236527 0.098345 0.9300 0.8500 0.7000
v 0.185724 0.090353 -0.094655 0.9300 0.8500 0.7000
v 0.185724 0.090353 -0.094655 0.9300 0.8500 0.7000
v 0.185724 0.090353 -0.094655 0.9300 0.8500 0.7000
v 0.185724 0.090353 -0.033655 0.9300 0.8500 0.7000
v 0.185724 0.090353 -0.033655 0.9300 0.8500 0.7000
v 0.185724 0.090353 -0.033655 0.9300 0.8500 0.7000
v 0.185724 0.090353 0.037845 0.9300 0.8500 0.7000
v 0.185724 0.090353 0.037845 0.9300 0.8500 0.7000
v 0.185724 0.090353 0.037845 0.9300 0.8500 0.7000
v 0.185724 0.090353 0.098345 0.9300 0.8500 0.7000
v 0.185724 0.090353 0.098345 0.9300 0.8500 0.7000
v 0.185724 0.090353 0.098345 0.9300 0.8500 0.7000
v 0.185724 0.151448 -0.033655 0.9300 0.8500 0.7000
v 0.185724 0.151448 -0.033655 0.9300 0.8500 0.7000
v 0.185724 0.151448 -0.033655 0.9300 0.8500 0.7000
v 0.185724 0.151448 0.037845 0.9300 0.8500 0.7000
v 0.185724 0.151448 0.037845 0.9300 0.8500 0.7000
v 0.185724 0.151448 0.037845 0.9300 0.8500 0.7000
v 0.285724 -0.236527 -0.094655 0.9300 0.8500 0.7000
v 0.285724 -0.236527 -0.094655 0.9300 0.8500 0.7000
v 0.285724 -0.236527 -0.094655 0.9300 0.8500 0.7000
v 0.285724 -0.236527 0.098345 0.9300 0.8500 0.7000
v 0.285724 -0.236527 0.098345 0.9300 0.8500 0.7000
v 0.285724 -0.236527 0.098345 0.9300 0.8500 0.7000
v 0.285724 0.090353 -0.094655 0.9300 0.8500 0.7000
v 0.285724 0.090353 -0.094655 0.9300 0.8500 0.7000
v 0.285724 0.090353 -0.094655 0.9300 0.8500 0.7000
v 0.285724 0.090353 -0.033655 0.9300 0.8500 0.7000
v 0.285724 0.090353 -0.033655 0.9300 0.8500 0.7000
v 0.285724 0.090353 -0.033655 0.9300 0.8500 0.7000
v 0.285724 0.090353 0.037845 0.9300 0.8500 0.7000
v 0.285724 0.090353 0.037845 0.9300 0.8500 0.7000
v 0.285724 0.090353 0.037845 0.9300 0.8500 0.7000
v 0.285724 0.090353 0.098345 0.9300 0.8500 0.7000
v 0.285724 0.090353 0.098345 0.9300 0.8500 0.7000
v 0.285724 0.090353 0.098345 0.9300 0.8500 0.7000
v 0.285724 0.151448 -0.033655 0.9300 0.8500 0.7000
v 0.285724 0.151448 -0.033655 0.9300 0.8500 0.7000
v 0.285724 0.151448 -0.033655 0.9300 0.8500 0.7000
v 0.285724 0.151448 0.037845 0.9300 0.8500 0.7000
v 0.285724 0.151448 0.037845 0.9300 0.8500 0.7000
v 0.285724 0.151448 0.037845 0.9300 0.8500 0.7000
vn -1.00000 0.00000 0.00000
vn 0.00000 -1.00000 0.00000
vn 0.00000 0.00000 -1.00000
vn -1.00000 0.00000 0.00000
vn 0.00000 -1.00000 0.00000
vn 0.00000 0.00000 1.00000
vn -1.00000 0.00000 0.00000
vn 0.00000 0.00000 -1.00000
vn 0.00000 1.00000 0.00000
vn -1.00000 0.00000 0.00000
vn 0.00000 0.00000 -1.00000
vn 0.00000 1.00000 0.00000
vn -1.00000 0.00000 0.00000
vn 0.00000 0.00000 1.00000
vn 0.00000 1.00000 0.00000
vn -1.00000 0.00000 0.00000
vn 0.00000 0.00000 1.00000
vn 0.00000 1.00000 0.00000
vn -1.00000 0.00000 0.00000
vn 0.00000 0.00000 -1.00000
vn 0.00000 1.00000 0.00000
vn -1.00000 0.00000 0.00000
vn 0.00000 0.00000 1.00000
vn 0.00000 1.00000 0.00000
vn 0.00000 -1.00000 0.00000
vn 0.00000 0.00000 -1.00000
vn 1.00000 0.00000 0.00000
vn 0.00000 -1.00000 0.00000
vn 0.00000 0.00000 1.00000
vn 1.00000 0.00000 0.00000
vn 0.00000 0.00000 -1.00000
vn 0.00000 1.00000 0.00000
vn 1.00000 0.00000 0.00000
vn 0.00000 0.00000 -1.00000
vn 0.00000 1.00000 0.00000
vn 1.00000 0.00000 0.00000
vn 0.00000 0.00000 1.00000
vn 0.00000 1.00000 0.00000
vn 1.00000 0.00000 0.00000
vn 0.00000 0.00000 1.00000
vn 0.00000 1.00000 0.00000
vn 1.00000 0.00000 0.00000
vn 0.00000 0.00000 -1.00000
vn 0.00000 1.00000 0.00000
vn 1.00000 0.00000 0.00000
vn 0.00000 0.00000 1.00000
vn 0.00000 1.00000 0.00000
vn 1.00000 0.00000 0.00000
vn -1.00000 0.00000 0.00000
vn 0.00000 -1.00000 0.00000
vn 0.00000 0.00000 -1.00000
vn -1.00000 0.00000 0.00000
vn 0.00000 -1.00000 0.00000
vn 0.00000 0.00000 1.00000
vn -1.00000 0.00000 0.00000
vn 0.00000 -1.00000 0.00000
vn 0.00000 0.00000 -1.00000
vn -1.00000 0.00000 0.00000
vn 0.00000 -1.00000 0.00000
vn 0.00000 0.00000 1.00000
vn -1.00000 0.00000 0.00000
vn 0.00000 -1.00000 0.00000
vn 0.00000 0.00000 1.00000
vn -1.00000 0.00000 0.00000
vn 0.00000 -1.00000 0.00000
vn -1.00000 0.00000 0.00000
vn 0.00000 -1.00000 0.00000
vn -1.00000 0.00000 0.00000
vn 0.00000 -1.00000 0.00000
vn 0.00000 0.00000 -1.00000
vn -1.00000 0.00000 0.00000
vn 0.00000 0.00000 1.00000
vn 0.00000 1.00000 0.00000
vn -1.00000 0.00000 0.00000
vn 0.00000 1.00000 0.00000
vn -1.00000 0.00000 0.00000
vn 0.00000 1.00000 0.00000
vn -1.00000 0.00000 0.00000
vn 0.00000 0.00000 -1.00000
vn 0.00000 1.00000 0.00000
vn -1.00000 0.00000 0.00000
vn 0.00000 0.00000 -1.00000
vn 0.00000 1.00000 0.00000
vn -1.00000 0.00000 0.00000
vn 0.00000 0.00000 1.00000
vn 0.00000 1.00000 0.00000
vn -1.00000 0.00000 0.00000
vn 0.00000 0.00000 -1.00000
vn 0.00000 1.00000 0.00000
vn -1.00000 0.00000 0.00000
vn 0.00000 0.00000 1.00000
vn 0.00000 1.00000 0.00000
vn -1.00000 0.00000 0.00000
vn 0.00000 0.00000 -1.00000
vn -1.00000 0.00000 0.00000
vn 0.00000 0.00000 1.00000
vn -1.00000 0.00000 0.00000
vn 0.00000 -1.00000 0.00000
vn 0.00000 0.00000 -1.00000
vn -1.00000 0.00000 0.00000
vn 0.00000 -1.00000 0.00000
vn 0.00000 0.00000 -1.00000
vn -1.00000 0.00000 0.00000
vn 0.00000 -1.00000 0.00000
vn 0.00000 0.00000 1.00000
vn -1.00000 0.00000 0.00000
vn 0.00000 -1.00000 0.00000
vn 0.00000 0.00000 1.00000
vn -1.00000 0.00000 0.00000
vn 0.00000 0.00000 -1.00000
vn 0.00000 1.00000 0.00000
vn -1.00000 0.00000 0.00000
vn 0.00000 0.00000 1.00000
vn 0.00000 1.00000 0.00000
vn -1.00000 0.00000 0.00000
vn 0.00000 -1.00000 0.00000
vn 0.00000 0.00000 -1.00000
vn -1.00000 0.00000 0.00000
vn 0.00000 -1.00000 0.00000
vn 0.00000 0.00000 1.00000
vn -1.00000 0.00000 0.00000
vn 0.00000 -1.00000 0.00000
vn 0.00000 0.00000 -1.00000
vn -1.00000 0.00000 0.00000
vn 0.00000 -1.00000 0.00000
vn 0.00000 0.00000 1.00000
vn -1.00000 0.00000 0.00000
vn 0.00000 -1.00000 0.00000
vn 0.00000 0.00000 -1.00000
vn -1.00000 0.00000 0.00000
vn 0.00000 -1.00000 0.00000
vn 0.00000 0.00000 1.00000
vn -1.00000 0.00000 0.00000
vn 0.00000 -1.00000 0.00000
vn -1.00000 0.00000 0.00000
vn 0.00000 -1.00000 0.00000
vn -1.00000 0.00000 0.00000
vn 0.00000 -1.00000 0.00000
vn 0.00000 0.00000 -1.00000
vn -1.00000 0.00000 0.00000
vn 0.00000 -1.00000 0.00000
vn 0.00000 0.00000 1.00000
vn -1.00000 0.00000 0.00000
vn 0.00000 -1.00000 0.00000
vn 0.00000 0.00000 1.00000
vn -1.00000 0.00000 0.00000
vn 0.00000 -1.00000 0.00000
vn -1.00000 0.00000 0.00000
vn 0.00000 -1.00000 0.00000
vn -1.00000 0.00000 0.00000
vn 0.00000 -1.00000 0.00000
vn 0.00000 0.00000 -1.00000
vn -1.00000 0.00000 0.00000
vn 0.00000 0.00000 1.00000
vn 0.00000 1.00000 0.00000
vn -1.00000 0.00000 0.00000
vn 0.00000 1.00000 0.00000
vn -1.00000 0.00000 0.00000
vn 0.00000 1.00000 0.00000
vn -1.00000 0.00000 0.00000
vn 0.00000 0.00000 -1.00000
vn 0.00000 1.00000 0.00000
vn -1.00000 0.00000 0.00000
vn 0.00000 0.00000 -1.00000
vn 0.00000 1.00000 0.00000
vn -1.00000 0.00000 0.00000
vn 0.00000 0.00000 1.00000
vn 0.00000 1.00000 0.00000
vn -1.00000 0.00000 0.00000
vn 0.00000 1.00000 0.00000
vn -1.00000 0.00000 0.00000
vn 0.00000 1.00000 0.00000
vn -1.00000 0.00000 0.00000
vn 0.00000 0.00000 -1.00000
vn 0.00000 1.00000 0.00000
vn -1.00000 0.00000 0.00000
vn 0.00000 0.00000 1.00000
vn 0.00000 1.00000 0.00000
vn -1.00000 0.00000 0.00000
vn 0.00000 0.00000 -1.00000
vn -1.00000 0.00000 0.00000
vn 0.00000 0.00000 -1.00000
vn -1.00000 0.00000 0.00000
vn 0.00000 0.00000 1.00000
vn -1.00000 0.00000 0.00000
vn 0.00000 0.00000 1.00000
vn -1.00000 0.00000 0.00000
vn 0.00000 0.00000 -1.00000
vn 0.00000 1.00000 0.00000
vn -1.00000 0.00000 0.00000
vn 0.00000 0.00000 1.00000
vn 0.00000 1.00000 0.00000
vn -1.00000 0.00000 0.00000
vn 0.00000 0.00000 -1.00000
vn 0.00000 1.00000 0.00000
vn -1.00000 0.00000 0.00000
vn 0.00000 0.00000 1.00000
vn 0.00000 1.00000 0.00000
vn -1.00000 0.00000 0.00000
vn 0.00000 -1.00000 0.00000
vn 0.00000 0.00000 -1.00000
vn -1.00000 0.00000 0.00000
vn 0.00000 -1.00000 0.00000
vn 0.00000 0.00000 -1.00000
vn -1.00000 0.00000 0.00000
vn 0.00000 -1.00000 0.00000
vn 0.00000 0.00000 -1.00000
vn -1.00000 0.00000 0.00000
vn 0.00000 -1.00000 0.00000
vn 0.00000 0.00000 1.00000
vn -1.00000 0.00000 0.00000
vn 0.00000 -1.00000 0.00000
vn 0.00000 0.00000 1.00000
vn -1.00000 0.00000 0.00000
vn 0.00000 -1.00000 0.00000
vn 0.00000 0.00000 1.00000
vn -1.00000 0.00000 0.00000
vn 0.00000 0.00000 -1.00000
vn 0.00000 1.00000 0.00000
vn -1.00000 0.00000 0.00000
vn 0.00000 0.00000 -1.00000
vn 0.00000 1.00000 0.00000
vn -1.00000 0.00000 0.00000
vn 0.00000 0.00000 1.00000
vn 0.00000 1.00000 0.00000
vn -1.00000 0.00000 0.00000
vn 0.00000 0.00000 1.00000
vn 0.00000 1.00000 0.00000
vn 0.00000 -1.00000 0.00000
vn 0.00000 0.00000 -1.00000
vn 1.00000 0.00000 0.00000
vn 0.00000 -1.00000 0.00000
vn 0.00000 0.00000 1.00000
vn 1.00000 0.00000 0.00000
vn 0.00000 -1.00000 0.00000
vn 0.00000 0.00000 -1.00000
vn 1.00000 0.00000 0.00000
vn 0.00000 -1.00000 0.00000
vn 0.00000 0.00000 1.00000
vn 1.00000 0.00000 0.00000
vn 0.00000 -1.00000 0.00000
vn 0.00000 0.00000 -1.00000
vn 1.00000 0.00000 0.00000
vn 0.00000 -1.00000 0.00000
vn 0.00000 0.00000 1.00000
vn 1.00000 0.00000 0.00000
vn 0.00000 -1.00000 0.00000
vn 1.00000 0.00000 0.00000
vn 0.00000 -1.00000 0.00000
vn 1.00000 0.00000 0.00000
vn 0.00000 -1.00000 0.00000
vn 0.00000 0.00000 -1.00000
vn 1.00000 0.00000 0.00000
vn 0.00000 -1.00000 0.00000
vn 0.00000 0.00000 1.00000
vn 1.00000 0.00000 0.00000
vn 0.00000 -1.00000 0.00000
vn 0.00000 0.00000 1.00000
vn 1.00000 0.00000 0.00000
vn 0.00000 -1.00000 0.00000
vn 1.00000 0.00000 0.00000
vn 0.00000 -1.00000 0.00000
vn 1.00000 0.00000 0.00000
vn 0.00000 -1.00000 0.00000
vn 0.00000 0.00000 -1.00000
vn 1.00000 0.00000 0.00000
vn 0.00000 0.00000 1.00000
vn 0.00000 1.00000 0.00000
vn 1.00000 0.00000 0.00000
vn 0.00000 1.00000 0.00000
vn 1.00000 0.00000 0.00000
vn 0.00000 1.00000 0.00000
vn 1.00000 0.00000 0.00000
vn 0.00000 0.00000 -1.00000
vn 0.00000 1.00000 0.00000
vn 1.00000 0.00000 0.00000
vn 0.00000 0.00000 -1.00000
vn 0.00000 1.00000 0.00000
vn 1.00000 0.00000 0.00000
vn 0.00000 0.00000 1.00000
vn 0.00000 1.00000 0.00000
vn 1.00000 0.00000 0.00000
vn 0.00000 1.00000 0.00000
vn 1.00000 0.00000 0.00000
vn 0.00000 1.00000 0.00000
vn 1.00000 0.00000 0.00000
vn 0.00000 0.00000 -1.00000
vn 0.00000 1.00000 0.00000
vn 1.00000 0.00000 0.00000
vn 0.00000 0.00000 1.00000
vn 0.00000 1.00000 0.00000
vn 1.00000 0.00000 0.00000
vn 0.00000 0.00000 -1.00000
vn 1.00000 0.00000 0.00000
vn 0.00000 0.00000 -1.00000
vn 1.00000 0.00000 0.00000
vn 0.00000 0.00000 1.00000
vn 1.00000 0.00000 0.00000
vn 0.00000 0.00000 1.00000
vn 1.00000 0.00000 0.00000
vn 0.00000 0.00000 -1.00000
vn 0.00000 1.00000 0.00000
vn 1.00000 0.00000 0.00000
vn 0.00000 0.00000 1.00000
vn 0.00000 1.00000 0.00000
vn 1.00000 0.00000 0.00000
vn 0.00000 0.00000 -1.00000
vn 0.00000 1.00000 0.00000
vn 1.00000 0.00000 0.00000
vn 0.00000 0.00000 1.00000
vn 0.00000 1.00000 0.00000
vn 1.00000 0.00000 0.00000
vn 0.00000 -1.00000 0.00000
vn 0.00000 0.00000 -1.00000
vn 1.00000 0.00000 0.00000
vn 0.00000 -1.00000 0.00000
vn 0.00000 0.00000 -1.00000
vn 1.00000 0.00000 0.00000
vn 0.00000 -1.00000 0.00000
vn 0.00000 0.00000 -1.00000
vn 1.00000 0.00000 0.00000
vn 0.00000 -1.00000 0.00000
vn 0.00000 0.00000 1.00000
vn 1.00000 0.00000 0.00000
vn 0.00000 -1.00000 0.00000
vn 0.00000 0.00000 1.00000
vn 1.00000 0.00000 0.00000
vn 0.00000 -1.00000 0.00000
vn 0.00000 0.00000 1.00000
vn 1.00000 0.00000 0.00000
vn 0.00000 0.00000 -1.00000
vn 0.00000 1.00000 0.00000
vn 1.00000 0.00000 0.00000
vn 0.00000 0.00000 -1.00000
vn 0.00000 1.00000 0.00000
vn 1.00000 0.00000 0.00000
vn 0.00000 0.00000 1.00000
vn 0.00000 1.00000 0.00000
vn 1.00000 0.00000 0.00000
vn 0.00000 0.00000 1.00000
vn 0.00000 1.00000 0.00000
vn 1.00000 0.00000 0.00000
vn 0.00000 -1.00000 0.00000
vn 0.00000 0.00000 -1.00000
vn 1.00000 0.00000 0.00000
vn 0.00000 -1.00000 0.00000
vn 0.00000 0.00000 1.00000
vn 1.00000 0.00000 0.00000
vn 0.00000 -1.00000 0.00000
vn 0.00000 0.00000 -1.00000
vn 1.00000 0.00000 0.00000
vn 0.00000 -1.00000 0.00000
vn 0.00000 0.00000 1.00000
vn 1.00000 0.00000 0.00000
vn 0.00000 -1.00000 0.00000
vn 0.00000 0.00000 1.00000
vn 1.00000 0.00000 0.00000
vn 0.00000 -1.00000 0.00000
vn 1.00000 0.00000 0.00000
vn 0.00000 -1.00000 0.00000
vn 1.00000 0.00000 0.00000
vn 0.00000 -1.00000 0.00000
vn 0.00000 0.00000 -1.00000
vn 1.00000 0.00000 0.00000
vn 0.00000 0.00000 1.00000
vn 0.00000 1.00000 0.00000
vn 1.00000 0.00000 0.00000
vn 0.00000 1.00000 0.00000
vn 1.00000 0.00000 0.00000
vn 0.00000 1.00000 0.00000
vn 1.00000 0.00000 0.00000
vn 0.00000 0.00000 -1.00000
vn 0.00000 1.00000 0.00000
vn 1.00000 0.00000 0.00000
vn 0.00000 0.00000 -1.00000
vn 0.00000 1.00000 0.00000
vn 1.00000 0.00000 0.00000
vn 0.00000 0.00000 1.00000
vn 0.00000 1.00000 0.00000
vn 1.00000 0.00000 0.00000
vn 0.00000 0.00000 -1.00000
vn 0.00000 1.00000 0.00000
vn 1.00000 0.00000 0.00000
vn 0.00000 0.00000 1.00000
vn 0.00000 1.00000 0.00000
vn 1.00000 0.00000 0.00000
vn 0.00000 0.00000 -1.00000
vn 1.00000 0.00000 0.00000
vn 0.00000 0.00000 1.00000
vn 1.00000 0.00000 0.00000
vn 0.00000 -1.00000 0.00000
vn 0.00000 0.00000 -1.00000
vn 1.00000 0.00000 0.00000
vn 0.00000 -1.00000 0.00000
vn 0.00000 0.00000 -1.00000
vn 1.00000 0.00000 0.00000
vn 0.00000 -1.00000 0.00000
vn 0.00000 0.00000 1.00000
vn 1.00000 0.00000 0.00000
vn 0.00000 -1.00000 0.00000
vn 0.00000 0.00000 1.00000
vn 1.00000 0.00000 0.00000
vn 0.00000 0.00000 -1.00000
vn 0.00000 1.00000 0.00000
vn 1.00000 0.00000 0.00000
vn 0.00000 0.00000 1.00000
vn 0.00000 1.00000 0.00000
vn 1.00000 0.00000 0.00000
vn -1.00000 0.00000 0.00000
vn 0.00000 -1.00000 0.00000
vn 0.00000 0.00000 -1.00000
vn -1.00000 0.00000 0.00000
vn 0.00000 -1.00000 0.00000
vn 0.00000 0.00000 1.00000
vn -1.00000 0.00000 0.00000
vn 0.00000 0.00000 -1.00000
vn 0.00000 1.00000 0.00000
vn -1.00000 0.00000 0.00000
vn 0.00000 0.00000 -1.00000
vn 0.00000 1.00000 0.00000
vn -1.00000 0.00000 0.00000
vn 0.00000 0.00000 1.00000
vn 0.00000 1.00000 0.00000
vn -1.00000 0.00000 0.00000
vn 0.00000 0.00000 1.00000
vn 0.00000 1.00000 0.00000
vn -1.00000 0.00000 0.00000
vn 0.00000 0.00000 -1.00000
vn 0.00000 1.00000 0.00000
vn -1.00000 0.00000 0.00000
vn 0.00000 0.00000 1.00000
vn 0.00000 1.00000 0.00000
vn 0.00000 -1.00000 0.00000
vn 0.00000 0.00000 -1.00000
vn 1.00000 0.00000 0.00000
vn 0.00000 -1.00000 0.00000
vn 0.00000 0.00000 1.00000
vn 1.00000 0.00000 0.00000
vn 0.00000 0.00000 -1.00000
vn 0.00000 1.00000 0.00000
vn 1.00000 0.00000 0.00000
vn 0.00000 0.00000 -1.00000
vn 0.00000 1.00000 0.00000
vn 1.00000 0.00000 0.00000
vn 0.00000 0.00000 1.00000
vn 0.00000 1.00000 0.00000
vn 1.00000 0.00000 0.00000
vn 0.00000 0.00000 1.00000
vn 0.00000 1.00000 0.00000
vn 1.00000 0.00000 0.00000
vn 0.00000 0.00000 -1.00000
vn 0.00000 1.00000 0.00000
vn 1.00000 0.00000 0.00000
vn 0.00000 0.00000 1.00000
vn 0.00000 1.00000 0.00000
vn 1.00000 0.00000 0.00000
f 447//447 438//438 444//444
f 450//450 438//438 447//447
f 435//435 444//444 438//438
f 435//435 441//441 444//444
f 453//453 447//447 444//444
f 456//456 447//447 453//453
f 374//374 361//361 371//371
f 361//361 374//374 364//364
f 386//386 364//364 374//374
f 386//386 374//374 383//383
f 364//364 386//386 354//354
f 364//364 354//354 351//351
f 377//377 357//357 345//345
f 357//357 348//348 345//345
f 357//357 377//377 367//367
f 367//367 377//377 380//380
f 367//367 359//359 357//357
f 367//367 369//369 359//359
f 396//396 390//390 388//388
f 399//399 390//390 396//396
f 405//405 399//399 396//396
f 405//405 396//396 393//393
f 399//399 405//405 408//408
f 408//408 402//402 399//399
f 263//263 266//266 250//250
f 250//250 266//266 253//253
f 253//253 256//256 240//240
f 240//240 237//237 253//253
f 292//292 289//289 309//309
f 309//309 312//312 292//292
f 273//273 289//289 276//276
f 286//286 289//289 273//273
f 282//282 284//284 269//269
f 269//269 284//284 271//271
f 279//279 306//306 282//282
f 303//303 306//306 279//279
f 259//259 261//261 246//246
f 246//246 261//261 248//248
f 231//231 246//246 234//234
f 246//246 231//231 243//243
f 336//336 315//315 333//333
f 315//315 336//336 318//318
f 296//296 318//318 321//321
f 318//318 296//296 294//294
f 342//342 327//327 339//339
f 327//327 342//342 330//330
f 300//300 324//324 327//327
f 324//324 300//300 298//298
f 48//48 36//36 45//45
f 36//36 48//48 39//39
f 30//30 36//36 39//39
f 30//30 39//39 42//42
f 27//27 36//36 30//30
f 27//27 33//33 36//36
f 222//222 111//111 114//114
f 225//225 222//222 114//114
f 341//341 225//225 228//228
f 225//225 341//341 338//338
f 338//338 222//222 225//225
f 332//332 219//219 222//222
f 332//332 222//222 335//335
f 338//338 335//335 222//222
f 335//335 338//338 404//404
f 404//404 338//338 407//407
f 44//44 21//21 24//24
f 44//44 24//24 47//47
f 429//429 455//455 452//452
f 455//455 429//429 432//432
f 195//195 198//198 308//308
f 308//308 198//198 311//311
f 305//305 302//302 189//189
f 189//189 192//192 305//305
f 385//385 382//382 288//288
f 288//288 291//291 385//385
f 285//285 172//172 288//288
f 172//172 175//175 288//288
f 175//175 92//92 178//178
f 89//89 92//92 175//175
f 168//168 165//165 83//83
f 83//83 86//86 168//168
f 168//168 170//170 283//283
f 281//281 168//168 283//283
f 278//278 281//281 379//379
f 379//379 376//376 278//278
f 32//32 9//9 12//12
f 32//32 12//12 35//35
f 38//38 15//15 18//18
f 38//38 18//18 41//41
f 417//417 443//443 440//440
f 443//443 417//417 420//420
f 423//423 449//449 446//446
f 449//449 423//423 426//426
f 159//159 77//77 162//162
f 77//77 80//80 162//162
f 370//370 272//272 373//373
f 272//272 275//275 373//373
f 366//366 268//268 368//368
f 268//268 270//270 368//368
f 155//155 73//73 157//157
f 73//73 75//75 157//157
f 177//177 60//60 142//142
f 177//177 91//91 60//60
f 239//239 142//142 126//126
f 142//142 239//239 255//255
f 255//255 177//177 142//142
f 177//177 310//310 197//197
f 310//310 177//177 290//290
f 255//255 290//290 177//177
f 290//290 255//255 384//384
f 384//384 255//255 353//353
f 17//17 6//6 29//29
f 29//29 40//40 17//17
f 437//437 448//448 414//414
f 414//414 448//448 425//425
f 227//227 216//216 329//329
f 329//329 340//340 227//227
f 337//337 326//326 401//401
f 401//401 406//406 337//337
f 299//299 326//326 213//213
f 186//186 299//299 213//213
f 213//213 224//224 108//108
f 108//108 224//224 113//113
f 37//37 46//46 14//14
f 14//14 46//46 23//23
f 422//422 445//445 431//431
f 445//445 454//454 431//431
f 297//297 389//389 323//323
f 389//389 398//398 323//323
f 96//96 184//184 105//105
f 184//184 210//210 105//105
f 132//132 145//145 54//54
f 54//54 145//145 63//63
f 120//120 245//245 132//132
f 120//120 233//233 245//245
f 347//347 356//356 245//245
f 245//245 356//356 258//258
f 154//154 85//85 72//72
f 85//85 154//154 167//167
f 167//167 304//304 191//191
f 167//167 280//280 304//304
f 365//365 280//280 267//267
f 280//280 365//365 378//378
f 7//7 1//1 10//10
f 1//1 13//13 10//10
f 13//13 19//19 10//10
f 19//19 13//13 22//22
f 13//13 1//1 4//4
f 13//13 4//4 16//16
f 66//66 68//68 76//76
f 76//76 68//68 78//78
f 68//68 90//90 78//78
f 90//90 87//87 78//78
f 68//68 58//58 90//90
f 58//58 68//68 55//55
f 81//81 61//61 71//71
f 81//81 71//71 84//84
f 61//61 81//81 49//49
f 61//61 49//49 52//52
f 64//64 71//71 61//61
f 71//71 64//64 74//74
f 103//103 112//112 109//109
f 112//112 103//103 106//106
f 109//109 100//100 103//103
f 100//100 109//109 97//97
f 93//93 103//103 100//100
f 103//103 93//93 95//95
f 171//171 158//158 160//160
f 171//171 160//160 173//173
f 173//173 176//176 193//193
f 193//193 176//176 196//196
f 121//121 124//124 137//137
f 137//137 124//124 140//140
f 148//148 137//137 150//150
f 148//148 135//135 137//137
f 115//115 130//130 127//127
f 130//130 115//115 118//118
f 143//143 130//130 133//133
f 143//143 133//133 146//146
f 166//166 153//153 156//156
f 166//166 156//156 169//169
f 187//187 166//166 190//190
f 166//166 187//187 163//163
f 179//179 205//205 202//202
f 205//205 179//179 181//181
f 220//220 199//199 202//202
f 199//199 220//220 217//217
f 211//211 226//226 223//223
f 226//226 211//211 214//214
f 211//211 183//183 185//185
f 183//183 211//211 208//208
f 409//409 418//418 415//415
f 409//409 421//421 418//418
f 421//421 409//409 412//412
f 421//421 412//412 424//424
f 418//418 421//421 430//430
f 427//427 418//418 430//430
f 25//25 5//5 2//2
f 5//5 25//25 28//28
f 433//433 436//436 410//410
f 410//410 436//436 413//413
f 125//125 122//122 235//235
f 235//235 238//238 125//125
f 119//119 116//116 229//229
f 229//229 232//232 119//119
f 136//136 249//249 138//138
f 249//249 251//251 138//138
f 254//254 251//251 349//349
f 349//349 352//352 254//254
f 138//138 141//141 56//56
f 56//56 141//141 59//59
f 244//244 241//241 343//343
f 343//343 346//346 244//244
f 244//244 247//247 134//134
f 131//131 244//244 134//134
f 128//128 131//131 53//53
f 53//53 50//50 128//128
f 262//262 360//360 264//264
f 360//360 362//362 264//264
f 67//67 149//149 69//69
f 149//149 151//151 69//69
f 257//257 355//355 260//260
f 355//355 358//358 260//260
f 62//62 144//144 65//65
f 144//144 147//147 65//65
f 322//322 397//397 400//400
f 322//322 400//400 325//325
f 212//212 325//325 328//328
f 212//212 328//328 215//215
f 104//104 212//212 107//107
f 104//104 209//209 212//212
f 200//200 313//313 316//316
f 200//200 316//316 203//203
f 316//316 394//394 319//319
f 316//316 391//391 394//394
f 98//98 203//203 206//206
f 98//98 206//206 101//101
f 242//242 129//129 164//164
f 51//51 164//164 129//129
f 164//164 51//51 82//82
f 129//129 242//242 117//117
f 242//242 230//230 117//117
f 242//242 164//164 277//277
f 188//188 277//277 164//164
f 188//188 301//301 277//277
f 277//277 344//344 242//242
f 344//344 277//277 375//375
f 31//31 3//3 8//8
f 3//3 31//31 26//26
f 439//439 434//434 416//416
f 416//416 434//434 411//411
f 331//331 314//314 218//218
f 218//218 314//314 201//201
f 403//403 317//317 334//334
f 317//317 403//403 392//392
f 180//180 317//317 293//293
f 317//317 180//180 204//204
f 110//110 204//204 99//99
f 221//221 204//204 110//110
f 20//20 43//43 34//34
f 20//20 34//34 11//11
f 451//451 419//419 428//428
f 419//419 451//451 442//442
f 207//207 94//94 102//102
f 94//94 207//207 182//182
f 395//395 295//295 320//320
f 295//295 395//395 387//387
f 265//265 363//363 350//350
f 265//265 350//350 252//252
f 139//139 252//252 236//236
f 139//139 236//236 123//123
f 70//70 139//139 57//57
f 70//70 152//152 139//139
f 194//194 307//307 287//287
f 194//194 287//287 174//174
f 287//287 372//372 274//274
f 287//287 381//381 372//372
f 88//88 174//174 161//161
f 88//88 161//161 79//79
